<svg width="567" height="188" viewBox="0 0 567 188" fill="none" xmlns="http://www.w3.org/2000/svg">
<path d="M1.67045 0.181816H12.1023V51.4545H12.75L48.2727 0.181816H58.0227V70H47.4886V18.7955H46.8409L11.3864 70H1.67045V0.181816ZM108.06 39.4205V48.25H79.696V39.4205H108.06ZM82.5597 17.6364V70H72.571V17.6364H82.5597ZM115.185 17.6364V70H105.23V17.6364H115.185ZM128.821 70V17.6364H150.537C156.446 17.6364 161.128 18.8977 164.582 21.4205C168.037 23.9205 169.764 27.3182 169.764 31.6136C169.764 34.6818 168.787 37.1136 166.832 38.9091C164.878 40.7045 162.287 41.9091 159.06 42.5227C161.401 42.7955 163.548 43.5 165.503 44.6364C167.457 45.75 169.026 47.25 170.207 49.1364C171.412 51.0227 172.014 53.2727 172.014 55.8864C172.014 58.6591 171.298 61.1136 169.866 63.25C168.435 65.3636 166.355 67.0227 163.628 68.2273C160.923 69.4091 157.662 70 153.844 70H128.821ZM138.401 61.4773H153.844C156.366 61.4773 158.344 60.875 159.776 59.6705C161.207 58.4659 161.923 56.8295 161.923 54.7614C161.923 52.3295 161.207 50.4205 159.776 49.0341C158.344 47.625 156.366 46.9205 153.844 46.9205H138.401V61.4773ZM138.401 39.4545H150.639C152.548 39.4545 154.185 39.1818 155.548 38.6364C156.935 38.0909 157.991 37.3182 158.719 36.3182C159.469 35.2955 159.844 34.0909 159.844 32.7045C159.844 30.6818 159.014 29.1023 157.355 27.9659C155.696 26.8295 153.423 26.2614 150.537 26.2614H138.401V39.4545ZM205.764 71.0568C200.605 71.0568 196.162 69.9545 192.435 67.75C188.73 65.5227 185.866 62.3977 183.844 58.375C181.844 54.3295 180.844 49.5909 180.844 44.1591C180.844 38.7955 181.844 34.0682 183.844 29.9773C185.866 25.8864 188.685 22.6932 192.298 20.3977C195.935 18.1023 200.185 16.9545 205.048 16.9545C208.003 16.9545 210.866 17.4432 213.639 18.4205C216.412 19.3977 218.901 20.9318 221.105 23.0227C223.31 25.1136 225.048 27.8295 226.321 31.1705C227.594 34.4886 228.23 38.5227 228.23 43.2727V46.8864H186.605V39.25H218.241C218.241 36.5682 217.696 34.1932 216.605 32.125C215.514 30.0341 213.98 28.3864 212.003 27.1818C210.048 25.9773 207.753 25.375 205.116 25.375C202.253 25.375 199.753 26.0795 197.616 27.4886C195.503 28.875 193.866 30.6932 192.707 32.9432C191.571 35.1705 191.003 37.5909 191.003 40.2045V46.1705C191.003 49.6705 191.616 52.6477 192.844 55.1023C194.094 57.5568 195.832 59.4318 198.06 60.7273C200.287 62 202.889 62.6364 205.866 62.6364C207.798 62.6364 209.56 62.3636 211.151 61.8182C212.741 61.25 214.116 60.4091 215.276 59.2955C216.435 58.1818 217.321 56.8068 217.935 55.1705L227.582 56.9091C226.81 59.75 225.423 62.2386 223.423 64.375C221.446 66.4886 218.957 68.1364 215.957 69.3182C212.98 70.4773 209.582 71.0568 205.764 71.0568ZM261.597 71.0568C256.528 71.0568 252.165 69.9091 248.506 67.6136C244.869 65.2955 242.074 62.1023 240.119 58.0341C238.165 53.9659 237.188 49.3068 237.188 44.0568C237.188 38.7386 238.188 34.0455 240.188 29.9773C242.188 25.8864 245.006 22.6932 248.642 20.3977C252.278 18.1023 256.563 16.9545 261.494 16.9545C265.472 16.9545 269.017 17.6932 272.131 19.1705C275.244 20.625 277.756 22.6705 279.665 25.3068C281.597 27.9432 282.744 31.0227 283.108 34.5455H273.188C272.642 32.0909 271.392 29.9773 269.438 28.2045C267.506 26.4318 264.915 25.5455 261.665 25.5455C258.824 25.5455 256.335 26.2955 254.199 27.7955C252.085 29.2727 250.438 31.3864 249.256 34.1364C248.074 36.8636 247.483 40.0909 247.483 43.8182C247.483 47.6364 248.063 50.9318 249.222 53.7045C250.381 56.4773 252.017 58.625 254.131 60.1477C256.267 61.6705 258.778 62.4318 261.665 62.4318C263.597 62.4318 265.347 62.0795 266.915 61.375C268.506 60.6477 269.835 59.6136 270.903 58.2727C271.994 56.9318 272.756 55.3182 273.188 53.4318H283.108C282.744 56.8182 281.642 59.8409 279.801 62.5C277.96 65.1591 275.494 67.25 272.403 68.7727C269.335 70.2955 265.733 71.0568 261.597 71.0568ZM290.045 26.4318V17.6364H334.227V26.4318H317.148V70H307.193V26.4318H290.045ZM354.997 55.7159L378.077 17.6364H389.054V70H379.065V31.8864L356.088 70H345.009V17.6364H354.997V55.7159ZM445.474 17.6364V61.6477H453.145V86.875H443.088V70H402.759V17.6364H412.747V61.2045H435.52V17.6364H445.474ZM474.435 55.7159L497.514 17.6364H508.491V70H498.503V31.8864L475.526 70H464.446V17.6364H474.435V55.7159ZM532.185 55.7159L555.264 17.6364H566.241V70H556.253V31.8864L533.276 70H522.196V17.6364H532.185V55.7159Z" fill="#006838"/>
<path d="M0.852273 186V133.636H22.5682C28.4773 133.636 33.1591 134.898 36.6136 137.42C40.0682 139.92 41.7955 143.318 41.7955 147.614C41.7955 150.682 40.8182 153.114 38.8636 154.909C36.9091 156.705 34.3182 157.909 31.0909 158.523C33.4318 158.795 35.5795 159.5 37.5341 160.636C39.4886 161.75 41.0568 163.25 42.2386 165.136C43.4432 167.023 44.0455 169.273 44.0455 171.886C44.0455 174.659 43.3295 177.114 41.8977 179.25C40.4659 181.364 38.3864 183.023 35.6591 184.227C32.9545 185.409 29.6932 186 25.875 186H0.852273ZM10.4318 177.477H25.875C28.3977 177.477 30.375 176.875 31.8068 175.67C33.2386 174.466 33.9545 172.83 33.9545 170.761C33.9545 168.33 33.2386 166.42 31.8068 165.034C30.375 163.625 28.3977 162.92 25.875 162.92H10.4318V177.477ZM10.4318 155.455H22.6705C24.5795 155.455 26.2159 155.182 27.5795 154.636C28.9659 154.091 30.0227 153.318 30.75 152.318C31.5 151.295 31.875 150.091 31.875 148.705C31.875 146.682 31.0455 145.102 29.3864 143.966C27.7273 142.83 25.4545 142.261 22.5682 142.261H10.4318V155.455ZM121.031 114.136L125.259 120.58C123.69 122.011 121.906 123.034 119.906 123.648C117.929 124.239 115.645 124.614 113.054 124.773C110.463 124.909 107.497 125.034 104.156 125.148C100.384 125.261 97.2813 126.08 94.8494 127.602C92.4176 129.102 90.5426 131.33 89.2244 134.284C87.929 137.216 87.0881 140.898 86.7017 145.33H87.3494C89.054 142.08 91.4176 139.648 94.4403 138.034C97.4858 136.42 100.906 135.614 104.702 135.614C108.929 135.614 112.69 136.58 115.986 138.511C119.281 140.443 121.872 143.273 123.759 147C125.668 150.705 126.622 155.239 126.622 160.602C126.622 166.034 125.622 170.727 123.622 174.682C121.645 178.636 118.849 181.693 115.236 183.852C111.645 185.989 107.406 187.057 102.52 187.057C97.6335 187.057 93.3722 185.955 89.7358 183.75C86.1222 181.523 83.3153 178.227 81.3153 173.864C79.3381 169.5 78.3494 164.114 78.3494 157.705V152.523C78.3494 140.545 80.4858 131.534 84.7585 125.489C89.0312 119.443 95.4176 116.341 103.918 116.182C106.668 116.114 109.122 116.102 111.281 116.148C113.44 116.17 115.327 116.068 116.94 115.841C118.577 115.591 119.94 115.023 121.031 114.136ZM102.554 178.5C105.395 178.5 107.838 177.784 109.884 176.352C111.952 174.898 113.543 172.841 114.656 170.182C115.77 167.523 116.327 164.386 116.327 160.773C116.327 157.227 115.77 154.216 114.656 151.739C113.543 149.261 111.952 147.375 109.884 146.08C107.815 144.761 105.338 144.102 102.452 144.102C100.315 144.102 98.4063 144.477 96.7244 145.227C95.0426 145.955 93.5994 147.034 92.3949 148.466C91.2131 149.898 90.2926 151.648 89.6335 153.716C88.9972 155.761 88.6562 158.114 88.6108 160.773C88.6108 166.182 89.8494 170.489 92.3267 173.693C94.8267 176.898 98.2358 178.5 102.554 178.5ZM147.997 171.716L171.077 133.636H182.054V186H172.065V147.886L149.088 186H138.009V133.636H147.997V171.716ZM192.656 172.159H203.088C203.224 174.295 204.19 175.943 205.986 177.102C207.804 178.261 210.156 178.841 213.043 178.841C215.974 178.841 218.474 178.216 220.543 176.966C222.611 175.693 223.645 173.727 223.645 171.068C223.645 169.477 223.247 168.091 222.452 166.909C221.679 165.705 220.577 164.773 219.145 164.114C217.736 163.455 216.065 163.125 214.134 163.125H205.611V155.114H214.134C217.02 155.114 219.179 154.455 220.611 153.136C222.043 151.818 222.759 150.17 222.759 148.193C222.759 146.057 221.986 144.341 220.44 143.045C218.918 141.727 216.793 141.068 214.065 141.068C211.293 141.068 208.986 141.693 207.145 142.943C205.304 144.17 204.338 145.761 204.247 147.716H193.952C194.02 144.784 194.906 142.216 196.611 140.011C198.338 137.784 200.656 136.057 203.565 134.83C206.497 133.58 209.827 132.955 213.554 132.955C217.44 132.955 220.804 133.58 223.645 134.83C226.486 136.08 228.679 137.807 230.224 140.011C231.793 142.216 232.577 144.75 232.577 147.614C232.577 150.5 231.713 152.864 229.986 154.705C228.281 156.523 226.054 157.83 223.304 158.625V159.17C225.327 159.307 227.122 159.92 228.69 161.011C230.259 162.102 231.486 163.545 232.372 165.341C233.259 167.136 233.702 169.17 233.702 171.443C233.702 174.648 232.815 177.42 231.043 179.761C229.293 182.102 226.861 183.909 223.747 185.182C220.656 186.432 217.122 187.057 213.145 187.057C209.281 187.057 205.815 186.455 202.747 185.25C199.702 184.023 197.281 182.295 195.486 180.068C193.713 177.841 192.77 175.205 192.656 172.159ZM279.716 155.42V164.25H251.352V155.42H279.716ZM254.216 133.636V186H244.227V133.636H254.216ZM286.841 133.636V186H276.886V133.636H286.841ZM323.045 187.057C317.886 187.057 313.443 185.955 309.716 183.75C306.011 181.523 303.148 178.398 301.125 174.375C299.125 170.33 298.125 165.591 298.125 160.159C298.125 154.795 299.125 150.068 301.125 145.977C303.148 141.886 305.966 138.693 309.58 136.398C313.216 134.102 317.466 132.955 322.33 132.955C325.284 132.955 328.148 133.443 330.92 134.42C333.693 135.398 336.182 136.932 338.386 139.023C340.591 141.114 342.33 143.83 343.602 147.17C344.875 150.489 345.511 154.523 345.511 159.273V162.886H303.886V155.25H335.523C335.523 152.568 334.977 150.193 333.886 148.125C332.795 146.034 331.261 144.386 329.284 143.182C327.33 141.977 325.034 141.375 322.398 141.375C319.534 141.375 317.034 142.08 314.898 143.489C312.784 144.875 311.148 146.693 309.989 148.943C308.852 151.17 308.284 153.591 308.284 156.205V162.17C308.284 165.67 308.898 168.648 310.125 171.102C311.375 173.557 313.114 175.432 315.341 176.727C317.568 178 320.17 178.636 323.148 178.636C325.08 178.636 326.841 178.364 328.432 177.818C330.023 177.25 331.398 176.409 332.557 175.295C333.716 174.182 334.602 172.807 335.216 171.17L344.864 172.909C344.091 175.75 342.705 178.239 340.705 180.375C338.727 182.489 336.239 184.136 333.239 185.318C330.261 186.477 326.864 187.057 323.045 187.057ZM378.878 187.057C373.81 187.057 369.446 185.909 365.787 183.614C362.151 181.295 359.355 178.102 357.401 174.034C355.446 169.966 354.469 165.307 354.469 160.057C354.469 154.739 355.469 150.045 357.469 145.977C359.469 141.886 362.287 138.693 365.923 136.398C369.56 134.102 373.844 132.955 378.776 132.955C382.753 132.955 386.298 133.693 389.412 135.17C392.526 136.625 395.037 138.67 396.946 141.307C398.878 143.943 400.026 147.023 400.389 150.545H390.469C389.923 148.091 388.673 145.977 386.719 144.205C384.787 142.432 382.196 141.545 378.946 141.545C376.105 141.545 373.616 142.295 371.48 143.795C369.366 145.273 367.719 147.386 366.537 150.136C365.355 152.864 364.764 156.091 364.764 159.818C364.764 163.636 365.344 166.932 366.503 169.705C367.662 172.477 369.298 174.625 371.412 176.148C373.548 177.67 376.06 178.432 378.946 178.432C380.878 178.432 382.628 178.08 384.196 177.375C385.787 176.648 387.116 175.614 388.185 174.273C389.276 172.932 390.037 171.318 390.469 169.432H400.389C400.026 172.818 398.923 175.841 397.082 178.5C395.241 181.159 392.776 183.25 389.685 184.773C386.616 186.295 383.014 187.057 378.878 187.057Z" fill="#373737"/>
</svg>
