<svg width="90" height="90" viewBox="0 0 90 90" fill="none" xmlns="http://www.w3.org/2000/svg">
<path d="M3.93402e-06 45C3.15595e-06 53.9002 2.63921 62.6004 7.58387 70.0007C12.5285 77.4009 19.5566 83.1686 27.7792 86.5746C36.0019 89.9805 45.0499 90.8717 53.7791 89.1353C62.5082 87.399 70.5264 83.1132 76.8198 76.8198C83.1132 70.5264 87.399 62.5082 89.1353 53.7791C90.8717 45.0499 89.9805 36.0019 86.5746 27.7792C83.1686 19.5566 77.4009 12.5285 70.0007 7.58387C62.6005 2.6392 53.9002 -3.26208e-06 45 -3.93402e-06L45 45L3.93402e-06 45Z" fill="#E8F2F1"/>
<path d="M30 45C30 47.9667 30.8797 50.8668 32.528 53.3336C34.1762 55.8003 36.5189 57.7229 39.2597 58.8582C42.0006 59.9935 45.0166 60.2906 47.9264 59.7118C50.8361 59.133 53.5088 57.7044 55.6066 55.6066C57.7044 53.5088 59.133 50.8361 59.7118 47.9264C60.2906 45.0166 59.9935 42.0006 58.8582 39.2598C57.7229 36.5189 55.8003 34.1762 53.3336 32.528C50.8668 30.8797 47.9667 30 45 30L45 45L30 45Z" fill="#006838"/>
<path d="M14.1634 31V29.2869L18.7081 24.8317C19.1428 24.3928 19.505 24.0028 19.7947 23.6619C20.0845 23.321 20.3018 22.9908 20.4467 22.6712C20.5916 22.3516 20.6641 22.0107 20.6641 21.6484C20.6641 21.2351 20.5703 20.8814 20.3828 20.5874C20.1953 20.2891 19.9375 20.0589 19.6094 19.897C19.2812 19.7351 18.9084 19.6541 18.4908 19.6541C18.0604 19.6541 17.6832 19.7436 17.3594 19.9226C17.0355 20.0973 16.7841 20.3466 16.6051 20.6705C16.4304 20.9943 16.343 21.38 16.343 21.8274H14.0866C14.0866 20.9964 14.2763 20.2741 14.6555 19.6605C15.0348 19.0469 15.5568 18.5717 16.2216 18.2351C16.8906 17.8984 17.6577 17.7301 18.5227 17.7301C19.4006 17.7301 20.1719 17.8942 20.8366 18.2223C21.5014 18.5504 22.017 19 22.3835 19.571C22.7543 20.142 22.9396 20.794 22.9396 21.527C22.9396 22.017 22.8459 22.4986 22.6584 22.9716C22.4709 23.4446 22.1406 23.9687 21.6676 24.544C21.1989 25.1193 20.5405 25.8161 19.6925 26.6342L17.4361 28.929V29.0185H23.1378V31H14.1634ZM24.8253 28.571V26.6854L30.38 17.9091H31.9524V20.5938H30.9936L27.2543 26.5192V26.6214H35.0078V28.571H24.8253ZM31.0703 31V27.9957L31.0959 27.152V17.9091H33.3331V31H31.0703Z" fill="#006838"/>
</svg>
