<svg width="90" height="90" viewBox="0 0 90 90" fill="none" xmlns="http://www.w3.org/2000/svg">
<circle cx="45" cy="45" r="45" fill="#E8F2F1"/>
<path d="M36.2109 60H53.7891C55.243 60 56.4258 58.8172 56.4258 57.3633V38.7891H50.2734C48.8195 38.7891 47.6367 37.6063 47.6367 36.1523V30H36.2109C34.757 30 33.5742 31.1828 33.5742 32.6367V57.3633C33.5742 58.8172 34.757 60 36.2109 60ZM39.7266 42.3633H50.2734C50.7592 42.3633 51.1523 42.7564 51.1523 43.2422C51.1523 43.728 50.7592 44.1211 50.2734 44.1211H39.7266C39.2408 44.1211 38.8477 43.728 38.8477 43.2422C38.8477 42.7564 39.2408 42.3633 39.7266 42.3633ZM39.7266 45.8789H50.2734C50.7592 45.8789 51.1523 46.272 51.1523 46.7578C51.1523 47.2436 50.7592 47.6367 50.2734 47.6367H39.7266C39.2408 47.6367 38.8477 47.2436 38.8477 46.7578C38.8477 46.272 39.2408 45.8789 39.7266 45.8789ZM39.7266 49.3945H50.2734C50.7592 49.3945 51.1523 49.7876 51.1523 50.2734C51.1523 50.7592 50.7592 51.1523 50.2734 51.1523H39.7266C39.2408 51.1523 38.8477 50.7592 38.8477 50.2734C38.8477 49.7876 39.2408 49.3945 39.7266 49.3945ZM39.7266 52.9102H46.7578C47.2436 52.9102 47.6367 53.3033 47.6367 53.7891C47.6367 54.2749 47.2436 54.668 46.7578 54.668H39.7266C39.2408 54.668 38.8477 54.2749 38.8477 53.7891C38.8477 53.3033 39.2408 52.9102 39.7266 52.9102Z" fill="#006838"/>
<path d="M50.2734 37.0312H55.9108L49.3945 30.515V36.1523C49.3945 36.6373 49.7885 37.0312 50.2734 37.0312Z" fill="#006838"/>
<circle cx="76" cy="14" r="9" fill="#006838"/>
</svg>
