<?xml version="1.0" standalone="no"?>
<!DOCTYPE svg PUBLIC "-//W3C//DTD SVG 20010904//EN"
 "http://www.w3.org/TR/2001/REC-SVG-20010904/DTD/svg10.dtd">
<svg version="1.0" xmlns="http://www.w3.org/2000/svg"
 width="700.000000pt" height="700.000000pt" viewBox="0 0 700.000000 700.000000"
 preserveAspectRatio="xMidYMid meet">
<metadata>
Created by potrace 1.14, written by Peter Selinger 2001-2017
</metadata>
<g transform="translate(0.000000,700.000000) scale(0.100000,-0.100000)"
fill="#000000" stroke="none">
<path d="M1402 3444 l3 -2436 665 0 c366 1 672 1 681 1 14 1 15 105 15 1032
-1 567 2 1033 5 1035 3 2 15 -14 26 -34 12 -20 30 -53 41 -72 10 -19 122 -215
247 -435 125 -220 239 -420 253 -445 14 -25 56 -98 94 -164 37 -65 68 -120 68
-122 0 -3 11 -21 23 -42 13 -20 35 -57 49 -82 14 -25 81 -142 148 -260 68
-118 136 -240 153 -270 17 -30 42 -75 56 -99 l26 -43 753 0 c414 0 755 1 757
4 2 2 -15 35 -39 73 -41 66 -311 521 -354 595 -11 19 -160 271 -332 560 -173
289 -318 534 -324 545 -7 11 -24 39 -39 62 -15 24 -27 45 -27 48 0 2 -15 28
-33 57 -19 29 -45 73 -59 98 -14 25 -70 119 -125 210 -54 91 -110 185 -124
210 l-26 45 238 395 c131 217 263 438 294 490 31 52 166 277 300 500 499 830
580 965 583 973 2 4 -338 7 -755 7 l-758 0 -124 -218 c-69 -119 -253 -440
-409 -712 -157 -272 -295 -513 -308 -535 -203 -361 -272 -473 -275 -447 -2 15
-4 451 -3 970 l0 942 -683 0 -683 0 2 -2436z m3528 2161 c0 -2 -18 -34 -40
-70 -22 -36 -40 -67 -40 -69 0 -2 -17 -33 -38 -67 -22 -35 -109 -183 -194
-329 -240 -410 -840 -1433 -851 -1452 -10 -15 -48 -17 -439 -16 -235 0 -428 2
-428 5 0 7 220 413 240 443 6 8 14 24 19 35 5 12 68 129 141 260 73 132 155
283 183 335 27 52 53 100 57 105 10 14 53 93 113 205 27 52 53 100 57 105 4 6
27 46 50 90 24 44 51 94 60 110 9 17 51 94 94 173 l78 142 469 0 c258 0 469
-2 469 -5z m-2400 -2177 c0 -2039 -1 -2148 -17 -2149 -22 -1 -787 -1 -824 0
l-27 1 0 2150 0 2151 434 -2 434 -2 0 -2149z m1272 -117 c202 -341 785 -1322
1022 -1719 102 -173 186 -316 186 -318 0 -2 -199 -4 -443 -4 l-443 0 -275 461
c-151 254 -285 480 -298 503 -13 23 -65 111 -116 196 -50 85 -165 279 -255
430 -90 151 -196 330 -236 397 -40 67 -71 123 -68 125 2 2 201 4 443 4 l439 0
44 -75z"/>
</g>
</svg>
