<svg width="712" height="227" viewBox="0 0 712 227" fill="none" xmlns="http://www.w3.org/2000/svg">
<g opacity="0.5">
<path opacity="0.5" d="M34.4224 170.3H0V12.8008L17.2032 0L34.4224 12.8008V170.3Z" fill="#006838"/>
<path opacity="0.5" d="M77.9033 170.3H44.3867V101.571L61.145 88.7735L77.9033 101.571V170.3Z" fill="#006838"/>
<path opacity="0.5" d="M34.4224 170.3H0V40.8151L17.2032 28.0814L34.4224 40.8151V170.3Z" fill="white"/>
<path opacity="0.5" d="M77.9033 170.3H44.3867V129.534L61.145 116.855L77.9033 129.534V170.3Z" fill="white"/>
<path d="M18.4169 200.83V183.749L20.2852 185.617H14.6805V182.147H22.7406V200.83H18.4169ZM33.9927 201.15C32.4625 201.15 31.0925 200.776 29.8826 200.029C28.6727 199.264 27.7208 198.161 27.0269 196.719C26.333 195.278 25.986 193.535 25.986 191.488C25.986 189.442 26.333 187.699 27.0269 186.257C27.7208 184.816 28.6727 183.722 29.8826 182.975C31.0925 182.209 32.4625 181.827 33.9927 181.827C35.5407 181.827 36.9107 182.209 38.1028 182.975C39.3127 183.722 40.2646 184.816 40.9585 186.257C41.6525 187.699 41.9994 189.442 41.9994 191.488C41.9994 193.535 41.6525 195.278 40.9585 196.719C40.2646 198.161 39.3127 199.264 38.1028 200.029C36.9107 200.776 35.5407 201.15 33.9927 201.15ZM33.9927 197.493C34.7222 197.493 35.3538 197.289 35.8876 196.88C36.4392 196.47 36.8662 195.821 37.1687 194.931C37.489 194.042 37.6491 192.894 37.6491 191.488C37.6491 190.083 37.489 188.935 37.1687 188.045C36.8662 187.156 36.4392 186.506 35.8876 186.097C35.3538 185.688 34.7222 185.483 33.9927 185.483C33.281 185.483 32.6494 185.688 32.0978 186.097C31.564 186.506 31.137 187.156 30.8167 188.045C30.5142 188.935 30.363 190.083 30.363 191.488C30.363 192.894 30.5142 194.042 30.8167 194.931C31.137 195.821 31.564 196.47 32.0978 196.88C32.6494 197.289 33.281 197.493 33.9927 197.493Z" fill="#006838"/>
<path opacity="0.5" d="M153.995 170.3H120.478V62.6166L137.237 49.8219L153.995 62.6166V170.3Z" fill="#006838"/>
<path opacity="0.5" d="M197.476 170.3H163.959V22.7184L180.717 9.96439L197.476 22.7184V170.3Z" fill="#006838"/>
<path opacity="0.5" d="M153.995 170.3H120.478V90.6353L137.237 77.9033L153.995 90.6353V170.3Z" fill="white"/>
<path opacity="0.5" d="M197.476 170.3H163.959V49.9193L180.717 37.14L197.476 49.9193V170.3Z" fill="white"/>
<path d="M140.707 200.83V183.749L142.575 185.617H136.971V182.147H145.031V200.83H140.707ZM151.265 200.83L158.792 183.802L159.912 185.67H149.851L151.772 183.642V188.713H147.929V182.147H162.902V184.95L155.962 200.83H151.265Z" fill="#006838"/>
<path d="M173.376 193.453L180.786 182.602H182.631L175.221 193.453H173.376ZM174.322 188.461C173.795 188.461 173.33 188.343 172.927 188.105C172.524 187.857 172.203 187.511 171.966 187.066C171.738 186.612 171.625 186.079 171.625 185.47C171.625 184.86 171.738 184.333 171.966 183.889C172.203 183.444 172.524 183.098 172.927 182.85C173.33 182.602 173.795 182.478 174.322 182.478C174.849 182.478 175.314 182.602 175.717 182.85C176.12 183.098 176.435 183.444 176.663 183.889C176.89 184.333 177.004 184.86 177.004 185.47C177.004 186.079 176.89 186.612 176.663 187.066C176.435 187.511 176.12 187.857 175.717 188.105C175.314 188.343 174.849 188.461 174.322 188.461ZM174.322 187.19C174.663 187.19 174.937 187.051 175.143 186.772C175.35 186.482 175.453 186.048 175.453 185.47C175.453 184.891 175.35 184.462 175.143 184.183C174.937 183.894 174.663 183.749 174.322 183.749C173.991 183.749 173.717 183.894 173.5 184.183C173.294 184.462 173.19 184.891 173.19 185.47C173.19 186.038 173.294 186.467 173.5 186.756C173.717 187.046 173.991 187.19 174.322 187.19ZM181.685 193.577C181.168 193.577 180.703 193.458 180.29 193.22C179.887 192.972 179.572 192.626 179.344 192.182C179.117 191.727 179.003 191.195 179.003 190.585C179.003 189.975 179.117 189.448 179.344 189.004C179.572 188.56 179.887 188.213 180.29 187.965C180.703 187.717 181.168 187.593 181.685 187.593C182.222 187.593 182.693 187.717 183.096 187.965C183.499 188.213 183.814 188.56 184.041 189.004C184.269 189.448 184.382 189.975 184.382 190.585C184.382 191.195 184.269 191.727 184.041 192.182C183.814 192.626 183.499 192.972 183.096 193.22C182.693 193.458 182.222 193.577 181.685 193.577ZM181.685 192.306C182.026 192.306 182.3 192.166 182.507 191.887C182.713 191.598 182.817 191.164 182.817 190.585C182.817 190.017 182.713 189.588 182.507 189.299C182.3 189.009 182.026 188.865 181.685 188.865C181.354 188.865 181.08 189.009 180.863 189.299C180.657 189.578 180.553 190.006 180.553 190.585C180.553 191.164 180.657 191.598 180.863 191.887C181.08 192.166 181.354 192.306 181.685 192.306Z" fill="#006838"/>
<path opacity="0.5" d="M274.473 170.3H240.957V47.217L257.715 34.4224L274.473 47.217V170.3Z" fill="#006838"/>
<path opacity="0.5" d="M317.954 170.3H284.438V101.571L301.196 88.7735L317.954 101.571V170.3Z" fill="#006838"/>
<path opacity="0.5" d="M274.473 170.3H240.957V75.2134L257.715 62.5038L274.473 75.2134V170.3Z" fill="white"/>
<path opacity="0.5" d="M317.954 170.3H284.438V129.534L301.196 116.855L317.954 129.534V170.3Z" fill="white"/>
<path d="M254.519 200.83V198.027L261.725 191.221C262.295 190.705 262.713 190.243 262.98 189.834C263.247 189.424 263.425 189.051 263.514 188.713C263.62 188.375 263.674 188.063 263.674 187.779C263.674 187.031 263.416 186.462 262.9 186.07C262.402 185.661 261.663 185.457 260.685 185.457C259.902 185.457 259.172 185.608 258.496 185.91C257.838 186.213 257.277 186.684 256.815 187.325L253.665 185.297C254.377 184.229 255.373 183.384 256.655 182.761C257.936 182.138 259.412 181.827 261.085 181.827C262.473 181.827 263.683 182.058 264.715 182.521C265.764 182.966 266.574 183.597 267.143 184.416C267.73 185.234 268.024 186.213 268.024 187.352C268.024 187.957 267.944 188.561 267.784 189.166C267.642 189.754 267.339 190.376 266.876 191.035C266.432 191.693 265.773 192.431 264.901 193.25L258.923 198.881L258.096 197.307H268.638V200.83H254.519ZM278.162 201.15C276.596 201.15 275.226 200.918 274.052 200.456C272.877 199.975 271.961 199.308 271.303 198.454C270.644 197.582 270.315 196.568 270.315 195.412C270.315 194.255 270.635 193.277 271.276 192.476C271.934 191.657 272.851 191.044 274.025 190.634C275.199 190.207 276.578 189.994 278.162 189.994C279.763 189.994 281.151 190.207 282.325 190.634C283.517 191.044 284.434 191.657 285.074 192.476C285.733 193.277 286.062 194.255 286.062 195.412C286.062 196.568 285.733 197.582 285.074 198.454C284.416 199.308 283.491 199.975 282.299 200.456C281.124 200.918 279.745 201.15 278.162 201.15ZM278.162 197.974C279.247 197.974 280.101 197.734 280.724 197.253C281.364 196.773 281.685 196.114 281.685 195.278C281.685 194.442 281.364 193.793 280.724 193.33C280.101 192.85 279.247 192.609 278.162 192.609C277.094 192.609 276.249 192.85 275.626 193.33C275.004 193.793 274.692 194.442 274.692 195.278C274.692 196.114 275.004 196.773 275.626 197.253C276.249 197.734 277.094 197.974 278.162 197.974ZM278.162 192.182C276.721 192.182 275.457 191.987 274.372 191.595C273.304 191.204 272.468 190.634 271.863 189.887C271.276 189.122 270.982 188.215 270.982 187.165C270.982 186.062 271.285 185.119 271.89 184.336C272.495 183.535 273.34 182.921 274.425 182.494C275.511 182.049 276.756 181.827 278.162 181.827C279.603 181.827 280.857 182.049 281.925 182.494C283.01 182.921 283.855 183.535 284.46 184.336C285.083 185.119 285.394 186.062 285.394 187.165C285.394 188.215 285.092 189.122 284.487 189.887C283.9 190.634 283.064 191.204 281.978 191.595C280.893 191.987 279.621 192.182 278.162 192.182ZM278.162 189.647C279.069 189.647 279.781 189.442 280.297 189.033C280.831 188.624 281.098 188.063 281.098 187.352C281.098 186.604 280.822 186.026 280.27 185.617C279.736 185.208 279.034 185.003 278.162 185.003C277.308 185.003 276.614 185.208 276.08 185.617C275.546 186.026 275.279 186.604 275.279 187.352C275.279 188.063 275.537 188.624 276.053 189.033C276.569 189.442 277.272 189.647 278.162 189.647Z" fill="#006838"/>
<path d="M298.384 193.453L305.794 182.602H307.638L300.229 193.453H298.384ZM299.33 188.461C298.802 188.461 298.337 188.343 297.934 188.105C297.531 187.857 297.211 187.511 296.973 187.066C296.746 186.612 296.632 186.079 296.632 185.47C296.632 184.86 296.746 184.333 296.973 183.889C297.211 183.444 297.531 183.098 297.934 182.85C298.337 182.602 298.802 182.478 299.33 182.478C299.857 182.478 300.322 182.602 300.725 182.85C301.128 183.098 301.443 183.444 301.67 183.889C301.898 184.333 302.011 184.86 302.011 185.47C302.011 186.079 301.898 186.612 301.67 187.066C301.443 187.511 301.128 187.857 300.725 188.105C300.322 188.343 299.857 188.461 299.33 188.461ZM299.33 187.19C299.671 187.19 299.944 187.051 300.151 186.772C300.358 186.482 300.461 186.048 300.461 185.47C300.461 184.891 300.358 184.462 300.151 184.183C299.944 183.894 299.671 183.749 299.33 183.749C298.999 183.749 298.725 183.894 298.508 184.183C298.301 184.462 298.198 184.891 298.198 185.47C298.198 186.038 298.301 186.467 298.508 186.756C298.725 187.046 298.999 187.19 299.33 187.19ZM306.693 193.577C306.176 193.577 305.711 193.458 305.298 193.22C304.895 192.972 304.579 192.626 304.352 192.182C304.125 191.727 304.011 191.195 304.011 190.585C304.011 189.975 304.125 189.448 304.352 189.004C304.579 188.56 304.895 188.213 305.298 187.965C305.711 187.717 306.176 187.593 306.693 187.593C307.23 187.593 307.7 187.717 308.103 187.965C308.506 188.213 308.822 188.56 309.049 189.004C309.276 189.448 309.39 189.975 309.39 190.585C309.39 191.195 309.276 191.727 309.049 192.182C308.822 192.626 308.506 192.972 308.103 193.22C307.7 193.458 307.23 193.577 306.693 193.577ZM306.693 192.306C307.034 192.306 307.308 192.166 307.514 191.887C307.721 191.598 307.824 191.164 307.824 190.585C307.824 190.017 307.721 189.588 307.514 189.299C307.308 189.009 307.034 188.865 306.693 188.865C306.362 188.865 306.088 189.009 305.871 189.299C305.664 189.578 305.561 190.006 305.561 190.585C305.561 191.164 305.664 191.598 305.871 191.887C306.088 192.166 306.362 192.306 306.693 192.306Z" fill="#006838"/>
<path opacity="0.5" d="M428.468 170.3H394.046V12.8008L411.249 0L428.468 12.8008V170.3Z" fill="#006838"/>
<path opacity="0.5" d="M471.949 170.3H438.433V101.571L455.191 88.7735L471.949 101.571V170.3Z" fill="#006838"/>
<path opacity="0.5" d="M428.468 170.3H394.046V40.8151L411.249 28.0814L428.468 40.8151V170.3Z" fill="white"/>
<path opacity="0.5" d="M471.949 170.3H438.433V129.534L455.191 116.855L471.949 129.534V170.3Z" fill="white"/>
<path d="M409.367 196.906V193.997L418.174 182.147H422.711L414.091 193.997L411.982 193.383H426.688V196.906H409.367ZM419.429 200.83V196.906L419.562 193.383V189.887H423.645V200.83H419.429ZM434.333 201.15C433.034 201.15 431.744 200.981 430.463 200.643C429.2 200.287 428.115 199.789 427.207 199.148L428.915 195.839C429.627 196.355 430.445 196.764 431.371 197.066C432.314 197.369 433.266 197.52 434.226 197.52C435.312 197.52 436.166 197.307 436.789 196.88C437.411 196.453 437.723 195.856 437.723 195.091C437.723 194.611 437.598 194.184 437.349 193.81C437.1 193.437 436.655 193.152 436.015 192.956C435.392 192.761 434.511 192.663 433.372 192.663H428.595L429.556 182.147H440.952V185.617H431.104L433.346 183.642L432.678 191.141L430.437 189.166H434.387C436.237 189.166 437.723 189.424 438.844 189.94C439.982 190.439 440.81 191.124 441.326 191.995C441.842 192.867 442.1 193.855 442.1 194.958C442.1 196.061 441.824 197.084 441.272 198.027C440.721 198.952 439.867 199.709 438.71 200.296C437.571 200.865 436.112 201.15 434.333 201.15Z" fill="#006838"/>
<path d="M447.85 193.453L455.259 182.602H457.104L449.694 193.453H447.85ZM448.795 188.461C448.268 188.461 447.803 188.343 447.4 188.105C446.997 187.857 446.677 187.511 446.439 187.066C446.212 186.612 446.098 186.079 446.098 185.47C446.098 184.86 446.212 184.333 446.439 183.889C446.677 183.444 446.997 183.098 447.4 182.85C447.803 182.602 448.268 182.478 448.795 182.478C449.322 182.478 449.787 182.602 450.19 182.85C450.593 183.098 450.909 183.444 451.136 183.889C451.363 184.333 451.477 184.86 451.477 185.47C451.477 186.079 451.363 186.612 451.136 187.066C450.909 187.511 450.593 187.857 450.19 188.105C449.787 188.343 449.322 188.461 448.795 188.461ZM448.795 187.19C449.136 187.19 449.41 187.051 449.617 186.772C449.823 186.482 449.927 186.048 449.927 185.47C449.927 184.891 449.823 184.462 449.617 184.183C449.41 183.894 449.136 183.749 448.795 183.749C448.465 183.749 448.191 183.894 447.974 184.183C447.767 184.462 447.664 184.891 447.664 185.47C447.664 186.038 447.767 186.467 447.974 186.756C448.191 187.046 448.465 187.19 448.795 187.19ZM456.158 193.577C455.642 193.577 455.177 193.458 454.763 193.22C454.36 192.972 454.045 192.626 453.818 192.182C453.59 191.727 453.477 191.195 453.477 190.585C453.477 189.975 453.59 189.448 453.818 189.004C454.045 188.56 454.36 188.213 454.763 187.965C455.177 187.717 455.642 187.593 456.158 187.593C456.696 187.593 457.166 187.717 457.569 187.965C457.972 188.213 458.287 188.56 458.515 189.004C458.742 189.448 458.856 189.975 458.856 190.585C458.856 191.195 458.742 191.727 458.515 192.182C458.287 192.626 457.972 192.972 457.569 193.22C457.166 193.458 456.696 193.577 456.158 193.577ZM456.158 192.306C456.499 192.306 456.773 192.166 456.98 191.887C457.187 191.598 457.29 191.164 457.29 190.585C457.29 190.017 457.187 189.588 456.98 189.299C456.773 189.009 456.499 188.865 456.158 188.865C455.828 188.865 455.554 189.009 455.337 189.299C455.13 189.578 455.027 190.006 455.027 190.585C455.027 191.164 455.13 191.598 455.337 191.887C455.554 192.166 455.828 192.306 456.158 192.306Z" fill="#006838"/>
<path opacity="0.5" d="M548.041 170.3H514.524V62.6166L531.282 49.8219L548.041 62.6166V170.3Z" fill="#006838"/>
<path opacity="0.5" d="M591.522 170.3H558.005V22.7184L574.763 9.96439L591.522 22.7184V170.3Z" fill="#006838"/>
<path opacity="0.5" d="M548.041 170.3H514.524V90.6353L531.282 77.9033L548.041 90.6353V170.3Z" fill="white"/>
<path opacity="0.5" d="M591.522 170.3H558.005V49.9193L574.763 37.14L591.522 49.9193V170.3Z" fill="white"/>
<path d="M534.86 200.83L542.386 183.802L543.507 185.67H533.445L535.367 183.642V188.713H531.523V182.147H546.496V184.95L539.557 200.83H534.86ZM551.564 200.83V183.749L553.432 185.617H547.827V182.147H555.887V200.83H551.564Z" fill="#006838"/>
<path d="M567.422 193.453L574.832 182.602H576.676L569.267 193.453H567.422ZM568.368 188.461C567.841 188.461 567.376 188.343 566.973 188.105C566.57 187.857 566.249 187.511 566.011 187.066C565.784 186.612 565.67 186.079 565.67 185.47C565.67 184.86 565.784 184.333 566.011 183.889C566.249 183.444 566.57 183.098 566.973 182.85C567.376 182.602 567.841 182.478 568.368 182.478C568.895 182.478 569.36 182.602 569.763 182.85C570.166 183.098 570.481 183.444 570.708 183.889C570.936 184.333 571.049 184.86 571.049 185.47C571.049 186.079 570.936 186.612 570.708 187.066C570.481 187.511 570.166 187.857 569.763 188.105C569.36 188.343 568.895 188.461 568.368 188.461ZM568.368 187.19C568.709 187.19 568.983 187.051 569.189 186.772C569.396 186.482 569.499 186.048 569.499 185.47C569.499 184.891 569.396 184.462 569.189 184.183C568.983 183.894 568.709 183.749 568.368 183.749C568.037 183.749 567.763 183.894 567.546 184.183C567.339 184.462 567.236 184.891 567.236 185.47C567.236 186.038 567.339 186.467 567.546 186.756C567.763 187.046 568.037 187.19 568.368 187.19ZM575.731 193.577C575.214 193.577 574.749 193.458 574.336 193.22C573.933 192.972 573.617 192.626 573.39 192.182C573.163 191.727 573.049 191.195 573.049 190.585C573.049 189.975 573.163 189.448 573.39 189.004C573.617 188.56 573.933 188.213 574.336 187.965C574.749 187.717 575.214 187.593 575.731 187.593C576.268 187.593 576.738 187.717 577.141 187.965C577.545 188.213 577.86 188.56 578.087 189.004C578.314 189.448 578.428 189.975 578.428 190.585C578.428 191.195 578.314 191.727 578.087 192.182C577.86 192.626 577.545 192.972 577.141 193.22C576.738 193.458 576.268 193.577 575.731 193.577ZM575.731 192.306C576.072 192.306 576.346 192.166 576.552 191.887C576.759 191.598 576.862 191.164 576.862 190.585C576.862 190.017 576.759 189.588 576.552 189.299C576.346 189.009 576.072 188.865 575.731 188.865C575.4 188.865 575.126 189.009 574.909 189.299C574.703 189.578 574.599 190.006 574.599 190.585C574.599 191.164 574.703 191.598 574.909 191.887C575.126 192.166 575.4 192.306 575.731 192.306Z" fill="#006838"/>
<path opacity="0.5" d="M668.519 170.3H635.003V47.217L651.761 34.4224L668.519 47.217V170.3Z" fill="#006838"/>
<path opacity="0.5" d="M712 170.3H678.483V101.571L695.242 88.7735L712 101.571V170.3Z" fill="#006838"/>
<path opacity="0.5" d="M668.519 170.3H635.003V75.2134L651.761 62.5038L668.519 75.2134V170.3Z" fill="white"/>
<path opacity="0.5" d="M712 170.3H678.483V129.534L695.242 116.855L712 129.534V170.3Z" fill="white"/>
<path d="M655.291 181.827C657.017 181.827 658.502 182.183 659.748 182.894C660.993 183.606 661.954 184.647 662.63 186.017C663.306 187.369 663.644 189.06 663.644 191.088C663.644 193.241 663.235 195.065 662.417 196.559C661.616 198.054 660.504 199.193 659.081 199.975C657.657 200.758 656.003 201.15 654.117 201.15C653.138 201.15 652.195 201.043 651.287 200.83C650.38 200.616 649.597 200.296 648.939 199.869L650.54 196.693C651.056 197.049 651.608 197.298 652.195 197.44C652.782 197.565 653.396 197.627 654.036 197.627C655.638 197.627 656.91 197.138 657.853 196.159C658.814 195.18 659.294 193.73 659.294 191.809C659.294 191.488 659.285 191.133 659.267 190.741C659.25 190.35 659.205 189.958 659.134 189.567L660.308 190.688C660.006 191.382 659.579 191.969 659.027 192.449C658.476 192.912 657.835 193.268 657.106 193.517C656.376 193.748 655.558 193.864 654.65 193.864C653.458 193.864 652.373 193.623 651.394 193.143C650.433 192.663 649.659 191.987 649.072 191.115C648.503 190.243 648.218 189.22 648.218 188.045C648.218 186.764 648.53 185.661 649.152 184.736C649.793 183.811 650.647 183.099 651.714 182.601C652.8 182.085 653.992 181.827 655.291 181.827ZM655.558 185.056C654.935 185.056 654.392 185.172 653.93 185.403C653.467 185.617 653.102 185.937 652.835 186.364C652.569 186.773 652.435 187.263 652.435 187.832C652.435 188.686 652.72 189.371 653.289 189.887C653.876 190.385 654.65 190.634 655.611 190.634C656.234 190.634 656.785 190.519 657.266 190.287C657.764 190.038 658.147 189.7 658.413 189.273C658.68 188.846 658.814 188.366 658.814 187.832C658.814 187.298 658.68 186.827 658.413 186.417C658.164 185.99 657.8 185.661 657.319 185.43C656.839 185.181 656.252 185.056 655.558 185.056ZM672.284 181.827C674.01 181.827 675.496 182.183 676.741 182.894C677.987 183.606 678.948 184.647 679.624 186.017C680.3 187.369 680.638 189.06 680.638 191.088C680.638 193.241 680.229 195.065 679.41 196.559C678.61 198.054 677.497 199.193 676.074 199.975C674.651 200.758 672.996 201.15 671.11 201.15C670.131 201.15 669.188 201.043 668.281 200.83C667.373 200.616 666.591 200.296 665.932 199.869L667.534 196.693C668.05 197.049 668.601 197.298 669.188 197.44C669.775 197.565 670.389 197.627 671.03 197.627C672.631 197.627 673.903 197.138 674.846 196.159C675.807 195.18 676.288 193.73 676.288 191.809C676.288 191.488 676.279 191.133 676.261 190.741C676.243 190.35 676.199 189.958 676.127 189.567L677.302 190.688C676.999 191.382 676.572 191.969 676.021 192.449C675.469 192.912 674.829 193.268 674.099 193.517C673.37 193.748 672.551 193.864 671.644 193.864C670.452 193.864 669.366 193.623 668.388 193.143C667.427 192.663 666.653 191.987 666.066 191.115C665.496 190.243 665.212 189.22 665.212 188.045C665.212 186.764 665.523 185.661 666.146 184.736C666.786 183.811 667.64 183.099 668.708 182.601C669.793 182.085 670.985 181.827 672.284 181.827ZM672.551 185.056C671.928 185.056 671.386 185.172 670.923 185.403C670.46 185.617 670.096 185.937 669.829 186.364C669.562 186.773 669.429 187.263 669.429 187.832C669.429 188.686 669.713 189.371 670.283 189.887C670.87 190.385 671.644 190.634 672.605 190.634C673.227 190.634 673.779 190.519 674.259 190.287C674.757 190.038 675.14 189.7 675.407 189.273C675.674 188.846 675.807 188.366 675.807 187.832C675.807 187.298 675.674 186.827 675.407 186.417C675.158 185.99 674.793 185.661 674.313 185.43C673.832 185.181 673.245 185.056 672.551 185.056Z" fill="#006838"/>
<path d="M692.43 193.453L699.839 182.602H701.684L694.274 193.453H692.43ZM693.375 188.461C692.848 188.461 692.383 188.343 691.98 188.105C691.577 187.857 691.257 187.511 691.019 187.066C690.792 186.612 690.678 186.079 690.678 185.47C690.678 184.86 690.792 184.333 691.019 183.889C691.257 183.444 691.577 183.098 691.98 182.85C692.383 182.602 692.848 182.478 693.375 182.478C693.902 182.478 694.367 182.602 694.77 182.85C695.173 183.098 695.489 183.444 695.716 183.889C695.943 184.333 696.057 184.86 696.057 185.47C696.057 186.079 695.943 186.612 695.716 187.066C695.489 187.511 695.173 187.857 694.77 188.105C694.367 188.343 693.902 188.461 693.375 188.461ZM693.375 187.19C693.716 187.19 693.99 187.051 694.197 186.772C694.404 186.482 694.507 186.048 694.507 185.47C694.507 184.891 694.404 184.462 694.197 184.183C693.99 183.894 693.716 183.749 693.375 183.749C693.045 183.749 692.771 183.894 692.554 184.183C692.347 184.462 692.244 184.891 692.244 185.47C692.244 186.038 692.347 186.467 692.554 186.756C692.771 187.046 693.045 187.19 693.375 187.19ZM700.738 193.577C700.222 193.577 699.757 193.458 699.343 193.22C698.94 192.972 698.625 192.626 698.398 192.182C698.17 191.727 698.057 191.195 698.057 190.585C698.057 189.975 698.17 189.448 698.398 189.004C698.625 188.56 698.94 188.213 699.343 187.965C699.757 187.717 700.222 187.593 700.738 187.593C701.276 187.593 701.746 187.717 702.149 187.965C702.552 188.213 702.867 188.56 703.095 189.004C703.322 189.448 703.436 189.975 703.436 190.585C703.436 191.195 703.322 191.727 703.095 192.182C702.867 192.626 702.552 192.972 702.149 193.22C701.746 193.458 701.276 193.577 700.738 193.577ZM700.738 192.306C701.08 192.306 701.353 192.166 701.56 191.887C701.767 191.598 701.87 191.164 701.87 190.585C701.87 190.017 701.767 189.588 701.56 189.299C701.353 189.009 701.08 188.865 700.738 188.865C700.408 188.865 700.134 189.009 699.917 189.299C699.71 189.578 699.607 190.006 699.607 190.585C699.607 191.164 699.71 191.598 699.917 191.887C700.134 192.166 700.408 192.306 700.738 192.306Z" fill="#006838"/>
<path d="M46.5569 191.641L53.9666 180.79H55.8113L48.4016 191.641H46.5569ZM47.5025 186.65C46.9755 186.65 46.5104 186.531 46.1074 186.293C45.7043 186.045 45.384 185.699 45.1463 185.255C44.9189 184.8 44.8053 184.268 44.8053 183.658C44.8053 183.048 44.9189 182.521 45.1463 182.077C45.384 181.632 45.7043 181.286 46.1074 181.038C46.5104 180.79 46.9755 180.666 47.5025 180.666C48.0296 180.666 48.4946 180.79 48.8976 181.038C49.3007 181.286 49.6159 181.632 49.8432 182.077C50.0706 182.521 50.1842 183.048 50.1842 183.658C50.1842 184.268 50.0706 184.8 49.8432 185.255C49.6159 185.699 49.3007 186.045 48.8976 186.293C48.4946 186.531 48.0296 186.65 47.5025 186.65ZM47.5025 185.379C47.8435 185.379 48.1174 185.239 48.3241 184.96C48.5308 184.671 48.6341 184.237 48.6341 183.658C48.6341 183.079 48.5308 182.65 48.3241 182.371C48.1174 182.082 47.8435 181.937 47.5025 181.937C47.1718 181.937 46.8979 182.082 46.6809 182.371C46.4742 182.65 46.3709 183.079 46.3709 183.658C46.3709 184.226 46.4742 184.655 46.6809 184.945C46.8979 185.234 47.1718 185.379 47.5025 185.379ZM54.8657 191.765C54.349 191.765 53.8839 191.646 53.4705 191.409C53.0675 191.161 52.7523 190.814 52.525 190.37C52.2976 189.915 52.1839 189.383 52.1839 188.773C52.1839 188.164 52.2976 187.637 52.525 187.192C52.7523 186.748 53.0675 186.402 53.4705 186.154C53.8839 185.906 54.349 185.782 54.8657 185.782C55.4031 185.782 55.8733 185.906 56.2763 186.154C56.6793 186.402 56.9945 186.748 57.2219 187.192C57.4492 187.637 57.5629 188.164 57.5629 188.773C57.5629 189.383 57.4492 189.915 57.2219 190.37C56.9945 190.814 56.6793 191.161 56.2763 191.409C55.8733 191.646 55.4031 191.765 54.8657 191.765ZM54.8657 190.494C55.2067 190.494 55.4806 190.355 55.6872 190.076C55.8939 189.786 55.9973 189.352 55.9973 188.773C55.9973 188.205 55.8939 187.776 55.6872 187.487C55.4806 187.197 55.2067 187.053 54.8657 187.053C54.535 187.053 54.2611 187.197 54.0441 187.487C53.8374 187.766 53.7341 188.195 53.7341 188.773C53.7341 189.352 53.8374 189.786 54.0441 190.076C54.2611 190.355 54.535 190.494 54.8657 190.494Z" fill="#006838"/>
</g>
</svg>
