<svg width="767" height="94" viewBox="0 0 767 94" fill="none" xmlns="http://www.w3.org/2000/svg">
<path d="M115.509 94C107.162 94 99.9899 92.0525 93.9911 88.1575C88.0793 84.1759 83.9497 78.7228 81.6023 71.7983L89.4268 67.2541C91.0787 72.8803 94.1215 77.2947 98.5554 80.4972C102.989 83.6133 108.684 85.1713 115.639 85.1713C122.42 85.1713 127.68 83.6998 131.418 80.7569C135.244 77.7274 137.156 73.7458 137.156 68.8121C137.156 64.0516 135.418 60.4595 131.94 58.0359C128.462 55.6123 122.725 53.1022 114.726 50.5055C105.25 47.3895 98.9901 44.8794 95.9473 42.9751C88.9921 38.8204 85.5146 32.8048 85.5146 24.9282C85.5146 17.2247 88.2097 11.1657 93.5999 6.75138C98.9901 2.25046 105.641 0 113.552 0C120.681 0 126.854 1.86096 132.07 5.58287C137.287 9.21823 141.156 13.8923 143.677 19.605L135.983 23.8895C131.81 13.849 124.333 8.82872 113.552 8.82872C107.901 8.82872 103.337 10.2136 99.8595 12.9834C96.382 15.7532 94.6432 19.605 94.6432 24.5387C94.6432 29.0396 96.2081 32.4153 99.3379 34.6657C102.468 36.9162 107.641 39.2099 114.857 41.547C118.16 42.6722 120.508 43.4945 121.899 44.0138C123.377 44.4466 125.463 45.2256 128.158 46.3508C130.94 47.3895 132.983 48.3416 134.287 49.2072C135.592 49.9862 137.156 51.1114 138.982 52.5829C140.895 53.9678 142.242 55.3959 143.025 56.8674C143.894 58.2523 144.633 59.9834 145.242 62.0608C145.937 64.0516 146.285 66.2155 146.285 68.5525C146.285 76.256 143.46 82.4447 137.808 87.1188C132.157 91.7063 124.724 94 115.509 94Z" fill="#373737"/>
<path d="M236.826 80.3674C227.698 89.4558 216.526 94 203.311 94C190.097 94 178.925 89.4558 169.796 80.3674C160.668 71.1924 156.103 60.07 156.103 47C156.103 33.93 160.668 22.8508 169.796 13.7624C178.925 4.58748 190.097 0 203.311 0C216.526 0 227.698 4.58748 236.826 13.7624C245.955 22.8508 250.519 33.93 250.519 47C250.519 60.07 245.955 71.1924 236.826 80.3674ZM176.186 74.1354C183.489 81.4926 192.531 85.1713 203.311 85.1713C214.092 85.1713 223.133 81.4926 230.436 74.1354C237.739 66.6915 241.391 57.6464 241.391 47C241.391 36.3536 237.739 27.3517 230.436 19.9945C223.133 12.5506 214.092 8.82872 203.311 8.82872C192.531 8.82872 183.489 12.5506 176.186 19.9945C168.883 27.3517 165.232 36.3536 165.232 47C165.232 57.6464 168.883 66.6915 176.186 74.1354Z" fill="#373737"/>
<path d="M275.259 83.8729H316.99V92.442H266.131V1.55801H275.259V83.8729Z" fill="#373737"/>
<path d="M385.907 85.1713C379.647 91.0571 371.475 94 361.39 94C351.305 94 343.133 91.0571 336.873 85.1713C330.614 79.2855 327.484 71.4088 327.484 61.5414V1.55801H336.613V61.5414C336.613 68.8121 338.786 74.5681 343.133 78.8094C347.48 83.0506 353.566 85.1713 361.39 85.1713C369.215 85.1713 375.3 83.0506 379.647 78.8094C383.994 74.5681 386.168 68.8121 386.168 61.5414V1.55801H395.296V61.5414C395.296 71.4088 392.167 79.2855 385.907 85.1713Z" fill="#373737"/>
<path d="M472.258 1.55801V10.1271H444.22V92.442H435.091V10.1271H407.054V1.55801H472.258Z" fill="#373737"/>
<path d="M485.304 1.55801H494.433V92.442H485.304V1.55801Z" fill="#373737"/>
<path d="M590.866 80.3674C581.737 89.4558 570.565 94 557.351 94C544.136 94 532.964 89.4558 523.836 80.3674C514.707 71.1924 510.143 60.07 510.143 47C510.143 33.93 514.707 22.8508 523.836 13.7624C532.964 4.58748 544.136 0 557.351 0C570.565 0 581.737 4.58748 590.866 13.7624C599.994 22.8508 604.559 33.93 604.559 47C604.559 60.07 599.994 71.1924 590.866 80.3674ZM530.226 74.1354C537.529 81.4926 546.57 85.1713 557.351 85.1713C568.131 85.1713 577.173 81.4926 584.476 74.1354C591.779 66.6915 595.43 57.6464 595.43 47C595.43 36.3536 591.779 27.3517 584.476 19.9945C577.173 12.5506 568.131 8.82872 557.351 8.82872C546.57 8.82872 537.529 12.5506 530.226 19.9945C522.923 27.3517 519.271 36.3536 519.271 47C519.271 57.6464 522.923 66.6915 530.226 74.1354Z" fill="#373737"/>
<path d="M678.854 1.55801H687.983V92.442H680.158L629.299 18.4365V92.442H620.17V1.55801H627.995L678.854 75.5635V1.55801Z" fill="#373737"/>
<path d="M736.224 94C727.877 94 720.705 92.0525 714.706 88.1575C708.794 84.1759 704.665 78.7228 702.317 71.7983L710.142 67.2541C711.794 72.8803 714.837 77.2947 719.271 80.4972C723.704 83.6133 729.399 85.1713 736.354 85.1713C743.135 85.1713 748.395 83.6998 752.133 80.7569C755.959 77.7274 757.871 73.7458 757.871 68.8121C757.871 64.0516 756.133 60.4595 752.655 58.0359C749.178 55.6123 743.44 53.1022 735.441 50.5055C725.965 47.3895 719.705 44.8794 716.662 42.9751C709.707 38.8204 706.23 32.8048 706.23 24.9282C706.23 17.2247 708.925 11.1657 714.315 6.75138C719.705 2.25046 726.356 0 734.268 0C741.397 0 747.569 1.86096 752.786 5.58287C758.002 9.21823 761.871 13.8923 764.392 19.605L756.698 23.8895C752.525 13.849 745.048 8.82872 734.268 8.82872C728.616 8.82872 724.052 10.2136 720.575 12.9834C717.097 15.7532 715.358 19.605 715.358 24.5387C715.358 29.0396 716.923 32.4153 720.053 34.6657C723.183 36.9162 728.356 39.2099 735.572 41.547C738.875 42.6722 741.223 43.4945 742.614 44.0138C744.092 44.4466 746.178 45.2256 748.873 46.3508C751.655 47.3895 753.698 48.3416 755.003 49.2072C756.307 49.9862 757.871 51.1114 759.697 52.5829C761.61 53.9678 762.957 55.3959 763.74 56.8674C764.609 58.2523 765.348 59.9834 765.957 62.0608C766.652 64.0516 767 66.2155 767 68.5525C767 76.256 764.175 82.4447 758.523 87.1188C752.872 91.7063 745.439 94 736.224 94Z" fill="#373737"/>
<path d="M77.7236 92.442H48.7729L26.0817 53.4917V92.442H0V1.55801H26.0817V37.9116L47.4688 1.55801H76.4195L49.2945 45.7017L77.7236 92.442Z" fill="#20836D"/>
<path d="M77.7236 92.884H48.7729L26.0817 53.9337V92.884H0V2H26.0817V38.3536L47.4688 2H76.4195L49.2945 46.1436L77.7236 92.884Z" fill="#20836D"/>
<rect x="5" y="10" width="15" height="75" fill="#F6F7F8"/>
<path d="M49.5 7L28.5 44.5H45L67.5 7H49.5Z" fill="#F6F7F8"/>
<path d="M45 48.5L69 88H52L28 48.5H45Z" fill="#F6F7F8"/>
</svg>
