<svg width="89" height="89" viewBox="0 0 89 89" fill="none" xmlns="http://www.w3.org/2000/svg">
<path opacity="0.2" d="M82.1859 50.6321C85.514 29.8773 71.3868 10.3542 50.632 7.02614C29.8772 3.69804 10.3542 17.8252 7.02605 38.58C3.69796 59.3348 17.8251 78.8579 38.5799 82.186C59.3347 85.5141 78.8578 71.3869 82.1859 50.6321Z" stroke="#006838" stroke-width="12.18" stroke-miterlimit="10"/>
<path opacity="0.2" d="M82.6635 44.5993C82.6635 52.1269 80.4313 59.4854 76.2492 65.7443C72.0671 72.0033 66.123 76.8815 59.1684 79.7622C52.2139 82.6428 44.5613 83.3966 37.1783 81.928C29.7954 80.4595 23.0138 76.8346 17.691 71.5118C12.3682 66.189 8.74334 59.4074 7.27479 52.0244C5.80623 44.6415 6.55995 36.9889 9.44062 30.0344C12.3213 23.0798 17.1995 17.1357 23.4585 12.9536C29.7174 8.7715 37.0759 6.53931 44.6035 6.53931" stroke="#006838" stroke-width="12.18" stroke-miterlimit="10"/>
<path opacity="0.2" d="M44.6035 82.6693C34.5093 82.6693 24.8286 78.6594 17.691 71.5218C10.5533 64.3842 6.54346 54.7035 6.54346 44.6093C6.54346 34.5152 10.5533 24.8345 17.691 17.6968C24.8286 10.5592 34.5093 6.54932 44.6035 6.54932" stroke="#006838" stroke-width="12.18" stroke-miterlimit="10"/>
<path opacity="0.4" d="M15.4335 69.0493C10.7802 63.4982 7.80765 56.7344 6.86497 49.5525C5.92229 42.3706 7.04862 35.0689 10.1117 28.5049C13.1747 21.9409 18.0473 16.3873 24.157 12.4964C30.2668 8.6055 37.36 6.53889 44.6035 6.53931" stroke="#006838" stroke-width="12.18" stroke-miterlimit="10"/>
<g clip-path="url(#clip0_37_280)">
<path fill-rule="evenodd" clip-rule="evenodd" d="M33.3323 49.4145C32.2734 48.359 31.4331 47.1052 30.8593 45.7246C30.2855 44.3441 29.9895 42.8639 29.9883 41.3689C29.9871 39.8738 30.2807 38.3932 30.8523 37.0118C31.4238 35.6303 32.2622 34.3751 33.3194 33.3179C34.3766 32.2608 35.6318 31.4225 37.0133 30.8509C38.3948 30.2794 39.8754 29.9858 41.3704 29.9871C42.8655 29.9883 44.3456 30.2843 45.7262 30.8582C47.1067 31.432 48.3605 32.2724 49.4159 33.3313C50.4748 34.3868 51.3152 35.6406 51.889 37.0212C52.4628 38.4017 52.7588 39.8819 52.76 41.3769C52.7612 42.872 52.4676 44.3526 51.896 45.7341C51.3244 47.1155 50.486 48.3707 49.4289 49.4279C48.3717 50.485 47.1165 51.3234 45.735 51.8949C44.3535 52.4664 42.8729 52.76 41.3778 52.7588C39.8828 52.7575 38.4026 52.4615 37.0221 51.8877C35.6416 51.3138 34.3877 50.4734 33.3323 49.4145ZM59.3575 59.3561C59.7682 58.942 59.9986 58.3824 59.9986 57.7992C59.9986 57.216 59.7682 56.6565 59.3575 56.2424L51.9385 48.8233C51.5115 49.4251 51.0346 49.9897 50.5128 50.5114C49.9915 51.0337 49.4266 51.5106 48.8243 51.9371L56.2433 59.3561C56.6566 59.7684 57.2166 60 57.8004 60C58.3843 60 58.9443 59.7684 59.3575 59.3561ZM47.5978 35.5963C44.7338 35.8114 42.9252 35.072 42.0703 33.335C42.0063 33.205 41.9072 33.0955 41.7841 33.0189C41.6611 32.9424 41.519 32.9018 41.3741 32.9018C41.2292 32.9018 41.0871 32.9424 40.9641 33.0189C40.841 33.0955 40.7419 33.205 40.6779 33.335C39.823 35.072 38.0149 35.8114 35.1504 35.5962C34.9573 35.5819 34.7658 35.6402 34.6135 35.7597C34.4612 35.8792 34.359 36.0514 34.3269 36.2423C33.8217 39.2743 34.2941 42.2204 35.6944 44.7624C36.9483 47.0397 38.8562 48.8225 41.0661 49.7803C41.1634 49.8227 41.2683 49.8445 41.3744 49.8445C41.4805 49.8445 41.5854 49.8227 41.6827 49.7803C43.8926 48.8225 45.8005 47.0397 47.0544 44.7624C48.4548 42.2204 48.9272 39.2743 48.4219 36.2423C48.3902 36.0511 48.288 35.8787 48.1355 35.7592C47.983 35.6396 47.7912 35.5814 47.598 35.5962L47.5978 35.5963ZM41.3739 48.2151C44.6271 46.6444 47.6129 42.6365 46.9872 37.1794C46.886 37.1821 46.7858 37.1835 46.6865 37.1835C44.2923 37.1835 42.5138 36.4866 41.374 35.1053C40.187 36.5444 38.3059 37.2394 35.7612 37.1795C35.1353 42.6365 38.1211 46.6444 41.3739 48.2151ZM44.6769 39.9038C44.7403 39.8237 44.7872 39.7319 44.8149 39.6336C44.8427 39.5353 44.8508 39.4325 44.8387 39.3311C44.8267 39.2297 44.7947 39.1317 44.7447 39.0427C44.6947 38.9537 44.6276 38.8754 44.5472 38.8124C44.4669 38.7493 44.3749 38.7028 44.2765 38.6754C44.1781 38.648 44.0753 38.6404 43.9739 38.6528C43.8726 38.6653 43.7747 38.6976 43.6859 38.748C43.597 38.7984 43.519 38.8658 43.4563 38.9464L40.9107 42.1918L39.1981 40.663C39.1223 40.5947 39.0336 40.542 38.9373 40.5079C38.841 40.4739 38.7389 40.4592 38.6369 40.4648C38.5349 40.4703 38.435 40.4959 38.343 40.5402C38.2509 40.5844 38.1685 40.6464 38.1005 40.7226C38.0324 40.7988 37.9801 40.8877 37.9465 40.9841C37.913 41.0806 37.8987 41.1827 37.9047 41.2847C37.9107 41.3867 37.9368 41.4864 37.9815 41.5783C38.0261 41.6702 38.0885 41.7523 38.165 41.82L40.4942 43.8996C40.6365 44.0263 40.8204 44.0964 41.011 44.0964C41.0338 44.0966 41.0566 44.0957 41.0793 44.0936C41.185 44.0842 41.2875 44.0533 41.3807 44.0027C41.4739 43.9521 41.5557 43.8829 41.6211 43.7995L44.6769 39.9038Z" fill="#006838"/>
</g>
<defs>
<clipPath id="clip0_37_280">
<rect width="30" height="30" fill="white" transform="translate(30 30)"/>
</clipPath>
</defs>
</svg>
