<svg width="89" height="89" viewBox="0 0 89 89" fill="none" xmlns="http://www.w3.org/2000/svg">
<path opacity="0.2" d="M82.1859 50.6321C85.514 29.8773 71.3868 10.3542 50.632 7.02614C29.8772 3.69804 10.3542 17.8252 7.02605 38.58C3.69796 59.3348 17.8251 78.8579 38.5799 82.186C59.3347 85.5141 78.8578 71.3869 82.1859 50.6321Z" stroke="#006838" stroke-width="12.18" stroke-miterlimit="10"/>
<path opacity="0.2" d="M82.6635 44.5993C82.6635 52.1269 80.4313 59.4854 76.2492 65.7443C72.0671 72.0033 66.123 76.8815 59.1684 79.7622C52.2139 82.6428 44.5613 83.3966 37.1783 81.928C29.7954 80.4595 23.0138 76.8346 17.691 71.5118C12.3682 66.189 8.74334 59.4074 7.27479 52.0244C5.80623 44.6415 6.55995 36.9889 9.44062 30.0344C12.3213 23.0798 17.1995 17.1357 23.4585 12.9536C29.7174 8.7715 37.0759 6.53931 44.6035 6.53931" stroke="#006838" stroke-width="12.18" stroke-miterlimit="10"/>
<path opacity="0.2" d="M44.6035 82.6693C34.5093 82.6693 24.8286 78.6594 17.691 71.5218C10.5533 64.3842 6.54346 54.7035 6.54346 44.6093C6.54346 34.5152 10.5533 24.8345 17.691 17.6968C24.8286 10.5592 34.5093 6.54932 44.6035 6.54932" stroke="#006838" stroke-width="12.18" stroke-miterlimit="10"/>
<path opacity="0.4" d="M15.4332 69.0493C10.78 63.4982 7.80741 56.7344 6.86473 49.5525C5.92204 42.3706 7.04837 35.0689 10.1114 28.5049C13.1745 21.9409 18.047 16.3873 24.1568 12.4964C30.2665 8.6055 37.3597 6.53889 44.6032 6.53931" stroke="#006838" stroke-width="12.18" stroke-miterlimit="10"/>
<g clip-path="url(#clip0_1617_8286)">
<path d="M35.2734 40.6641C33.3345 40.6641 31.7578 39.0874 31.7578 37.1484C31.7578 35.2095 33.3345 33.6328 35.2734 33.6328C37.2124 33.6328 38.7891 35.2095 38.7891 37.1484C38.7891 39.0874 37.2124 40.6641 35.2734 40.6641ZM54.7266 40.6641C52.7876 40.6641 51.2109 39.0874 51.2109 37.1484C51.2109 35.2095 52.7876 33.6328 54.7266 33.6328C56.6655 33.6328 58.2422 35.2095 58.2422 37.1484C58.2422 39.0874 56.6655 40.6641 54.7266 40.6641ZM45 38.7891C42.577 38.7891 40.6055 36.8176 40.6055 34.3945C40.6055 31.9715 42.577 30 45 30C47.423 30 49.3945 31.9715 49.3945 34.3945C49.3945 36.8176 47.423 38.7891 45 38.7891ZM45.8789 38.8779V44.9414C45.8789 45.4272 45.4858 45.8203 45 45.8203C44.5142 45.8203 44.1211 45.4272 44.1211 44.9414V38.8779C41.1475 39.309 38.8477 41.8503 38.8477 44.9414V50.2148C38.8477 50.7006 39.2408 51.0938 39.7266 51.0938H41.6955L42.3667 59.1949C42.4045 59.6498 42.7856 60 43.2422 60H46.7578C47.2144 60 47.5955 59.6498 47.6333 59.1949L48.3045 51.0938H50.2734C50.7592 51.0938 51.1523 50.7006 51.1523 50.2148V44.9414C51.1523 41.8503 48.8525 39.309 45.8789 38.8779ZM37.0312 50.332V45.0586C37.0312 43.7412 37.3857 42.5169 37.9577 41.4233C37.1685 40.9522 36.2575 40.6641 35.2734 40.6641C32.3655 40.6641 30 43.0296 30 45.9375V50.332C30 50.8178 30.3931 51.2109 30.8789 51.2109H31.8411L32.641 59.2086C32.6856 59.6575 33.0642 60 33.5156 60H37.0312C37.4827 60 37.8612 59.6575 37.9059 59.2086L38.5555 52.7139C37.6581 52.2928 37.0312 51.3871 37.0312 50.332ZM60 45.9375C60 43.0296 57.6345 40.6641 54.7266 40.6641C53.7425 40.6641 52.8315 40.9522 52.0423 41.4233C52.6143 42.5169 52.9688 43.7412 52.9688 45.0586V50.332C52.9688 51.3871 52.3419 52.2928 51.4445 52.7139L52.0941 59.2086C52.1388 59.6575 52.5173 60 52.9688 60H56.4844C56.9358 60 57.3144 59.6575 57.359 59.2086L58.1589 51.2109H59.1211C59.6069 51.2109 60 50.8178 60 50.332V45.9375Z" fill="#006838"/>
</g>
<defs>
<clipPath id="clip0_1617_8286">
<rect width="30" height="30" fill="white" transform="translate(30 30)"/>
</clipPath>
</defs>
</svg>
