<svg width="89" height="89" viewBox="0 0 89 89" fill="none" xmlns="http://www.w3.org/2000/svg">
<path opacity="0.2" d="M82.1859 50.6321C85.514 29.8773 71.3868 10.3542 50.632 7.02614C29.8772 3.69804 10.3542 17.8252 7.02605 38.58C3.69796 59.3348 17.8251 78.8579 38.5799 82.186C59.3347 85.5141 78.8578 71.3869 82.1859 50.6321Z" stroke="#006838" stroke-width="12.18" stroke-miterlimit="10"/>
<path opacity="0.2" d="M82.6635 44.5993C82.6635 52.1269 80.4313 59.4854 76.2492 65.7443C72.0671 72.0033 66.123 76.8815 59.1684 79.7622C52.2139 82.6428 44.5613 83.3966 37.1783 81.928C29.7954 80.4595 23.0138 76.8346 17.691 71.5118C12.3682 66.189 8.74334 59.4074 7.27479 52.0244C5.80623 44.6415 6.55995 36.9889 9.44062 30.0344C12.3213 23.0798 17.1995 17.1357 23.4585 12.9536C29.7174 8.7715 37.0759 6.53931 44.6035 6.53931" stroke="#006838" stroke-width="12.18" stroke-miterlimit="10"/>
<path opacity="0.2" d="M44.6035 82.6693C34.5093 82.6693 24.8286 78.6594 17.691 71.5218C10.5533 64.3842 6.54346 54.7035 6.54346 44.6093C6.54346 34.5152 10.5533 24.8345 17.691 17.6968C24.8286 10.5592 34.5093 6.54932 44.6035 6.54932" stroke="#006838" stroke-width="12.18" stroke-miterlimit="10"/>
<path opacity="0.4" d="M15.4335 69.0493C10.7802 63.4982 7.80765 56.7344 6.86497 49.5525C5.92229 42.3706 7.04862 35.0689 10.1117 28.5049C13.1747 21.9409 18.0473 16.3873 24.157 12.4964C30.2668 8.6055 37.36 6.53889 44.6035 6.53931" stroke="#006838" stroke-width="12.18" stroke-miterlimit="10"/>
<path d="M43.8809 59.9994C51.3507 59.9994 57.4649 54.0632 57.7515 46.6592H43.8809C43.7387 46.6592 43.6024 46.6028 43.502 46.5023C43.4015 46.4018 43.345 46.2655 43.345 46.1234V32.2473C35.9384 32.5302 30 38.6438 30 46.1185C30 53.7722 36.2272 59.9994 43.8809 59.9994Z" fill="#006838"/>
<path d="M46.6652 30V43.3396H60C59.7267 36.1082 53.896 30.2754 46.6652 30Z" fill="#006838"/>
</svg>
