<svg width="89" height="89" viewBox="0 0 89 89" fill="none" xmlns="http://www.w3.org/2000/svg">
<path opacity="0.2" d="M82.1859 50.6321C85.514 29.8773 71.3868 10.3542 50.632 7.02614C29.8772 3.69804 10.3542 17.8252 7.02605 38.58C3.69796 59.3348 17.8251 78.8579 38.5799 82.186C59.3347 85.5141 78.8578 71.3869 82.1859 50.6321Z" stroke="#006838" stroke-width="12.18" stroke-miterlimit="10"/>
<path opacity="0.2" d="M82.6635 44.5993C82.6635 52.1269 80.4313 59.4854 76.2492 65.7443C72.0671 72.0033 66.123 76.8815 59.1684 79.7622C52.2139 82.6428 44.5613 83.3966 37.1783 81.928C29.7954 80.4595 23.0138 76.8346 17.691 71.5118C12.3682 66.189 8.74334 59.4074 7.27479 52.0244C5.80623 44.6415 6.55995 36.9889 9.44062 30.0344C12.3213 23.0798 17.1995 17.1357 23.4585 12.9536C29.7174 8.7715 37.0759 6.53931 44.6035 6.53931" stroke="#006838" stroke-width="12.18" stroke-miterlimit="10"/>
<path opacity="0.2" d="M44.6035 82.6693C34.5093 82.6693 24.8286 78.6594 17.691 71.5218C10.5533 64.3842 6.54346 54.7035 6.54346 44.6093C6.54346 34.5152 10.5533 24.8345 17.691 17.6968C24.8286 10.5592 34.5093 6.54932 44.6035 6.54932" stroke="#006838" stroke-width="12.18" stroke-miterlimit="10"/>
<path opacity="0.4" d="M15.4335 69.0493C10.7802 63.4982 7.80765 56.7344 6.86497 49.5525C5.92229 42.3706 7.04862 35.0689 10.1117 28.5049C13.1747 21.9409 18.0473 16.3873 24.157 12.4964C30.2668 8.6055 37.36 6.53889 44.6035 6.53931" stroke="#006838" stroke-width="12.18" stroke-miterlimit="10"/>
<g clip-path="url(#clip0_1617_8275)">
<path d="M55.1871 41.6259H39.9065V36.7021C39.9065 34.1553 41.6043 31.9482 43.9813 31.4388C47.2072 30.9294 50.0936 33.3064 50.0936 36.5323C50.0936 37.551 50.9425 38.2302 51.7914 38.2302C52.6403 38.2302 53.4893 37.551 53.4893 36.5323C53.4893 31.6086 49.2446 27.5338 44.1511 28.0431C39.7367 28.5525 36.5108 32.4575 36.5108 36.8719V41.6259H34.813C33.964 41.6259 33.1151 42.305 33.1151 43.3237V60.3022C33.1151 61.1511 33.964 62 34.813 62H55.1871C56.2058 62 56.8849 61.1511 56.8849 60.3022V43.3237C56.8849 42.305 56.2058 41.6259 55.1871 41.6259ZM46.6979 53.0014V55.2086C46.6979 56.2273 46.0187 56.9065 45 56.9065C43.9813 56.9065 43.3022 56.2273 43.3022 55.2086V53.0014C42.2835 52.3223 41.6043 51.3036 41.6043 50.1151C41.6043 47.9079 43.6417 46.3798 45.8489 46.8892C47.0374 47.2288 48.0561 48.2475 48.3957 49.4359C48.7353 50.964 47.8864 52.3223 46.6979 53.0014Z" fill="#006838"/>
</g>
<defs>
<clipPath id="clip0_1617_8275">
<rect width="34" height="34" fill="white" transform="translate(28 28)"/>
</clipPath>
</defs>
</svg>
