<svg width="89" height="89" viewBox="0 0 89 89" fill="none" xmlns="http://www.w3.org/2000/svg">
<path opacity="0.2" d="M82.1859 50.6321C85.514 29.8773 71.3868 10.3542 50.632 7.02614C29.8772 3.69804 10.3542 17.8252 7.02605 38.58C3.69796 59.3348 17.8251 78.8579 38.5799 82.186C59.3347 85.5141 78.8578 71.3869 82.1859 50.6321Z" stroke="#006838" stroke-width="12.18" stroke-miterlimit="10"/>
<path opacity="0.2" d="M82.6635 44.5993C82.6635 52.1269 80.4313 59.4854 76.2492 65.7443C72.0671 72.0033 66.123 76.8815 59.1684 79.7622C52.2139 82.6428 44.5613 83.3966 37.1783 81.928C29.7954 80.4595 23.0138 76.8346 17.691 71.5118C12.3682 66.189 8.74334 59.4074 7.27479 52.0244C5.80623 44.6415 6.55995 36.9889 9.44062 30.0344C12.3213 23.0798 17.1995 17.1357 23.4585 12.9536C29.7174 8.7715 37.0759 6.53931 44.6035 6.53931" stroke="#006838" stroke-width="12.18" stroke-miterlimit="10"/>
<path opacity="0.2" d="M44.6035 82.6693C34.5093 82.6693 24.8286 78.6594 17.691 71.5218C10.5533 64.3842 6.54346 54.7035 6.54346 44.6093C6.54346 34.5152 10.5533 24.8345 17.691 17.6968C24.8286 10.5592 34.5093 6.54932 44.6035 6.54932" stroke="#006838" stroke-width="12.18" stroke-miterlimit="10"/>
<path opacity="0.4" d="M15.4332 69.0493C10.78 63.4982 7.80741 56.7344 6.86473 49.5525C5.92204 42.3706 7.04837 35.0689 10.1114 28.5049C13.1745 21.9409 18.047 16.3873 24.1568 12.4964C30.2665 8.6055 37.3597 6.53889 44.6032 6.53931" stroke="#006838" stroke-width="12.18" stroke-miterlimit="10"/>
<path d="M53.5714 30V32.1429H56.3421L45 43.485L40.7143 39.1993L30.3139 49.5996L31.8289 51.1146L40.7143 42.2293L45 46.515L57.8571 33.6579V36.4286H60V30H53.5714ZM36.8721 52.5H31.6993L30 54.1993V60H38.5714V54.1993L36.8721 52.5ZM42.4179 48.2143L40.7143 49.9179V60H49.2857V49.9179L47.5821 48.2143H42.4179ZM53.1321 41.7857L51.4286 43.4893V60H60V43.4893L58.2964 41.7857H53.1321Z" fill="#006838"/>
</svg>
