<svg width="89" height="89" viewBox="0 0 89 89" fill="none" xmlns="http://www.w3.org/2000/svg">
<path opacity="0.2" d="M82.1859 50.6321C85.514 29.8773 71.3868 10.3542 50.632 7.02614C29.8772 3.69804 10.3542 17.8252 7.02605 38.58C3.69796 59.3348 17.8251 78.8579 38.5799 82.186C59.3347 85.5141 78.8578 71.3869 82.1859 50.6321Z" stroke="#006838" stroke-width="12.18" stroke-miterlimit="10"/>
<path opacity="0.2" d="M82.6635 44.5993C82.6635 52.1269 80.4313 59.4854 76.2492 65.7443C72.0671 72.0033 66.123 76.8815 59.1684 79.7622C52.2139 82.6428 44.5613 83.3966 37.1783 81.928C29.7954 80.4595 23.0138 76.8346 17.691 71.5118C12.3682 66.189 8.74334 59.4074 7.27479 52.0244C5.80623 44.6415 6.55995 36.9889 9.44062 30.0344C12.3213 23.0798 17.1995 17.1357 23.4585 12.9536C29.7174 8.7715 37.0759 6.53931 44.6035 6.53931" stroke="#006838" stroke-width="12.18" stroke-miterlimit="10"/>
<path opacity="0.2" d="M44.6035 82.6693C34.5093 82.6693 24.8286 78.6594 17.691 71.5218C10.5533 64.3842 6.54346 54.7035 6.54346 44.6093C6.54346 34.5152 10.5533 24.8345 17.691 17.6968C24.8286 10.5592 34.5093 6.54932 44.6035 6.54932" stroke="#006838" stroke-width="12.18" stroke-miterlimit="10"/>
<path opacity="0.4" d="M15.4335 69.0493C10.7802 63.4982 7.80765 56.7344 6.86497 49.5525C5.92229 42.3706 7.04862 35.0689 10.1117 28.5049C13.1747 21.9409 18.0473 16.3873 24.157 12.4964C30.2668 8.6055 37.36 6.53889 44.6035 6.53931" stroke="#006838" stroke-width="12.18" stroke-miterlimit="10"/>
<path d="M47.4453 37.733H59.1211C59.6065 37.733 60 37.3395 60 36.8541V31.9634C60 31.478 59.6065 31.0845 59.1211 31.0845H47.4453C46.9599 31.0845 46.5664 31.478 46.5664 31.9634V33.5298H37.2034C36.718 33.5298 36.3245 33.9233 36.3245 34.4087V40.8659H30.8789C30.3935 40.8659 30 41.2594 30 41.7448V46.6355C30 47.1209 30.3935 47.5144 30.8789 47.5144H35.8379V51.4572H30.8789C30.3935 51.4572 30 51.8507 30 52.3361V57.2268C30 57.7122 30.3935 58.1057 30.8789 58.1057H42.5546C43.04 58.1057 43.4336 57.7122 43.4336 57.2268V55.6604H49.244C49.6481 57.519 51.3052 58.9157 53.2832 58.9157C55.5628 58.9157 57.4174 57.0611 57.4174 54.7815C57.4174 52.8035 56.0208 51.1464 54.1621 50.7423V47.5144H59.1211C59.6065 47.5144 60 47.1209 60 46.6355V41.7448C60 41.2594 59.6065 40.8659 59.1211 40.8659H47.4453C46.9599 40.8659 46.5664 41.2594 46.5664 41.7448V46.6355C46.5664 47.1209 46.9599 47.5144 47.4453 47.5144H52.4043V50.7422C50.8291 51.0847 49.5865 52.3273 49.244 53.9025H43.4336V52.3361C43.4336 51.8507 43.04 51.4572 42.5546 51.4572H37.5957V47.5143H42.5546C43.04 47.5143 43.4336 47.1208 43.4336 46.6354V41.7447C43.4336 41.2593 43.04 40.8658 42.5546 40.8658H38.0823V35.2876H46.5664V36.8541C46.5664 37.3395 46.9599 37.733 47.4453 37.733Z" fill="#006838"/>
</svg>
