<svg width="89" height="89" viewBox="0 0 89 89" fill="none" xmlns="http://www.w3.org/2000/svg">
<path opacity="0.2" d="M82.1859 50.6321C85.514 29.8773 71.3868 10.3542 50.632 7.02614C29.8772 3.69804 10.3542 17.8252 7.02605 38.58C3.69796 59.3348 17.8251 78.8579 38.5799 82.186C59.3347 85.5141 78.8578 71.3869 82.1859 50.6321Z" stroke="#006838" stroke-width="12.18" stroke-miterlimit="10"/>
<path opacity="0.2" d="M82.663 44.5993C82.663 52.1269 80.4308 59.4854 76.2487 65.7443C72.0666 72.0033 66.1225 76.8815 59.1679 79.7622C52.2134 82.6428 44.5608 83.3966 37.1779 81.928C29.7949 80.4595 23.0133 76.8346 17.6905 71.5118C12.3677 66.189 8.74285 59.4074 7.2743 52.0244C5.80574 44.6415 6.55946 36.9889 9.44013 30.0344C12.3208 23.0798 17.199 17.1357 23.458 12.9536C29.7169 8.7715 37.0754 6.53931 44.603 6.53931" stroke="#006838" stroke-width="12.18" stroke-miterlimit="10"/>
<path opacity="0.2" d="M44.603 82.6693C34.5088 82.6693 24.8281 78.6594 17.6905 71.5218C10.5528 64.3842 6.54297 54.7035 6.54297 44.6093C6.54297 34.5152 10.5528 24.8345 17.6905 17.6968C24.8281 10.5592 34.5088 6.54932 44.603 6.54932" stroke="#006838" stroke-width="12.18" stroke-miterlimit="10"/>
<path opacity="0.4" d="M15.4332 69.0493C10.78 63.4982 7.80741 56.7344 6.86473 49.5525C5.92204 42.3706 7.04837 35.0689 10.1114 28.5049C13.1745 21.9409 18.047 16.3873 24.1568 12.4964C30.2665 8.6055 37.3597 6.53889 44.6032 6.53931" stroke="#006838" stroke-width="12.18" stroke-miterlimit="10"/>
<g clip-path="url(#clip0_1617_8198)">
<path d="M57.0075 36.807H50.5464V34.2035C50.5464 32.9638 49.5378 31.9553 48.2981 31.9553H41.7014C40.4617 31.9553 39.4532 32.9638 39.4532 34.2035V36.807H32.992C31.346 36.807 30.0069 38.1462 30.0069 39.7921C30.0069 41.2872 29.8538 42.6299 30.9868 44.1398C31.6278 44.9941 32.5087 45.6036 33.5342 45.9021L43.4926 48.8015C44.4768 49.0886 45.5226 49.0886 46.5068 48.8015L56.4652 45.9021C57.4907 45.6035 58.3716 44.9941 59.0126 44.1398C60.1507 42.6231 59.9925 41.2666 59.9925 39.7921C59.9925 38.1462 58.6535 36.807 57.0075 36.807ZM41.3574 34.2035C41.3575 34.1123 41.3938 34.0249 41.4583 33.9604C41.5228 33.8959 41.6102 33.8597 41.7014 33.8596H48.2981C48.3893 33.8597 48.4767 33.8959 48.5412 33.9604C48.6057 34.0249 48.642 34.1123 48.6421 34.2035V36.807H41.3574V34.2035Z" fill="#006838"/>
<path d="M56.9974 47.7304C46.2561 50.8578 46.3952 50.9211 44.9996 50.9211C43.614 50.9211 43.9427 50.9159 33.0018 47.7305C31.8483 47.3945 30.8266 46.7754 30.0068 45.9219V55.0597C30.0068 56.7057 31.3459 58.0447 32.9919 58.0447H57.0074C58.6533 58.0447 59.9924 56.7057 59.9924 55.0597V45.9219C59.1726 46.7753 58.1509 47.3945 56.9974 47.7304Z" fill="#006838"/>
</g>
<defs>
<clipPath id="clip0_1617_8198">
<rect width="30" height="30" fill="white" transform="translate(30 30)"/>
</clipPath>
</defs>
</svg>
