<svg width="89" height="89" viewBox="0 0 89 89" fill="none" xmlns="http://www.w3.org/2000/svg">
<path opacity="0.2" d="M82.1859 50.6321C85.514 29.8773 71.3868 10.3542 50.632 7.02614C29.8772 3.69804 10.3542 17.8252 7.02605 38.58C3.69796 59.3348 17.8251 78.8579 38.5799 82.186C59.3347 85.5141 78.8578 71.3869 82.1859 50.6321Z" stroke="#006838" stroke-width="12.18" stroke-miterlimit="10"/>
<path opacity="0.2" d="M82.6635 44.5993C82.6635 52.1269 80.4313 59.4854 76.2492 65.7443C72.0671 72.0033 66.123 76.8815 59.1684 79.7622C52.2139 82.6428 44.5613 83.3966 37.1783 81.928C29.7954 80.4595 23.0138 76.8346 17.691 71.5118C12.3682 66.189 8.74334 59.4074 7.27479 52.0244C5.80623 44.6415 6.55995 36.9889 9.44062 30.0344C12.3213 23.0798 17.1995 17.1357 23.4585 12.9536C29.7174 8.7715 37.0759 6.53931 44.6035 6.53931" stroke="#006838" stroke-width="12.18" stroke-miterlimit="10"/>
<path opacity="0.2" d="M44.6035 82.6693C34.5093 82.6693 24.8286 78.6594 17.691 71.5218C10.5533 64.3842 6.54346 54.7035 6.54346 44.6093C6.54346 34.5152 10.5533 24.8345 17.691 17.6968C24.8286 10.5592 34.5093 6.54932 44.6035 6.54932" stroke="#006838" stroke-width="12.18" stroke-miterlimit="10"/>
<path opacity="0.4" d="M15.4332 69.0493C10.78 63.4982 7.80741 56.7344 6.86473 49.5525C5.92204 42.3706 7.04837 35.0689 10.1114 28.5049C13.1745 21.9409 18.047 16.3873 24.1568 12.4964C30.2665 8.6055 37.3597 6.53889 44.6032 6.53931" stroke="#006838" stroke-width="12.18" stroke-miterlimit="10"/>
<path fill-rule="evenodd" clip-rule="evenodd" d="M49.4181 30.5443C49.4181 30.4 49.4754 30.2615 49.5775 30.1594C49.6796 30.0574 49.818 30 49.9624 30H52.515C52.6594 30 52.7978 30.0574 52.8999 30.1594C53.002 30.2615 53.0593 30.4 53.0593 30.5443V33.3231C53.0593 33.4675 53.002 33.6059 52.8999 33.708C52.7978 33.8101 52.6594 33.8675 52.515 33.8675C52.3706 33.8675 52.2322 33.8101 52.1301 33.708C52.028 33.6059 51.9706 33.4675 51.9706 33.3231V31.0887H49.9624C49.818 31.0887 49.6796 31.0313 49.5775 30.9293C49.4754 30.8272 49.4181 30.6887 49.4181 30.5443ZM33.0969 53.1043H31.0887V50.8698C31.0887 50.7255 31.0313 50.587 30.9293 50.4849C30.8272 50.3828 30.6887 50.3255 30.5443 50.3255C30.4 50.3255 30.2615 50.3828 30.1594 50.4849C30.0574 50.587 30 50.7255 30 50.8698V53.6486C30 53.793 30.0574 53.9314 30.1594 54.0335C30.2615 54.1356 30.4 54.1929 30.5443 54.1929H33.0969C33.1684 54.1929 33.2392 54.1789 33.3052 54.1515C33.3713 54.1241 33.4313 54.084 33.4818 54.0335C33.5324 53.9829 33.5725 53.9229 33.5998 53.8569C33.6272 53.7908 33.6413 53.7201 33.6412 53.6486C33.6412 53.5771 33.6272 53.5063 33.5998 53.4403C33.5724 53.3742 33.5323 53.3142 33.4818 53.2637C33.4312 53.2131 33.3712 53.173 33.3052 53.1457C33.2391 53.1183 33.1684 53.1042 33.0969 53.1043ZM30.5443 33.8675C30.6887 33.8675 30.8272 33.8101 30.9293 33.708C31.0313 33.6059 31.0887 33.4675 31.0887 33.3231V31.0887H33.0969C33.2413 31.0887 33.3798 31.0313 33.4818 30.9293C33.5839 30.8272 33.6413 30.6887 33.6413 30.5443C33.6413 30.4 33.5839 30.2615 33.4818 30.1594C33.3798 30.0574 33.2413 30 33.0969 30H30.5443C30.4 30 30.2615 30.0574 30.1594 30.1594C30.0574 30.2615 30 30.4 30 30.5443V33.3231C30 33.4675 30.0574 33.6059 30.1594 33.708C30.2615 33.8101 30.4 33.8675 30.5443 33.8675ZM47.3572 42.9599C48.0611 44.179 47.1802 45.7047 45.7726 45.7047H37.7584C36.3507 45.7047 35.4699 44.179 36.1737 42.9599L40.1808 36.0195C40.8806 34.8073 42.6503 34.8073 43.3502 36.0195L47.3572 42.9599ZM41.1656 38.2397L41.2867 41.593C41.296 41.8506 41.5077 42.0547 41.7654 42.0547C42.0232 42.0547 42.2348 41.8506 42.2442 41.593L42.3652 38.2397C42.3701 38.1049 42.325 37.987 42.2313 37.8899C42.031 37.6822 41.4998 37.6821 41.2996 37.8899C41.2059 37.987 41.1608 38.1049 41.1656 38.2397ZM42.3792 43.7639C42.3804 43.6826 42.3654 43.6018 42.3351 43.5263C42.3048 43.4507 42.2597 43.382 42.2026 43.3241C42.1455 43.2661 42.0775 43.2201 42.0024 43.1887C41.9273 43.1573 41.8468 43.1411 41.7654 43.1411C41.684 43.1411 41.6035 43.1573 41.5284 43.1887C41.4534 43.2201 41.3853 43.2662 41.3282 43.3241C41.2711 43.3821 41.2261 43.4509 41.1958 43.5264C41.1655 43.6019 41.1506 43.6827 41.1518 43.7641C41.1542 43.9252 41.2199 44.079 41.3348 44.1921C41.4496 44.3052 41.6044 44.3686 41.7655 44.3686C41.9267 44.3686 42.0815 44.3051 42.1963 44.192C42.3111 44.0789 42.3768 43.9251 42.3792 43.7639ZM59.748 56.8065L57.7931 58.8213C57.4497 59.1751 56.8794 59.1836 56.5256 58.8403L51.1108 53.5861C50.757 53.2428 50.7484 52.6722 51.0917 52.3186L51.203 52.2038L48.1844 49.2501C46.4596 50.731 44.2171 51.6259 41.7655 51.6259C36.3199 51.6259 31.9053 47.2113 31.9053 41.7657C31.9053 36.32 36.3199 31.9055 41.7655 31.9055C47.2111 31.9055 51.6257 36.32 51.6257 41.7657C51.6257 43.8627 50.9705 45.8065 49.8545 47.4045L52.9353 50.4186L53.0467 50.3038C53.39 49.95 53.9605 49.9414 54.3143 50.2848L59.729 55.5392C60.0827 55.8824 60.0914 56.4527 59.748 56.8065ZM49.766 41.7655C49.766 37.3469 46.184 33.7649 41.7654 33.7649C37.3468 33.7649 33.7648 37.3469 33.7648 41.7655C33.7648 46.1842 37.3468 49.7662 41.7654 49.7662C46.1841 49.7662 49.766 46.1842 49.766 41.7655Z" fill="#006838"/>
</svg>
