<svg width="89" height="89" viewBox="0 0 89 89" fill="none" xmlns="http://www.w3.org/2000/svg">
<path opacity="0.2" d="M82.1859 50.6321C85.514 29.8773 71.3868 10.3542 50.632 7.02614C29.8772 3.69804 10.3542 17.8252 7.02605 38.58C3.69796 59.3348 17.8251 78.8579 38.5799 82.186C59.3347 85.5141 78.8578 71.3869 82.1859 50.6321Z" stroke="#006838" stroke-width="12.18" stroke-miterlimit="10"/>
<path opacity="0.2" d="M82.6635 44.5993C82.6635 52.1269 80.4313 59.4854 76.2492 65.7443C72.0671 72.0033 66.123 76.8815 59.1684 79.7622C52.2139 82.6428 44.5613 83.3966 37.1783 81.928C29.7954 80.4595 23.0138 76.8346 17.691 71.5118C12.3682 66.189 8.74334 59.4074 7.27479 52.0244C5.80623 44.6415 6.55995 36.9889 9.44062 30.0344C12.3213 23.0798 17.1995 17.1357 23.4585 12.9536C29.7174 8.7715 37.0759 6.53931 44.6035 6.53931" stroke="#006838" stroke-width="12.18" stroke-miterlimit="10"/>
<path opacity="0.2" d="M44.6035 82.6693C34.5093 82.6693 24.8286 78.6594 17.691 71.5218C10.5533 64.3842 6.54346 54.7035 6.54346 44.6093C6.54346 34.5152 10.5533 24.8345 17.691 17.6968C24.8286 10.5592 34.5093 6.54932 44.6035 6.54932" stroke="#006838" stroke-width="12.18" stroke-miterlimit="10"/>
<path opacity="0.4" d="M15.4335 69.0493C10.7802 63.4982 7.80765 56.7344 6.86497 49.5525C5.92229 42.3706 7.04862 35.0689 10.1117 28.5049C13.1747 21.9409 18.0473 16.3873 24.157 12.4964C30.2668 8.6055 37.36 6.53889 44.6035 6.53931" stroke="#006838" stroke-width="12.18" stroke-miterlimit="10"/>
<path d="M32.4662 40.7883C32.8089 40.8216 33.1526 40.735 33.4386 40.5432C33.7246 40.3515 33.9352 40.0664 34.0345 39.7367C34.0979 39.288 34.2721 38.8622 34.5413 38.4977C34.8105 38.1331 35.1662 37.8413 35.5764 37.6487C35.9865 37.456 36.4382 37.3685 36.8907 37.3941C37.3431 37.4196 37.782 37.5575 38.1679 37.7951C38.4259 37.9548 38.7262 38.0329 39.0293 38.019C39.3324 38.0052 39.6243 37.9 39.8667 37.7174L41.0184 36.8443C41.3238 36.613 41.5283 36.2727 41.5891 35.8944C41.65 35.5161 41.5625 35.1289 41.3451 34.8134C40.8326 34.0958 37.8236 29.9065 37.3841 29.2903C35.1092 30.2842 33.1033 31.8047 31.5317 33.7264C29.9601 35.6481 28.8678 37.9158 28.345 40.3427C29.1106 40.4271 31.6563 40.7015 32.4662 40.7883ZM40.5734 55.5224C40.5255 55.251 40.3957 55.0008 40.2014 54.8055C40.0071 54.6101 39.7577 54.4789 39.4866 54.4295C38.919 54.3208 38.4031 54.028 38.0187 53.5964C37.6343 53.1648 37.403 52.6186 37.3604 52.0422C37.1614 50.9407 36.5822 49.9438 35.7236 49.2254C34.8651 48.507 33.7818 48.1127 32.6623 48.111C31.8433 48.1444 29.5113 48.233 28.719 48.2713C29.5784 51.053 31.2042 53.5362 33.4101 55.4364C35.6159 57.3365 38.3126 58.5766 41.1908 59.0146L40.5734 55.5224ZM61.9769 49.0964C61.9637 48.8883 61.8782 48.6913 61.7352 48.5395C61.5922 48.3877 61.4006 48.2907 61.1937 48.2652C59.8628 48.111 59.3285 46.7031 59.1561 46.1038C59.1036 45.9158 58.9911 45.7501 58.8356 45.6321C58.6802 45.514 58.4904 45.45 58.2952 45.4499H51.4473C51.2513 45.4494 51.0605 45.5129 50.904 45.6308C50.7474 45.7488 50.6338 45.9147 50.5803 46.1032C50.4139 46.7031 49.8796 48.111 48.5494 48.2652C48.3421 48.2905 48.1502 48.3875 48.0069 48.5394C47.8636 48.6913 47.778 48.8886 47.7649 49.097C47.4432 52.9493 49.2379 58.9734 54.4168 61.8178C54.5543 61.8995 54.7113 61.9427 54.8712 61.9427C55.0312 61.9427 55.1882 61.8995 55.3257 61.8178C62.1912 57.7973 62.0722 50.5159 61.9769 49.0964ZM54.8685 59.2939C53.4218 58.2698 52.2378 56.9181 51.4131 55.3492C50.5884 53.7803 50.1464 52.0387 50.1231 50.2664C51.1589 49.7458 51.9832 48.8837 52.4569 47.8257H57.2794C57.7557 48.884 58.582 49.7459 59.6194 50.2664C59.5952 52.0391 59.1523 53.781 58.3266 55.3499C57.5009 56.9188 56.316 58.2703 54.8685 59.2939Z" fill="#006838"/>
<path d="M51.4768 35.7222C51.7119 36.2147 51.8188 36.7585 51.7878 37.3033C51.7567 37.8481 51.5886 38.3763 51.2991 38.8388C51.0096 39.3014 50.608 39.6834 50.1315 39.9494C49.6551 40.2155 49.1192 40.357 48.5735 40.3608H47.3143C46.7919 40.3655 46.281 40.5148 45.8382 40.7921C45.3955 41.0693 45.0381 41.4638 44.8057 41.9316C44.5733 42.3995 44.4749 42.9226 44.5215 43.4429C44.5681 43.9633 44.7579 44.4606 45.0697 44.8797C45.4855 45.4357 45.7112 46.1109 45.7132 46.8052C45.7153 47.4995 45.4937 48.1759 45.0812 48.7344C44.8834 49.0056 44.7561 49.3217 44.7106 49.6543C44.6651 49.9869 44.703 50.3256 44.8207 50.6399C44.9384 50.9543 45.1324 51.2345 45.3851 51.4554C45.6379 51.6763 45.9415 51.831 46.2688 51.9055L46.7084 52.0063C46.5019 49.5826 46.0636 47.5833 48.4132 47.0891C49.0483 47.012 49.3573 46.0679 49.4405 45.7825C49.5639 45.3451 49.8267 44.9599 50.189 44.6855C50.5513 44.4111 50.9932 44.2625 51.4477 44.2622H58.0163C58.4215 44.2289 58.8284 44.3004 59.1978 44.4699C59.3469 41.74 58.7769 39.0188 57.545 36.5782C56.3131 34.1376 54.4623 32.0629 52.1775 30.5615C51.7966 30.7468 51.4572 31.0075 51.18 31.3277C50.075 32.5578 50.9207 34.5183 51.4775 35.7228L51.4768 35.7222Z" fill="#006838"/>
<path d="M46.9282 53.2777L46.0072 53.0639C45.2918 52.9095 44.6515 52.5134 44.194 51.9423C43.7364 51.3712 43.4895 50.6599 43.4948 49.9281C43.4918 49.2372 43.7175 48.5648 44.1366 48.0156C44.3931 47.6684 44.5305 47.2475 44.5282 46.8159C44.5346 46.3762 44.3924 45.9472 44.1244 45.5986C43.6738 45.0046 43.398 44.2966 43.3279 43.5544C43.2578 42.8121 43.3963 42.0651 43.7278 41.3972C44.0592 40.7294 44.5705 40.1674 45.204 39.7743C45.8375 39.3813 46.5682 39.1729 47.3137 39.1726H48.5729C49.1148 39.1726 49.6344 38.9573 50.0176 38.5742C50.4007 38.1911 50.616 37.6714 50.616 37.1296C50.6103 36.8124 50.5353 36.5003 50.3962 36.2152C49.4758 34.4223 48.6476 31.4443 51.0319 29.8663C49.1292 28.8456 47.0365 28.228 44.8845 28.0522C42.7325 27.8764 40.5673 28.1461 38.5242 28.8445C38.9382 29.4517 41.8185 33.4284 42.3127 34.1303C42.7075 34.6965 42.868 35.3935 42.7607 36.0753C42.6534 36.7572 42.2867 37.3712 41.7372 37.7889L40.5848 38.6674C40.149 38.9956 39.6239 39.1839 39.0788 39.2073C38.5338 39.2307 37.9944 39.0882 37.5321 38.7986C37.3376 38.6767 37.1178 38.6011 36.8895 38.5776C36.6612 38.5542 36.4305 38.5835 36.2153 38.6632C36.0002 38.743 35.8062 38.8712 35.6484 39.0378C35.4905 39.2044 35.3731 39.4051 35.3051 39.6243L35.1746 40.0754C34.9938 40.6697 34.6128 41.1832 34.0964 41.5285C33.58 41.8738 32.96 42.0297 32.3417 41.9697L29.3242 41.643L28.1427 41.5186C28.0471 42.2072 27.9994 42.9016 28 43.5968C28.0003 44.7742 28.1339 45.9478 28.3983 47.0952L29.6095 47.0417L32.6392 46.9227C34.0416 46.9192 35.4006 47.4094 36.4777 48.3075C37.5549 49.2056 38.2815 50.4543 38.5302 51.8345C38.5329 52.1681 38.649 52.4909 38.8594 52.7499C39.0698 53.0088 39.362 53.1885 39.6881 53.2594C40.2003 53.3493 40.6724 53.5948 41.0401 53.9626C41.4078 54.3303 41.6534 54.8024 41.7432 55.3146L42.2065 57.9514L42.4202 59.1633C44.6434 59.3373 46.878 59.0294 48.9712 58.2605C47.9933 56.7373 47.3014 55.0488 46.9282 53.2777ZM56.6497 48.8589H53.0919C52.6237 49.662 51.9752 50.3452 51.1976 50.8546C51.292 52.2332 51.6662 53.5781 52.2972 54.8074C52.9283 56.0367 53.8032 57.1246 54.8684 58.0049C55.9351 57.1256 56.8113 56.038 57.4434 54.8086C58.0755 53.5792 58.4502 52.2337 58.5446 50.8546C57.7656 50.3469 57.1161 49.6633 56.6497 48.8589Z" fill="#006838"/>
</svg>
