<svg width="89" height="89" viewBox="0 0 89 89" fill="none" xmlns="http://www.w3.org/2000/svg">
<path opacity="0.2" d="M82.1859 50.6321C85.514 29.8773 71.3868 10.3542 50.632 7.02614C29.8772 3.69804 10.3542 17.8252 7.02605 38.58C3.69796 59.3348 17.8251 78.8579 38.5799 82.186C59.3347 85.5141 78.8578 71.3869 82.1859 50.6321Z" stroke="#006838" stroke-width="12.18" stroke-miterlimit="10"/>
<path opacity="0.2" d="M82.663 44.5993C82.663 52.1269 80.4308 59.4854 76.2487 65.7443C72.0666 72.0033 66.1225 76.8815 59.1679 79.7622C52.2134 82.6428 44.5608 83.3966 37.1779 81.928C29.7949 80.4595 23.0133 76.8346 17.6905 71.5118C12.3677 66.189 8.74285 59.4074 7.2743 52.0244C5.80574 44.6415 6.55946 36.9889 9.44013 30.0344C12.3208 23.0798 17.199 17.1357 23.458 12.9536C29.7169 8.7715 37.0754 6.53931 44.603 6.53931" stroke="#006838" stroke-width="12.18" stroke-miterlimit="10"/>
<path opacity="0.2" d="M44.603 82.6693C34.5088 82.6693 24.8281 78.6594 17.6905 71.5218C10.5528 64.3842 6.54297 54.7035 6.54297 44.6093C6.54297 34.5152 10.5528 24.8345 17.6905 17.6968C24.8281 10.5592 34.5088 6.54932 44.603 6.54932" stroke="#006838" stroke-width="12.18" stroke-miterlimit="10"/>
<path opacity="0.4" d="M15.4332 69.0493C10.78 63.4982 7.80741 56.7344 6.86473 49.5525C5.92204 42.3706 7.04837 35.0689 10.1114 28.5049C13.1745 21.9409 18.047 16.3873 24.1568 12.4964C30.2665 8.6055 37.3597 6.53889 44.6032 6.53931" stroke="#006838" stroke-width="12.18" stroke-miterlimit="10"/>
<g clip-path="url(#clip0_1617_8184)">
<path d="M41.4705 30H43.2352V33.5294H41.4705V30ZM44.9961 33.6234L47.4914 31.1281L48.739 32.3757L46.2437 34.871L44.9961 33.6234ZM35.9632 32.3747L37.2109 31.1271L39.7062 33.6224L38.4585 34.87L35.9632 32.3747ZM55.9536 46.9161C55.2646 46.2271 54.1477 46.2269 53.4584 46.9156L54.0819 46.2921C54.7711 45.603 54.7711 44.4856 54.0819 43.7965C53.3929 43.1074 52.2758 43.1073 51.5867 43.796L52.2102 43.1725C52.8993 42.4834 52.8993 41.366 52.2102 40.6768C51.5212 39.9878 50.4042 39.9876 49.715 40.6763L54.7058 35.6855C55.3949 34.9964 55.3949 33.8791 54.7058 33.1899C54.0166 32.5006 52.8992 32.5006 52.2101 33.1899L41.0163 44.4021C41.0163 44.4021 37.3559 38.0797 34.1532 41.2825L33.5293 41.9064L35.609 43.9861C37.5616 45.9387 37.5616 49.1046 35.609 51.0572L34.7771 51.8891L42.8881 60L44.7598 58.1282L47.9694 56.7528C48.7342 56.425 49.4295 55.9542 50.0179 55.3658L55.9536 49.4118C56.6428 48.7226 56.6428 47.6053 55.9536 46.9161Z" fill="#006838"/>
</g>
<defs>
<clipPath id="clip0_1617_8184">
<rect width="30" height="30" fill="white" transform="translate(30 30)"/>
</clipPath>
</defs>
</svg>
