<svg width="257" height="32" viewBox="0 0 257 32" fill="none" xmlns="http://www.w3.org/2000/svg">
<path d="M26.043 31.4696H16.3424L8.73926 18.2099V31.4696H0V0.530385H8.73926V12.9061L15.9054 0.530385H25.606L16.5172 15.558L26.043 31.4696Z" fill="#20836D"/>
<path d="M38.7036 32C35.9071 32 33.5038 31.337 31.4938 30.011C29.5129 28.6556 28.1291 26.7993 27.3426 24.442L29.9644 22.895C30.5179 24.8103 31.5374 26.3131 33.0231 27.4033C34.5088 28.4641 36.4169 28.9945 38.7473 28.9945C41.0195 28.9945 42.782 28.4936 44.0346 27.4917C45.3163 26.4604 45.9572 25.105 45.9572 23.4254C45.9572 21.8048 45.3746 20.582 44.2094 19.7569C43.0441 18.9319 41.1215 18.0773 38.4415 17.1934C35.2662 16.1326 33.1688 15.2781 32.1492 14.6298C29.8187 13.2155 28.6535 11.1676 28.6535 8.48619C28.6535 5.86372 29.5565 3.8011 31.3627 2.29834C33.1688 0.766114 35.3973 0 38.0482 0C40.4369 0 42.5052 0.633517 44.2531 1.90055C46.0009 3.13812 47.2972 4.72928 48.142 6.67403L45.564 8.1326C44.1657 4.71455 41.6604 3.00552 38.0482 3.00552C36.1547 3.00552 34.6253 3.47698 33.4601 4.41989C32.2948 5.3628 31.7122 6.67403 31.7122 8.35359C31.7122 9.88582 32.2366 11.035 33.2853 11.8011C34.334 12.5672 36.0673 13.3481 38.4852 14.1436C39.5921 14.5267 40.3787 14.8066 40.8448 14.9834C41.34 15.1308 42.0391 15.3959 42.9422 15.779C43.8744 16.1326 44.5589 16.4567 44.9959 16.7514C45.4329 17.0166 45.9572 17.3996 46.569 17.9006C47.2098 18.372 47.6614 18.8582 47.9236 19.3591C48.2149 19.8306 48.4625 20.4199 48.6664 21.1271C48.8994 21.8048 49.016 22.5414 49.016 23.337C49.016 25.9595 48.0692 28.0663 46.1757 29.6575C44.2822 31.2192 41.7915 32 38.7036 32Z" fill="#20836D"/>
<path d="M79.3538 27.3591C76.2951 30.453 72.5518 32 68.1239 32C63.696 32 59.9527 30.453 56.8939 27.3591C53.8352 24.2357 52.3058 20.4494 52.3058 16C52.3058 11.5506 53.8352 7.779 56.8939 4.68508C59.9527 1.56169 63.696 0 68.1239 0C72.5518 0 76.2951 1.56169 79.3538 4.68508C82.4126 7.779 83.9419 11.5506 83.9419 16C83.9419 20.4494 82.4126 24.2357 79.3538 27.3591ZM59.035 25.2376C61.482 27.7422 64.5116 28.9945 68.1239 28.9945C71.7361 28.9945 74.7657 27.7422 77.2127 25.2376C79.6597 22.7035 80.8832 19.6243 80.8832 16C80.8832 12.3757 79.6597 9.31123 77.2127 6.80663C74.7657 4.27256 71.7361 3.00552 68.1239 3.00552C64.5116 3.00552 61.482 4.27256 59.035 6.80663C56.5881 9.31123 55.3646 12.3757 55.3646 16C55.3646 19.6243 56.5881 22.7035 59.035 25.2376Z" fill="#20836D"/>
<path d="M92.2316 28.5525H106.214V31.4696H89.1728V0.530385H92.2316V28.5525Z" fill="#20836D"/>
<path d="M129.307 28.9945C127.209 30.9982 124.471 32 121.092 32C117.712 32 114.974 30.9982 112.877 28.9945C110.779 26.9908 109.731 24.3094 109.731 20.9503V0.530385H112.789V20.9503C112.789 23.4254 113.518 25.3849 114.974 26.8287C116.431 28.2726 118.47 28.9945 121.092 28.9945C123.713 28.9945 125.753 28.2726 127.209 26.8287C128.666 25.3849 129.394 23.4254 129.394 20.9503V0.530385H132.453V20.9503C132.453 24.3094 131.404 26.9908 129.307 28.9945Z" fill="#20836D"/>
<path d="M158.24 0.530385V3.44751H148.846V31.4696H145.787V3.44751H136.392V0.530385H158.24Z" fill="#20836D"/>
<path d="M162.612 0.530385H165.67V31.4696H162.612V0.530385Z" fill="#20836D"/>
<path d="M197.982 27.3591C194.924 30.453 191.18 32 186.752 32C182.325 32 178.581 30.453 175.522 27.3591C172.464 24.2357 170.934 20.4494 170.934 16C170.934 11.5506 172.464 7.779 175.522 4.68508C178.581 1.56169 182.325 0 186.752 0C191.18 0 194.924 1.56169 197.982 4.68508C201.041 7.779 202.57 11.5506 202.57 16C202.57 20.4494 201.041 24.2357 197.982 27.3591ZM177.664 25.2376C180.111 27.7422 183.14 28.9945 186.752 28.9945C190.365 28.9945 193.394 27.7422 195.841 25.2376C198.288 22.7035 199.512 19.6243 199.512 16C199.512 12.3757 198.288 9.31123 195.841 6.80663C193.394 4.27256 190.365 3.00552 186.752 3.00552C183.14 3.00552 180.111 4.27256 177.664 6.80663C175.217 9.31123 173.993 12.3757 173.993 16C173.993 19.6243 175.217 22.7035 177.664 25.2376Z" fill="#20836D"/>
<path d="M227.465 0.530385H230.523V31.4696H227.902L210.86 6.27624V31.4696H207.801V0.530385H210.423L227.465 25.7238V0.530385Z" fill="#20836D"/>
<path d="M246.688 32C243.891 32 241.488 31.337 239.478 30.011C237.497 28.6556 236.113 26.7993 235.327 24.442L237.948 22.895C238.502 24.8103 239.521 26.3131 241.007 27.4033C242.493 28.4641 244.401 28.9945 246.731 28.9945C249.004 28.9945 250.766 28.4936 252.019 27.4917C253.3 26.4604 253.941 25.105 253.941 23.4254C253.941 21.8048 253.359 20.582 252.193 19.7569C251.028 18.9319 249.106 18.0773 246.426 17.1934C243.25 16.1326 241.153 15.2781 240.133 14.6298C237.803 13.2155 236.638 11.1676 236.638 8.48619C236.638 5.86372 237.541 3.8011 239.347 2.29834C241.153 0.766114 243.381 0 246.032 0C248.421 0 250.489 0.633517 252.237 1.90055C253.985 3.13812 255.281 4.72928 256.126 6.67403L253.548 8.1326C252.15 4.71455 249.644 3.00552 246.032 3.00552C244.139 3.00552 242.609 3.47698 241.444 4.41989C240.279 5.3628 239.696 6.67403 239.696 8.35359C239.696 9.88582 240.221 11.035 241.269 11.8011C242.318 12.5672 244.051 13.3481 246.469 14.1436C247.576 14.5267 248.363 14.8066 248.829 14.9834C249.324 15.1308 250.023 15.3959 250.926 15.779C251.858 16.1326 252.543 16.4567 252.98 16.7514C253.417 17.0166 253.941 17.3996 254.553 17.9006C255.194 18.372 255.645 18.8582 255.908 19.3591C256.199 19.8306 256.447 20.4199 256.65 21.1271C256.883 21.8048 257 22.5414 257 23.337C257 25.9595 256.053 28.0663 254.16 29.6575C252.266 31.2192 249.776 32 246.688 32Z" fill="#20836D"/>
</svg>
