<svg width="17" height="20" viewBox="0 0 17 20" fill="none" xmlns="http://www.w3.org/2000/svg">
<path d="M8.41216 9.63406C9.73567 9.63406 10.8818 9.15934 11.8182 8.22274C12.7546 7.28634 13.2293 6.14056 13.2293 4.8169C13.2293 3.49362 12.7546 2.34773 11.818 1.41097C10.8814 0.474686 9.73551 0 8.41216 0C7.08845 0 5.94264 0.474686 5.00623 1.41113C4.06983 2.34757 3.59495 3.4935 3.59495 4.8169C3.59495 6.14056 4.06979 7.2865 5.00639 8.22294C5.94299 9.15922 7.08892 9.63406 8.41216 9.63406ZM16.8409 15.379C16.8139 14.9893 16.7593 14.5641 16.6788 14.1153C16.5977 13.663 16.4932 13.2354 16.368 12.8446C16.2388 12.4407 16.063 12.0419 15.8458 11.6596C15.6202 11.2629 15.3553 10.9175 15.0581 10.6332C14.7473 10.3358 14.3667 10.0967 13.9266 9.92227C13.4881 9.74883 13.0021 9.66094 12.4823 9.66094C12.2781 9.66094 12.0807 9.74469 11.6993 9.99297C11.4283 10.1695 11.1564 10.3447 10.8837 10.5187C10.6218 10.6857 10.2668 10.8421 9.82844 10.9837C9.40075 11.1221 8.96649 11.1923 8.53786 11.1923C8.10927 11.1923 7.67513 11.1221 7.24697 10.9837C6.80908 10.8422 6.45416 10.6859 6.19244 10.5189C5.88893 10.325 5.61432 10.148 5.37612 9.99277C4.99526 9.74453 4.79764 9.66074 4.5935 9.66074C4.07346 9.66074 3.58765 9.74879 3.14925 9.92246C2.70949 10.0966 2.32878 10.3357 2.01765 10.6334C1.72058 10.9178 1.45555 11.263 1.23031 11.6596C1.0132 12.0419 0.837423 12.4406 0.708009 12.8448C0.58301 13.2356 0.478518 13.663 0.397347 14.1153C0.316917 14.5635 0.262308 14.9888 0.235277 15.3794C0.208387 15.7725 0.195059 16.1664 0.195316 16.5604C0.195316 17.6045 0.52719 18.4496 1.18164 19.0729C1.828 19.6881 2.68324 20.0001 3.72327 20.0001H13.3534C14.3934 20.0001 15.2483 19.6882 15.8949 19.073C16.5495 18.4501 16.8813 17.6048 16.8813 16.5603C16.8812 16.1573 16.8676 15.7598 16.8409 15.379Z" fill="currentColor"/>
</svg>
