<svg width="16" height="20" viewBox="0 0 16 20" fill="none" xmlns="http://www.w3.org/2000/svg">
<path d="M15.0833 7.5H13.8333V5.83332C13.8333 2.6168 11.2166 0 8 0C4.78344 0 2.16668 2.6168 2.16668 5.83332V7.5H0.91668C0.86195 7.49996 0.807751 7.51072 0.757181 7.53164C0.706611 7.55257 0.660662 7.58326 0.621963 7.62196C0.583263 7.66066 0.552572 7.70661 0.531645 7.75718C0.510717 7.80775 0.499964 7.86195 0.5 7.91668V18.3334C0.5 19.2525 1.24746 20 2.16668 20H13.8334C14.7525 20 15.5 19.2525 15.5 18.3333V7.91668C15.5 7.86195 15.4893 7.80775 15.4684 7.75718C15.4474 7.70661 15.4167 7.66066 15.378 7.62196C15.3393 7.58326 15.2934 7.55257 15.2428 7.53164C15.1922 7.51072 15.1381 7.49996 15.0833 7.5ZM9.24758 16.204C9.25403 16.2623 9.24812 16.3212 9.23024 16.377C9.21237 16.4328 9.18293 16.4842 9.14384 16.5279C9.10475 16.5716 9.0569 16.6065 9.0034 16.6304C8.9499 16.6543 8.89196 16.6667 8.83336 16.6667H7.16668C7.10808 16.6667 7.05014 16.6543 6.99664 16.6304C6.94314 16.6065 6.89529 16.5716 6.8562 16.5279C6.81711 16.4842 6.78767 16.4328 6.7698 16.377C6.75192 16.3212 6.74601 16.2623 6.75246 16.204L7.01531 13.8404C6.58848 13.5299 6.33336 13.0387 6.33336 12.5C6.33336 11.5808 7.08082 10.8333 8.00004 10.8333C8.91926 10.8333 9.66672 11.5808 9.66672 12.5C9.66672 13.0387 9.4116 13.5299 8.98477 13.8404L9.24758 16.204ZM11.3333 7.5H4.66668V5.83332C4.66668 3.99535 6.16203 2.5 8 2.5C9.83797 2.5 11.3333 3.99535 11.3333 5.83332V7.5Z" fill="currentColor"/>
</svg>
