<svg width="20" height="20" viewBox="0 0 20 20" fill="none" xmlns="http://www.w3.org/2000/svg">
<path fill-rule="evenodd" clip-rule="evenodd" d="M16.488 10.8062V12.2792C16.2396 12.1907 15.9721 12.1424 15.6933 12.1424C15.4145 12.1424 15.147 12.1907 14.8986 12.2792V10.8062H16.488ZM17.4183 8.9427L10.3123 4.80898V3.17566H13.0743L12.3464 2.1134L13.0743 1.05113H10.3123V0.585938C10.3123 0.503057 10.2794 0.423572 10.2208 0.364967C10.1622 0.306362 10.0827 0.273438 9.99984 0.273438C9.91696 0.273438 9.83748 0.306362 9.77887 0.364967C9.72027 0.423572 9.68734 0.503057 9.68734 0.585938V4.80898L2.5814 8.9427H17.4183ZM9.99984 5.77965C10.555 5.77965 11.0052 6.22973 11.0052 6.78496C11.0052 7.3402 10.5551 7.79023 9.99984 7.79023C9.44461 7.79023 8.99453 7.34016 8.99453 6.78492C8.99453 6.22969 9.44465 5.77965 9.99984 5.77965ZM7.03566 19.7266H12.9641C13.0237 19.7268 13.0826 19.7133 13.1362 19.6872C13.1898 19.6611 13.2367 19.623 13.2733 19.5759C13.3099 19.5288 13.3351 19.4739 13.3471 19.4155C13.3591 19.3571 13.3576 19.2967 13.3425 19.239C12.9608 17.7489 11.609 16.6473 9.99988 16.6473C8.3907 16.6473 7.03894 17.7489 6.65723 19.239C6.59359 19.4874 6.77926 19.7266 7.03566 19.7266ZM15.6933 12.7674C16.6568 12.7674 17.4379 13.5485 17.4379 14.512C17.4379 15.4755 16.6568 16.2566 15.6933 16.2566C14.7298 16.2566 13.9487 15.4755 13.9487 14.512C13.9487 13.5485 14.7298 12.7674 15.6933 12.7674ZM4.3064 12.7674C5.26992 12.7674 6.05101 13.5485 6.05101 14.512C6.05101 15.4755 5.26992 16.2566 4.3064 16.2566C3.34289 16.2566 2.5618 15.4755 2.5618 14.512C2.5618 13.5485 3.34289 12.7674 4.3064 12.7674ZM9.99988 12.7674C10.9634 12.7674 11.7445 13.5485 11.7445 14.512C11.7445 15.4755 10.9634 16.2566 9.99988 16.2566C9.03637 16.2566 8.25527 15.4755 8.25527 14.512C8.25527 13.5485 9.03637 12.7674 9.99988 12.7674ZM13.9007 19.7266C13.9866 19.5233 14.0032 19.2975 13.948 19.0839C13.8155 18.5657 13.5818 18.0788 13.2603 17.6513C13.8841 17.0309 14.7439 16.6473 15.6933 16.6473C17.3025 16.6473 18.6542 17.7489 19.036 19.239C19.0996 19.4873 18.9139 19.7266 18.6575 19.7266H13.9007ZM1.34219 19.7266C1.28255 19.7268 1.22365 19.7134 1.17004 19.6872C1.11642 19.6611 1.06953 19.623 1.03296 19.5759C0.996393 19.5288 0.971136 19.4739 0.959136 19.4155C0.947137 19.3571 0.948714 19.2967 0.963748 19.239C1.34547 17.7488 2.69726 16.6473 4.3064 16.6473C5.25582 16.6473 6.11562 17.0308 6.73945 17.6513C6.41802 18.0788 6.18431 18.5657 6.05176 19.0839C5.9965 19.2974 6.01309 19.5233 6.09898 19.7265L1.34219 19.7266ZM17.9555 9.5677V9.83609C17.9555 10.0261 17.8004 10.1812 17.6104 10.1812H2.3893C2.1993 10.1812 2.04422 10.0261 2.04422 9.83609V9.5677H17.9555ZM5.10117 10.8062V12.2792C4.85273 12.1907 4.58523 12.1424 4.30644 12.1424C4.02765 12.1424 3.76015 12.1907 3.51168 12.2792V10.8062H5.10117ZM10.7946 10.8062V12.2792C10.5462 12.1907 10.2787 12.1424 9.99988 12.1424C9.72109 12.1424 9.45359 12.1907 9.20508 12.2792V10.8062H10.7946Z" fill="currentColor"/>
</svg>
