<svg width="23" height="21" viewBox="0 0 23 21" fill="none" xmlns="http://www.w3.org/2000/svg">
<path d="M22.0997 19.2121H1.74243V0.916623C1.74243 0.435421 1.35242 0.0454102 0.871213 0.0454102C0.390011 0.0454102 0 0.435421 0 0.916623V20.0833C0 20.5645 0.390011 20.9545 0.871213 20.9545H22.0997C22.5809 20.9545 22.9709 20.5645 22.9709 20.0833C22.9709 19.6021 22.5809 19.2121 22.0997 19.2121ZM22.1287 2.33961H15.5947C15.1135 2.33961 14.7235 2.72962 14.7235 3.21082C14.7235 3.69203 15.1135 4.08204 15.5947 4.08204H21.2576V9.74519C21.2576 10.2261 21.6476 10.6164 22.1288 10.6164C22.61 10.6164 23 10.2261 23 9.74488V3.21082C23 2.72962 22.6099 2.33961 22.1287 2.33961Z" fill="currentColor"/>
</svg>
