<svg width="22" height="19" viewBox="0 0 22 19" fill="none" xmlns="http://www.w3.org/2000/svg">
    <g clip-path="url(#clip0_1128_16223)">
        <path d="M11.215 11.8218C10.8008 11.8218 10.465 11.4861 10.465 11.0718C10.465 10.6576 10.8008 10.3218 11.215 10.3218C11.6292 10.3218 11.965 10.6576 11.965 11.0718C11.965 11.4861 11.6292 11.8218 11.215 11.8218Z" fill="#494949"/>
        <path fill-rule="evenodd" clip-rule="evenodd" d="M7.4648 0.571289C7.05059 0.571289 6.7148 0.907076 6.7148 1.32129V3.57129H1.88151C1.23716 3.57129 0.714822 4.09365 0.714844 4.738L0.714967 8.46594L8.96497 10.3033V9.5714C8.96497 9.15719 9.30075 8.8214 9.71497 8.8214H12.715C13.1292 8.8214 13.465 9.15719 13.465 9.5714V10.3033L21.7148 8.46598V4.73796C21.7148 4.09363 21.1925 3.57129 20.5482 3.57129H15.7148V1.32129C15.7148 0.907076 15.3791 0.571289 14.9648 0.571289H7.4648ZM8.2148 2.07129V3.57129H14.2148V2.07129H8.2148Z" fill="currentColor"/>
        <path d="M0.714844 9.57178V17.405C0.714844 18.0493 1.23718 18.5716 1.88151 18.5716H20.5482C21.1925 18.5716 21.7148 18.0493 21.7148 17.405V9.58747C21.7076 9.93827 21.4575 10.2381 21.1121 10.3072L13.6121 11.8072C13.5627 11.8171 13.5135 11.8218 13.465 11.8219V12.5717C13.465 12.986 13.1292 13.3217 12.715 13.3217H9.71501C9.30079 13.3217 8.96501 12.986 8.96501 12.5717V11.8219C8.9165 11.8218 8.86729 11.8171 8.81792 11.8072L1.31792 10.3072C0.967351 10.2371 0.714844 9.92929 0.714844 9.57178Z" fill="currentColor"/>
    </g>
    <defs>
        <clipPath id="clip0_1128_16223">
            <rect width="22" height="19" fill="white"/>
        </clipPath>
    </defs>
</svg>
