<svg width="20" height="20" viewBox="0 0 18 18" fill="none" xmlns="http://www.w3.org/2000/svg">
    <path fill-rule="evenodd" clip-rule="evenodd" d="M4.41655 2.14038C5.77325 1.23385 7.36831 0.75 9 0.75C9.41422 0.75 9.75 1.08579 9.75 1.5V8.25H16.5C16.9142 8.25 17.25 8.5858 17.25 9C17.25 10.6317 16.7662 12.2267 15.8596 13.5835C14.9531 14.9402 13.6646 15.9976 12.1571 16.622C10.6497 17.2464 8.99085 17.4098 7.39051 17.0915C5.79017 16.7732 4.32016 15.9874 3.16637 14.8336C2.01259 13.6798 1.22685 12.2098 0.908525 10.6095C0.590197 9.0092 0.753575 7.35035 1.378 5.84286C2.00242 4.33537 3.05984 3.0469 4.41655 2.14038Z" fill="currentColor"/>
</svg>
