<svg width="17" height="18" viewBox="0 0 17 18" fill="none" xmlns="http://www.w3.org/2000/svg">
<path d="M10.1393 10.6393C8.80357 12.0175 8.70643 13.7357 8.59107 17.5C12.1004 17.5 14.5229 17.4879 15.7736 16.2736C16.9879 15.0229 17 12.485 17 9.09107C13.2357 9.2125 11.5175 9.30357 10.1393 10.6393ZM0 9.09107C0 12.485 0.0121428 15.0229 1.22643 16.2736C2.47714 17.4879 4.89964 17.5 8.40893 17.5C8.2875 13.7357 8.19643 12.0175 6.86071 10.6393C5.4825 9.30357 3.76429 9.20643 0 9.09107ZM8.40893 0.5C4.90571 0.5 2.47714 0.512143 1.22643 1.72643C0.0121428 2.97714 0 5.515 0 8.90893C3.76429 8.7875 5.4825 8.69643 6.86071 7.36071C8.19643 5.9825 8.29357 4.26429 8.40893 0.5ZM10.1393 7.36071C8.80357 5.9825 8.70643 4.26429 8.59107 0.5C12.1004 0.5 14.5229 0.512143 15.7736 1.72643C16.9879 2.97714 17 5.515 17 8.90893C13.2357 8.7875 11.5175 8.69643 10.1393 7.36071Z" fill="#444444"/>
</svg>
