<svg width="11" height="20" viewBox="0 0 11 20" fill="none" xmlns="http://www.w3.org/2000/svg">
<path fill-rule="evenodd" clip-rule="evenodd" d="M10.5262 0.0675708L7.59528 0.00105907C7.02407 -0.0116571 6.45611 0.0902493 5.92496 0.300753C5.3938 0.511257 4.91022 0.826097 4.5028 1.22666C4.09137 1.6244 3.76478 2.10137 3.54271 2.62878C3.32065 3.15619 3.2077 3.72312 3.21071 4.29537V7.06957H0.469764C0.41559 7.06957 0.363639 7.09109 0.325332 7.1294C0.287025 7.16771 0.265503 7.21966 0.265503 7.27383V10.7653C0.265495 10.7919 0.270808 10.8183 0.281131 10.8428C0.291453 10.8673 0.306574 10.8895 0.325607 10.9081C0.34464 10.9267 0.367202 10.9413 0.391959 10.9511C0.416717 10.9608 0.443167 10.9655 0.469764 10.9649H3.19172V19.7957C3.19172 19.8499 3.21324 19.9019 3.25154 19.9402C3.28985 19.9785 3.3418 20 3.39598 20H6.99673C7.0509 20 7.10287 19.9785 7.14118 19.9402C7.17948 19.9019 7.20101 19.8499 7.20101 19.7957V10.9649H9.97045C10.02 10.9653 10.0681 10.9478 10.1057 10.9154C10.1433 10.8831 10.1678 10.8382 10.1747 10.7891L10.626 7.29759C10.6303 7.26957 10.6282 7.24095 10.62 7.21383C10.6118 7.1867 10.5976 7.16175 10.5785 7.14082C10.5595 7.11908 10.5361 7.10154 10.5099 7.08927C10.4838 7.07701 10.4554 7.07029 10.4265 7.06957H7.22951V5.3072C7.18481 4.8274 7.31654 4.34776 7.60003 3.9581C7.71061 3.84328 7.84467 3.7537 7.99307 3.69549C8.14147 3.63728 8.30069 3.61182 8.45984 3.62083H10.531C10.5576 3.62147 10.584 3.61677 10.6088 3.60703C10.6336 3.59729 10.6561 3.58268 10.6751 3.56409C10.6942 3.5455 10.7093 3.5233 10.7196 3.49878C10.7299 3.47426 10.7353 3.44792 10.7352 3.42131V0.271832C10.7359 0.244415 10.731 0.217159 10.7206 0.191751C10.7103 0.166344 10.6949 0.143335 10.6752 0.124167C10.6556 0.104998 10.6323 0.0900801 10.6066 0.0803426C10.581 0.070605 10.5536 0.0662563 10.5262 0.0675708Z" fill="#444444"/>
</svg>
