<svg width="19" height="19" viewBox="0 0 19 19" fill="none" xmlns="http://www.w3.org/2000/svg">
<path fill-rule="evenodd" clip-rule="evenodd" d="M13.0068 0H5.27328C3.87938 0.00251155 2.54328 0.557337 1.55764 1.54298C0.572 2.52862 0.01716 3.86472 0.0146484 5.25862V12.9922C0.01716 14.3861 0.572 15.7222 1.55764 16.7078C2.54328 17.6935 3.87938 18.2483 5.27328 18.2508H13.0068C14.4007 18.2483 15.7368 17.6935 16.7225 16.7078C17.7081 15.7222 18.263 14.3861 18.2655 12.9922V5.25862C18.263 3.86472 17.7081 2.52862 16.7225 1.54298C15.7368 0.557337 14.4007 0.00251155 13.0068 0V0ZM16.4033 12.9922C16.4021 13.8926 16.0438 14.7558 15.4071 15.3925C14.7704 16.0292 13.9073 16.3874 13.0068 16.3887H5.27328C4.37286 16.3874 3.50967 16.0292 2.87298 15.3925C2.23629 14.7558 1.87804 13.8926 1.87678 12.9922V5.25862C1.87804 4.3582 2.23629 3.49502 2.87298 2.85832C3.50967 2.22163 4.37286 1.86338 5.27328 1.86213H13.0068C13.9073 1.86338 14.7704 2.22163 15.4071 2.85832C16.0438 3.49502 16.4021 4.3582 16.4033 5.25862V12.9922Z" fill="#444444"/>
<path fill-rule="evenodd" clip-rule="evenodd" d="M9.14002 4.8877C8.30196 4.8877 7.48272 5.13621 6.7859 5.60181C6.08908 6.06741 5.54597 6.72919 5.22526 7.50346C4.90455 8.27772 4.82063 9.12971 4.98413 9.95166C5.14763 10.7736 5.55119 11.5286 6.14379 12.1212C6.73639 12.7138 7.4914 13.1174 8.31336 13.2809C9.13531 13.4444 9.9873 13.3605 10.7616 13.0398C11.5358 12.7191 12.1976 12.176 12.6632 11.4791C13.1288 10.7823 13.3773 9.96307 13.3773 9.12501C13.3761 8.00159 12.9292 6.92454 12.1349 6.13017C11.3405 5.33579 10.2634 4.88895 9.14002 4.8877ZM9.14002 11.4147C8.68717 11.4147 8.24448 11.2804 7.86795 11.0288C7.49141 10.7772 7.19794 10.4196 7.02464 10.0012C6.85134 9.58283 6.806 9.12247 6.89435 8.67831C6.9827 8.23416 7.20076 7.82618 7.52098 7.50597C7.84119 7.18575 8.24918 6.96768 8.69333 6.87934C9.13748 6.79099 9.59785 6.83634 10.0162 7.00964C10.4346 7.18293 10.7922 7.4764 11.0438 7.85293C11.2954 8.22947 11.4297 8.67215 11.4297 9.12501C11.4297 9.73226 11.1885 10.3146 10.7591 10.744C10.3297 11.1734 9.74728 11.4147 9.14002 11.4147V11.4147Z" fill="#444444"/>
<path fill-rule="evenodd" clip-rule="evenodd" d="M13.8903 3.04933C13.6411 3.04839 13.3973 3.12142 13.1896 3.25917C12.982 3.39692 12.8199 3.59319 12.7239 3.82313C12.6279 4.05306 12.6023 4.30632 12.6503 4.55083C12.6984 4.79533 12.8179 5.02008 12.9937 5.19661C13.1696 5.37313 13.3939 5.4935 13.6382 5.54246C13.8825 5.59142 14.1359 5.56676 14.3662 5.47163C14.5965 5.37649 14.7934 5.21515 14.9319 5.00803C15.0704 4.80091 15.1444 4.55734 15.1444 4.30816C15.1444 3.97512 15.0124 3.65565 14.7774 3.41971C14.5423 3.18376 14.2233 3.05058 13.8903 3.04933V3.04933Z" fill="#444444"/>
</svg>
