<svg width="17" height="18" viewBox="0 0 17 18" fill="none" xmlns="http://www.w3.org/2000/svg">
<path fill-rule="evenodd" clip-rule="evenodd" d="M1.88889 17.5H15.1111C16.1543 17.5 17 16.6543 17 15.6111V2.38889C17 1.34568 16.1543 0.5 15.1111 0.5H1.88889C0.845684 0.5 0 1.34568 0 2.38889V15.6111C0 16.6543 0.845684 17.5 1.88889 17.5Z" fill="#444444"/>
<path fill-rule="evenodd" clip-rule="evenodd" d="M14.6389 15.1389H12.1162V10.8421C12.1162 9.6641 11.6685 9.00576 10.7361 9.00576C9.72176 9.00576 9.1918 9.69086 9.1918 10.8421V15.1389H6.76062V6.95368H9.1918V8.05622C9.1918 8.05622 9.92279 6.70361 11.6597 6.70361C13.3959 6.70361 14.6389 7.76381 14.6389 9.95651V15.1389ZM3.86024 5.88189C3.03213 5.88189 2.36108 5.20559 2.36108 4.37149C2.36108 3.53739 3.03213 2.86108 3.86024 2.86108C4.68835 2.86108 5.35899 3.53739 5.35899 4.37149C5.35899 5.20559 4.68835 5.88189 3.86024 5.88189ZM2.60488 15.1389H5.13997V6.95368H2.60488V15.1389Z" fill="white"/>
</svg>
