<svg width="18" height="19" viewBox="0 0 18 19" fill="none" xmlns="http://www.w3.org/2000/svg">
<path fill-rule="evenodd" clip-rule="evenodd" d="M14.7871 0.190827L0.749874 8.29491C0.501607 8.43721 0.299512 8.64792 0.167693 8.90191C0.0358739 9.15589 -0.02011 9.44244 0.00642935 9.72736C0.0329687 10.0123 0.140906 10.2836 0.317366 10.5088C0.493826 10.7341 0.731364 10.9039 1.00164 10.9979L4.72591 12.2947L13.1483 5.69647L7.30534 13.1925V17.5533C7.30583 17.6555 7.33623 17.7552 7.39279 17.8402C7.44935 17.9253 7.5296 17.9919 7.6236 18.0318C7.7176 18.0717 7.82124 18.0832 7.92171 18.0649C8.02218 18.0466 8.11507 17.9992 8.1889 17.9286L10.3788 15.8337L13.172 18.3799C13.3788 18.5624 13.632 18.6842 13.9037 18.7319C14.1754 18.7795 14.4549 18.7512 14.7115 18.6499C14.9681 18.5487 15.1917 18.3785 15.3576 18.1581C15.5235 17.9378 15.6253 17.6759 15.6517 17.4013L17.0103 1.61118C17.0311 1.34122 16.9782 1.07068 16.8573 0.828393C16.7365 0.586108 16.5521 0.381157 16.324 0.235383C16.0958 0.0896093 15.8324 0.00847525 15.5617 0.000628629C15.2911 -0.007218 15.0234 0.0585171 14.7871 0.190827V0.190827Z" fill="#444444"/>
</svg>
