<svg width="56" height="56" viewBox="0 0 56 56" fill="none" xmlns="http://www.w3.org/2000/svg">
    <rect x="4" y="4" width="48" height="48" rx="24" fill="#C8FAD6"/>
    <rect x="4" y="4" width="48" height="48" rx="24" stroke="#006838" stroke-opacity="0.1" stroke-width="8"/>
    <path d="M17 25C16.4477 25 16 25.4477 16 26C16 26.5523 16.4477 27 17 27V25ZM39 27C39.5523 27 40 26.5523 40 26C40 25.4477 39.5523 25 39 25V27ZM19 21H37V19H19V21ZM37 21C37.5523 21 38 21.4477 38 22H40C40 20.3431 38.6569 19 37 19V21ZM38 22V34H40V22H38ZM38 34C38 34.5523 37.5523 35 37 35V37C38.6569 37 40 35.6569 40 34H38ZM37 35H19V37H37V35ZM19 35C18.4477 35 18 34.5523 18 34H16C16 35.6569 17.3431 37 19 37V35ZM18 34V22H16V34H18ZM18 22C18 21.4477 18.4477 21 19 21V19C17.3431 19 16 20.3431 16 22H18ZM17 27H39V25H17V27Z" fill="#006838"/>
</svg>
