<svg width="36" height="36" viewBox="0 0 36 36" fill="none" xmlns="http://www.w3.org/2000/svg">
<path d="M19.4566 10.6621C20.8713 10.8026 22.1732 11.4966 23.0785 12.5928C23.6099 13.2755 23.9135 14.1078 23.9465 14.9724C23.9465 15.3693 23.7888 15.75 23.5082 16.0307C23.2275 16.3113 22.8468 16.469 22.4499 16.469C22.0529 16.469 21.6723 16.3113 21.3916 16.0307C21.1109 15.75 20.9533 15.3693 20.9533 14.9724C20.9533 14.703 20.6839 13.4758 17.96 13.4758C15.2062 13.4758 14.9667 14.703 14.9667 14.9724C14.9667 15.2418 15.2062 16.469 17.96 16.469C22.6893 16.469 23.9465 19.4623 23.9465 20.9589C23.9465 22.4555 22.9587 24.7753 19.4566 25.329V26.9454C19.4566 27.3423 19.2989 27.723 19.0183 28.0037C18.7376 28.2843 18.3569 28.442 17.96 28.442C17.5631 28.442 17.1824 28.2843 16.9017 28.0037C16.6211 27.723 16.4634 27.3423 16.4634 26.9454V25.329C15.7587 25.2571 15.0754 25.0453 14.4535 24.7061C13.8316 24.3668 13.2836 23.907 12.8415 23.3535C12.3107 22.6647 12.0074 21.8278 11.9735 20.9589C11.9735 20.562 12.1312 20.1813 12.4118 19.9006C12.6925 19.6199 13.0732 19.4623 13.4701 19.4623C13.8671 19.4623 14.2477 19.6199 14.5284 19.9006C14.8091 20.1813 14.9667 20.562 14.9667 20.9589C14.9667 21.1684 15.2062 22.4555 17.96 22.4555C20.9533 22.4555 20.9533 20.9589 20.9533 20.9589C20.9533 20.9589 20.7138 19.4623 17.96 19.4623C13.2307 19.4623 11.9735 16.469 11.9735 14.9724C12.0065 14.1078 12.3101 13.2755 12.8415 12.5928C13.7468 11.4966 15.0487 10.8026 16.4634 10.6621V8.98588C16.4634 8.58895 16.6211 8.20828 16.9017 7.92761C17.1824 7.64694 17.5631 7.48926 17.96 7.48926C18.3569 7.48926 18.7376 7.64694 19.0183 7.92761C19.2989 8.20828 19.4566 8.58895 19.4566 8.98588V10.6621ZM24.8744 10.3628C25.0543 10.4395 25.2476 10.4801 25.4431 10.4825H31.4296C31.8266 10.4825 32.2072 10.3248 32.4879 10.0442C32.7686 9.76348 32.9263 9.38281 32.9263 8.98588C32.9263 8.58895 32.7686 8.20828 32.4879 7.92761C32.2072 7.64694 31.8266 7.48926 31.4296 7.48926H29.05L33.9889 2.56536C34.2707 2.28353 34.429 1.9013 34.429 1.50275C34.429 1.1042 34.2707 0.721966 33.9889 0.440145C33.7071 0.158325 33.3248 0 32.9263 0C32.5277 0 32.1455 0.158325 31.8637 0.440145L26.9398 5.37901V2.99938C26.9398 2.60245 26.7821 2.22177 26.5014 1.9411C26.2207 1.66043 25.8401 1.50275 25.4431 1.50275C25.0462 1.50275 24.6655 1.66043 24.3849 1.9411C24.1042 2.22177 23.9465 2.60245 23.9465 2.99938V8.98588C23.9489 9.18146 23.9895 9.37467 24.0662 9.5546C24.2181 9.9203 24.5087 10.2109 24.8744 10.3628ZM35.6202 14.703C35.5487 14.3061 35.3225 13.9538 34.9914 13.7236C34.6602 13.4935 34.2511 13.4043 33.8542 13.4758C33.4572 13.5472 33.105 13.7734 32.8748 14.1046C32.6447 14.4358 32.5555 14.8448 32.6269 15.2418C32.8029 16.1397 32.9031 17.0509 32.9263 17.9656C32.9263 20.9257 32.0485 23.8193 30.404 26.2805C28.7595 28.7416 26.4221 30.6599 23.6873 31.7927C20.9526 32.9254 17.9434 33.2218 15.0402 32.6443C12.1371 32.0669 9.47032 30.6415 7.37725 28.5484C5.28418 26.4553 3.85879 23.7886 3.28131 20.8854C2.70383 17.9822 3.00021 14.973 4.13298 12.2383C5.26574 9.50357 7.184 7.16616 9.64519 5.52165C12.1064 3.87713 15 2.99938 17.96 2.99938C18.4137 2.97661 18.8682 2.97661 19.3219 2.99938C19.7076 3.03781 20.0931 2.92514 20.3974 2.68508C20.7016 2.44502 20.9009 2.09629 20.9533 1.71228C20.9718 1.51559 20.9511 1.31718 20.8926 1.1285C20.834 0.939812 20.7387 0.76459 20.6121 0.612934C20.4855 0.461279 20.3301 0.336191 20.1549 0.244887C19.9797 0.153582 19.7882 0.0978672 19.5913 0.0809554H17.96C14.2681 0.0808563 10.6659 1.21855 7.64373 3.33915C4.6216 5.45975 2.32645 8.46021 1.07074 11.932C-0.184968 15.4038 -0.340206 19.1782 0.626163 22.7414C1.59253 26.3046 3.63355 29.4834 6.47132 31.845C9.3091 34.2066 12.8057 35.6363 16.4852 35.9394C20.1646 36.2424 23.8481 35.4042 27.0341 33.5388C30.22 31.6733 32.7537 28.8713 34.29 25.5143C35.8264 22.1573 36.2909 18.4083 35.6202 14.7778V14.703Z" fill="#006838"/>
</svg>
