<svg width="15" height="17" viewBox="0 0 15 17" fill="none" xmlns="http://www.w3.org/2000/svg">
<path d="M12.193 5.25894C12.1171 5.22385 12.0335 5.20831 11.95 5.21375C11.8665 5.21919 11.7857 5.24543 11.7149 5.29009C11.6443 5.33512 11.5861 5.39723 11.5459 5.47067C11.5056 5.54412 11.4844 5.62653 11.4844 5.71031V6.54102C11.4844 6.8158 11.2612 7.03906 10.9864 7.03906C10.7403 7.03906 10.5321 6.86202 10.4917 6.62127C10.0865 4.10962 8.24123 0 7.5 0C6.75877 0 4.91348 4.10962 4.5088 6.61835C4.46796 6.86202 4.25977 7.03906 4.01367 7.03906C3.73888 7.03906 3.51562 6.8158 3.51562 6.54102V5.71027C3.51562 5.54004 3.42857 5.3815 3.2851 5.29005C3.21433 5.2454 3.13351 5.21916 3.05001 5.21372C2.96651 5.20828 2.88297 5.22381 2.807 5.25891C1.11149 6.04978 0.0292969 9.49623 0.0292969 11.5215C0.0292969 14.7471 3.10125 17 7.5 17C11.8988 17 14.9707 14.7471 14.9707 11.5215C14.9707 9.49623 13.8885 6.04978 12.193 5.25894Z" fill="url(#paint0_linear_188_238)"/>
<path d="M9.91585 10.2636C9.87122 10.1913 9.80888 10.1317 9.73474 10.0904C9.6606 10.049 9.57711 10.0272 9.49221 10.0272H8.38717L7.98299 8.41244C7.9584 8.31371 7.90415 8.22489 7.82754 8.15793C7.75093 8.09097 7.65564 8.0491 7.55451 8.03794C7.34293 8.01606 7.1479 8.1245 7.0545 8.31031L5.06231 12.2947C4.98498 12.4489 4.99325 12.6322 5.08419 12.7791C5.17514 12.926 5.33518 13.0155 5.50783 13.0155H6.61286L7.01705 14.6303C7.04164 14.729 7.09589 14.8178 7.1725 14.8848C7.24911 14.9517 7.3444 14.9936 7.44553 15.0048C7.54671 15.0158 7.64885 14.9956 7.73823 14.9469C7.82761 14.8983 7.89995 14.8234 7.94554 14.7324L9.93773 10.748C9.97576 10.6721 9.99372 10.5878 9.98988 10.5029C9.98605 10.4181 9.96056 10.3357 9.91585 10.2636Z" fill="url(#paint1_linear_188_238)"/>
<defs>
<linearGradient id="paint0_linear_188_238" x1="7.5" y1="17" x2="7.5" y2="0" gradientUnits="userSpaceOnUse">
<stop stop-color="#006838"/>
<stop offset="1" stop-color="#00FF89"/>
</linearGradient>
<linearGradient id="paint1_linear_188_238" x1="7.50002" y1="15.0076" x2="7.50002" y2="8.03515" gradientUnits="userSpaceOnUse">
<stop stop-color="#9AFFC8"/>
<stop offset="1" stop-color="#CBDDFF"/>
</linearGradient>
</defs>
</svg>
