<svg width="27" height="37" viewBox="0 0 27 37" fill="none" xmlns="http://www.w3.org/2000/svg">
<path d="M13.3414 36.7915C12.3325 36.7915 11.476 36.4326 10.772 35.7147C10.068 34.9968 9.71603 34.1159 9.71603 33.0719H16.9675C16.9675 34.1159 16.6154 34.9968 15.9112 35.7147C15.207 36.4326 14.3504 36.7915 13.3414 36.7915ZM6.20498 30.3059V27.5646H20.4786V30.3059H6.20498ZM6.423 24.8422C4.46272 23.5644 2.90214 21.9662 1.74127 20.0475C0.580423 18.1288 0 15.9629 0 13.5498C0 9.9356 1.31862 6.8084 3.95586 4.16823C6.5931 1.52808 9.72071 0.208008 13.3387 0.208008C16.9567 0.208008 20.0871 1.52808 22.7298 4.16823C25.3726 6.8084 26.694 9.93559 26.694 13.5498C26.694 15.96 26.1208 18.1252 24.9745 20.0453C23.8281 21.9655 22.2568 23.5644 20.2605 24.8422H6.423ZM7.50014 21.8715H19.2301C20.6113 20.9498 21.7037 19.7578 22.5073 18.2953C23.311 16.8328 23.7128 15.2517 23.7128 13.5521C23.7128 10.7005 22.6968 8.26047 20.6648 6.23194C18.6328 4.20344 16.1918 3.18919 13.3418 3.18919C10.4917 3.18919 8.05072 4.20344 6.0187 6.23194C3.98671 8.26047 2.97072 10.7005 2.97072 13.5521C2.97072 15.2517 3.37421 16.8324 4.1812 18.294C4.98819 19.7557 6.0945 20.9482 7.50014 21.8715Z" fill="#006838"/>
</svg>
