<svg width="95" height="102" viewBox="0 0 95 102" fill="none" xmlns="http://www.w3.org/2000/svg">
<path d="M0.0145989 37.3295V0H16.1466C18.9204 0 21.3475 0.54682 23.4279 1.64046C25.5083 2.7341 27.1263 4.27127 28.2821 6.25197C29.4379 8.23267 30.0158 10.5475 30.0158 13.1966C30.0158 15.8699 29.4196 18.1848 28.2274 20.1412C27.0473 22.0976 25.3866 23.6044 23.2454 24.6615C21.1164 25.7187 18.6285 26.2473 15.7816 26.2473H6.14622V18.3731H13.7378C14.93 18.3731 15.9459 18.1665 16.7853 17.7534C17.6369 17.3281 18.2878 16.7266 18.7379 15.9489C19.2003 15.1712 19.4314 14.2538 19.4314 13.1966C19.4314 12.1272 19.2003 11.2159 18.7379 10.4625C18.2878 9.69693 17.6369 9.11365 16.7853 8.71265C15.9459 8.2995 14.93 8.09292 13.7378 8.09292H10.161V37.3295H0.0145989Z" fill="black"/>
<path d="M33.7385 37.3295V0H49.8705C52.6444 0 55.0715 0.504289 57.1518 1.51287C59.2322 2.52144 60.8503 3.97355 62.006 5.86919C63.1618 7.76483 63.7397 10.0372 63.7397 12.6862C63.7397 15.3595 63.1435 17.6137 61.9513 19.4485C60.7712 21.2834 59.1105 22.6687 56.9693 23.6044C54.8403 24.54 52.3524 25.0079 49.5056 25.0079H39.8701V17.1337H47.4617C48.6539 17.1337 49.6698 16.9879 50.5092 16.6962C51.3609 16.3924 52.0117 15.9124 52.4619 15.2563C52.9242 14.6001 53.1553 13.7434 53.1553 12.6862C53.1553 11.6169 52.9242 10.748 52.4619 10.0797C52.0117 9.39921 51.3609 8.901 50.5092 8.58506C49.6698 8.25697 48.6539 8.09292 47.4617 8.09292H43.8849V37.3295H33.7385ZM55.6372 20.1959L64.9806 37.3295H53.9583L44.8338 20.1959H55.6372Z" fill="black"/>
<path d="M68.0647 37.3295V0H95V8.16583H78.211V14.5818H93.6131V22.7477H78.211V29.1637H94.927V37.3295H68.0647Z" fill="black"/>
<path d="M3.41254 64.1601V101.49H0V64.1601H3.41254Z" fill="black"/>
<path d="M22.599 101.49V64.1601H34.6616C37.3137 64.1601 39.5279 64.6705 41.3041 65.6912C43.0925 66.6998 44.4369 68.0729 45.3371 69.8106C46.2496 71.5483 46.7058 73.5046 46.7058 75.6798C46.7058 77.8549 46.2557 79.8174 45.3554 81.5672C44.4551 83.3049 43.1169 84.6841 41.3406 85.7048C39.5644 86.7134 37.3563 87.2177 34.7163 87.2177H25.2269V84.1555H34.6251C36.5838 84.1555 38.2079 83.7909 39.4975 83.0618C40.7871 82.3206 41.7482 81.312 42.3808 80.0361C43.0256 78.7602 43.348 77.3081 43.348 75.6798C43.348 74.0515 43.0256 72.5994 42.3808 71.3234C41.7482 70.0475 40.781 69.045 39.4793 68.3159C38.1897 67.5868 36.5534 67.2223 34.5703 67.2223H26.0116V101.49H22.599Z" fill="black"/>
<path d="M94.6069 82.8249C94.6069 86.7134 93.9135 90.0976 92.5265 92.9775C91.1396 95.8453 89.2296 98.069 86.7964 99.6487C84.3754 101.216 81.5894 102 78.4384 102C75.2874 102 72.4954 101.216 70.0622 99.6487C67.6412 98.069 65.7372 95.8453 64.3503 92.9775C62.9755 90.0976 62.2882 86.7134 62.2882 82.8249C62.2882 78.9364 62.9755 75.5583 64.3503 72.6905C65.7372 69.8106 67.6472 67.5869 70.0804 66.0193C72.5136 64.4396 75.2996 63.6497 78.4384 63.6497C81.5894 63.6497 84.3754 64.4396 86.7964 66.0193C89.2296 67.5869 91.1396 69.8106 92.5265 72.6905C93.9135 75.5583 94.6069 78.9364 94.6069 82.8249ZM91.2856 82.8249C91.2856 79.4832 90.726 76.6215 89.6067 74.2398C88.4875 71.846 86.9606 70.0172 85.0263 68.7534C83.0919 67.4896 80.8959 66.8578 78.4384 66.8578C75.9931 66.8578 73.8032 67.4896 71.8688 68.7534C69.9344 70.0172 68.4015 71.8399 67.2701 74.2216C66.1508 76.6033 65.5912 79.4711 65.5912 82.8249C65.5912 86.1665 66.1508 89.0282 67.2701 91.4099C68.3894 93.7916 69.9162 95.6204 71.8506 96.8964C73.785 98.1601 75.9809 98.792 78.4384 98.792C80.8959 98.792 83.0919 98.1601 85.0263 96.8964C86.9728 95.6326 88.5057 93.8099 89.625 91.4282C90.7442 89.0343 91.2978 86.1665 91.2856 82.8249Z" fill="black"/>
</svg>
