<svg width="25" height="25" viewBox="0 0 25 25" fill="none" xmlns="http://www.w3.org/2000/svg">
    <g clip-path="url(#clip0_552_5974)">
        <path
                d="M12.5 25C19.4036 25 25 19.4036 25 12.5C25 5.59644 19.4036 0 12.5 0C5.59644 0 0 5.59644 0 12.5C0 19.4036 5.59644 25 12.5 25Z"
                fill="#32BA7C"
        />
        <path
                d="M9.30664 18.1389L15.7341 24.5663C21.0574 23.1468 25.0006 18.2966 25.0006 12.5001V12.1452L19.9533 7.49219L9.30664 18.1389Z"
                fill="#0AA06E"
        />
        <path
                d="M12.8151 15.2992C13.3672 15.8513 13.3672 16.7977 12.8151 17.3497L11.6716 18.4933C11.1196 19.0453 10.1732 19.0453 9.62114 18.4933L4.61326 13.4459C4.06121 12.8939 4.06121 11.9475 4.61326 11.3955L5.75679 10.2519C6.30884 9.69988 7.25521 9.69988 7.80726 10.2519L12.8151 15.2992Z"
                fill="white"
        />
        <path
                d="M17.1926 6.58494C17.7447 6.03289 18.6911 6.03289 19.2431 6.58494L20.3866 7.72847C20.9387 8.28052 20.9387 9.22689 20.3866 9.77894L11.7116 18.4146C11.1595 18.9666 10.2131 18.9666 9.66109 18.4146L8.51755 17.2711C7.9655 16.719 7.9655 15.7726 8.51755 15.2206L17.1926 6.58494Z"
                fill="white"
        />
    </g>
    <defs>
        <clipPath id="clip0_552_5974">
            <rect width="25" height="25" fill="white" />
        </clipPath>
    </defs>
</svg>