<svg width="60" height="60" viewBox="0 0 60 60" fill="none" xmlns="http://www.w3.org/2000/svg">
    <path
            d="M30.0001 59.5C46.5686 59.5 60.0001 46.0685 60.0001 29.5C60.0001 12.9315 46.5686 -0.5 30.0001 -0.5C13.4315 -0.5 0 12.9315 0 29.5C0 46.0685 13.4315 59.5 30.0001 59.5Z"
            fill="#E24C4B"
    />
    <path
            d="M60.0001 29.4999C60.0001 45.9999 46.5001 59.4999 30 59.4999C20.4376 59.4999 12.0001 55.1874 6.5625 48.2499C11.625 52.3749 18.1875 54.8124 25.3125 54.8124C41.8125 54.8124 55.3125 41.3125 55.3125 24.8124C55.3125 17.6875 52.875 11.125 48.75 6.0625C55.6876 11.4998 60.0001 19.9373 60.0001 29.4999Z"
            fill="#D1403F"
    />
    <path
            d="M43.6874 43.1874C42.5625 44.3123 40.6874 44.3123 39.5624 43.1874L29.9999 33.6249L20.4375 43.1874C19.3125 44.3123 17.4374 44.3123 16.3125 43.1874C15.1875 42.0624 15.1875 40.1873 16.3125 39.0623L25.8749 29.4999L16.3125 19.9375C15.1875 18.8125 15.1875 16.9374 16.3125 15.8125C17.4374 14.6875 19.3125 14.6875 20.4375 15.8125L29.9999 25.3749L39.5624 15.8125C40.6874 14.6875 42.5625 14.6875 43.6874 15.8125C44.8124 16.9374 44.8124 18.8125 43.6874 19.9375L34.125 29.4999L43.6874 39.0623C44.8124 40.1873 44.8124 42.0623 43.6874 43.1874Z"
            fill="white"
    />
</svg>