<svg width="60" height="60" viewBox="0 0 60 60" fill="none" xmlns="http://www.w3.org/2000/svg">
    <path
            d="M30 60C46.5685 60 60 46.5685 60 30C60 13.4315 46.5685 0 30 0C13.4315 0 0 13.4315 0 30C0 46.5685 13.4315 60 30 60Z"
            fill="#32BA7C"
    />
    <path
            d="M22.334 43.5335L37.7599 58.9594C50.5359 55.5524 59.9996 43.912 59.9996 30.0004V29.1486L47.886 17.9814L22.334 43.5335Z"
            fill="#0AA06E"
    />
    <path
            d="M30.7573 36.7196C32.0823 38.0445 32.0823 40.3158 30.7573 41.6407L28.0129 44.3852C26.6879 45.7101 24.4166 45.7101 23.0917 44.3852L11.0728 32.2716C9.74787 30.9467 9.74787 28.6754 11.0728 27.3505L13.8173 24.606C15.1422 23.2811 17.4135 23.2811 18.7384 24.606L30.7573 36.7196Z"
            fill="white"
    />
    <path
            d="M41.2621 15.8042C42.587 14.4793 44.8583 14.4793 46.1833 15.8042L48.9277 18.5487C50.2527 19.8736 50.2527 22.1449 48.9277 23.4699L28.1075 44.1954C26.7826 45.5203 24.5113 45.5203 23.1864 44.1954L20.4419 41.4509C19.117 40.126 19.117 37.8547 20.4419 36.5298L41.2621 15.8042Z"
            fill="white"
    />
</svg>