<svg width="22" height="21" viewBox="0 0 22 21" fill="none" xmlns="http://www.w3.org/2000/svg">
<path d="M10.5 19.25H2.62498C2.14198 19.25 1.75 18.858 1.75 18.3751V2.62503C1.75 2.14202 2.14202 1.75004 2.62498 1.75004H10.5C10.9839 1.75004 11.375 1.35893 11.375 0.875063C11.375 0.391194 10.9839 0 10.5 0H2.62498C1.17774 0 0 1.17778 0 2.62503V18.375C0 19.8223 1.17774 21 2.62498 21H10.5C10.9839 21 11.375 20.6089 11.375 20.125C11.375 19.6411 10.9839 19.25 10.5 19.25Z" style="transition: color 250ms cubic-bezier(0.4, 0, 0.2, 1) 0ms" fill="currentColor"/>
<path d="M20.8092 9.87692L15.4892 4.62691C15.1462 4.2874 14.5915 4.2918 14.252 4.63567C13.9125 4.97954 13.916 5.53341 14.2608 5.87292L18.0626 9.6249H7.87498C7.39111 9.6249 7 10.016 7 10.4999C7 10.9838 7.39111 11.3749 7.87498 11.3749H18.0626L14.2608 15.1269C13.916 15.4664 13.9134 16.0203 14.252 16.3641C14.3334 16.4467 14.4304 16.5123 14.5373 16.5571C14.6443 16.6018 14.7591 16.6249 14.875 16.6249C15.0973 16.6249 15.3195 16.5409 15.4892 16.3729L20.8092 11.1228C20.8917 11.0414 20.9573 10.9444 21.002 10.8375C21.0468 10.7305 21.0699 10.6158 21.07 10.4998C21.07 10.2654 20.9764 10.0423 20.8092 9.87692Z" style="transition: color 250ms cubic-bezier(0.4, 0, 0.2, 1) 0ms" fill="currentColor"/>
</svg>
