<svg width="287" height="36" viewBox="0 0 287 36" fill="none" xmlns="http://www.w3.org/2000/svg">
<path d="M43.2216 36C40.0986 36 37.4147 35.2541 35.1701 33.7624C32.9579 32.2376 31.4127 30.1492 30.5344 27.4972L33.4622 25.7569C34.0803 27.9116 35.2189 29.6022 36.878 30.8287C38.5371 32.0221 40.6679 32.6188 43.2704 32.6188C45.8078 32.6188 47.776 32.0552 49.1748 30.9282C50.6062 29.768 51.3219 28.2431 51.3219 26.3536C51.3219 24.5304 50.6713 23.1547 49.37 22.2265C48.0688 21.2983 45.9217 20.337 42.9288 19.3425C39.3829 18.1492 37.0406 17.1878 35.902 16.4586C33.2995 14.8674 31.9983 12.5635 31.9983 9.54696C31.9983 6.59668 33.0067 4.27624 35.0237 2.58563C37.0406 0.861878 39.5293 0 42.4896 0C45.1572 0 47.4669 0.712707 49.4188 2.13812C51.3707 3.53039 52.8183 5.32044 53.7617 7.50829L50.8827 9.14917C49.3212 5.30387 46.5235 3.38121 42.4896 3.38121C40.3751 3.38121 38.6672 3.9116 37.3659 4.97237C36.0647 6.03315 35.4141 7.50829 35.4141 9.39779C35.4141 11.1215 35.9996 12.4144 37.1708 13.2762C38.3419 14.1381 40.2775 15.0166 42.9776 15.9116C44.2138 16.3425 45.0921 16.6575 45.6126 16.8564C46.1657 17.0221 46.9464 17.3204 47.9549 17.7514C48.9959 18.1492 49.7604 18.5138 50.2484 18.8453C50.7363 19.1436 51.3219 19.5746 52.005 20.1381C52.7207 20.6685 53.225 21.2155 53.5178 21.779C53.8431 22.3094 54.1196 22.9724 54.3473 23.768C54.6076 24.5304 54.7377 25.3591 54.7377 26.2541C54.7377 29.2044 53.6804 31.5746 51.5659 33.3646C49.4513 35.1215 46.6699 36 43.2216 36Z" fill="#373737"/>
<path d="M88.6169 30.779C85.2011 34.2597 81.0208 36 76.0761 36C71.1313 36 66.951 34.2597 63.5353 30.779C60.1195 27.2652 58.4116 23.0055 58.4116 18C58.4116 12.9945 60.1195 8.75138 63.5353 5.27072C66.951 1.75691 71.1313 0 76.0761 0C81.0208 0 85.2011 1.75691 88.6169 5.27072C92.0327 8.75138 93.7406 12.9945 93.7406 18C93.7406 23.0055 92.0327 27.2652 88.6169 30.779ZM65.9263 28.3923C68.6589 31.2099 72.0422 32.6188 76.0761 32.6188C80.11 32.6188 83.4932 31.2099 86.2259 28.3923C88.9585 25.5414 90.3248 22.0773 90.3248 18C90.3248 13.9227 88.9585 10.4751 86.2259 7.65746C83.4932 4.80663 80.11 3.38121 76.0761 3.38121C72.0422 3.38121 68.6589 4.80663 65.9263 7.65746C63.1937 10.4751 61.8274 13.9227 61.8274 18C61.8274 22.0773 63.1937 25.5414 65.9263 28.3923Z" fill="#373737"/>
<path d="M102.998 32.1215H118.613V35.4033H99.5821V0.596683H102.998V32.1215Z" fill="#373737"/>
<path d="M144.401 32.6188C142.058 34.8729 139 36 135.227 36C131.453 36 128.395 34.8729 126.053 32.6188C123.711 30.3646 122.54 27.3481 122.54 23.5691V0.596683H125.955V23.5691C125.955 26.3536 126.769 28.558 128.395 30.1823C130.022 31.8066 132.299 32.6188 135.227 32.6188C138.155 32.6188 140.432 31.8066 142.058 30.1823C143.685 28.558 144.498 26.3536 144.498 23.5691V0.596683H147.914V23.5691C147.914 27.3481 146.743 30.3646 144.401 32.6188Z" fill="#373737"/>
<path d="M176.712 0.596683V3.87845H166.221V35.4033H162.805V3.87845H152.313V0.596683H176.712Z" fill="#373737"/>
<path d="M181.594 0.596683H185.009V35.4033H181.594V0.596683Z" fill="#373737"/>
<path d="M221.093 30.779C217.677 34.2597 213.497 36 208.552 36C203.608 36 199.427 34.2597 196.011 30.779C192.596 27.2652 190.888 23.0055 190.888 18C190.888 12.9945 192.596 8.75138 196.011 5.27072C199.427 1.75691 203.608 0 208.552 0C213.497 0 217.677 1.75691 221.093 5.27072C224.509 8.75138 226.217 12.9945 226.217 18C226.217 23.0055 224.509 27.2652 221.093 30.779ZM198.403 28.3923C201.135 31.2099 204.518 32.6188 208.552 32.6188C212.586 32.6188 215.969 31.2099 218.702 28.3923C221.435 25.5414 222.801 22.0773 222.801 18C222.801 13.9227 221.435 10.4751 218.702 7.65746C215.969 4.80663 212.586 3.38121 208.552 3.38121C204.518 3.38121 201.135 4.80663 198.403 7.65746C195.67 10.4751 194.304 13.9227 194.304 18C194.304 22.0773 195.67 25.5414 198.403 28.3923Z" fill="#373737"/>
<path d="M254.017 0.596683H257.433V35.4033H254.505L235.474 7.06077V35.4033H232.058V0.596683H234.986L254.017 28.9392V0.596683Z" fill="#373737"/>
<path d="M275.484 36C272.361 36 269.677 35.2541 267.432 33.7624C265.22 32.2376 263.675 30.1492 262.797 27.4972L265.724 25.7569C266.343 27.9116 267.481 29.6022 269.14 30.8287C270.799 32.0221 272.93 32.6188 275.533 32.6188C278.07 32.6188 280.038 32.0552 281.437 30.9282C282.869 29.768 283.584 28.2431 283.584 26.3536C283.584 24.5304 282.934 23.1547 281.632 22.2265C280.331 21.2983 278.184 20.337 275.191 19.3425C271.645 18.1492 269.303 17.1878 268.164 16.4586C265.562 14.8674 264.261 12.5635 264.261 9.54696C264.261 6.59668 265.269 4.27624 267.286 2.58563C269.303 0.861878 271.792 0 274.752 0C277.42 0 279.729 0.712707 281.681 2.13812C283.633 3.53039 285.081 5.32044 286.024 7.50829L283.145 9.14917C281.584 5.30387 278.786 3.38121 274.752 3.38121C272.637 3.38121 270.93 3.9116 269.628 4.97237C268.327 6.03315 267.676 7.50829 267.676 9.39779C267.676 11.1215 268.262 12.4144 269.433 13.2762C270.604 14.1381 272.54 15.0166 275.24 15.9116C276.476 16.3425 277.354 16.6575 277.875 16.8564C278.428 17.0221 279.209 17.3204 280.217 17.7514C281.258 18.1492 282.023 18.5138 282.511 18.8453C282.999 19.1436 283.584 19.5746 284.267 20.1381C284.983 20.6685 285.487 21.2155 285.78 21.779C286.105 22.3094 286.382 22.9724 286.61 23.768C286.87 24.5304 287 25.3591 287 26.2541C287 29.2044 285.943 31.5746 283.828 33.3646C281.714 35.1215 278.932 36 275.484 36Z" fill="#373737"/>
<path fill-rule="evenodd" clip-rule="evenodd" d="M18.2501 35.9556H29.083L18.4453 18.055L28.595 1.14894H17.7621L9.7594 15.0716V1.14894H0V35.9556H9.7594V21.0384L18.2501 35.9556ZM8.07188 3.31279L1.87093 3.29481V34.0268H8.07188V3.31279ZM18.5222 3.06383L10.6643 17.4255H16.8383L25.2575 3.06383H18.5222ZM25.8188 34.0851L16.8383 18.9574H10.4772L19.4576 34.0851H25.8188Z" fill="#006838"/>
</svg>
