<svg width="160" height="21" viewBox="0 0 160 21" fill="none" xmlns="http://www.w3.org/2000/svg" style="display: block">
<path d="M24.0957 20.3044C22.3546 20.3044 20.8584 19.8982 19.607 19.0856C18.3738 18.2551 17.5123 17.1175 17.0226 15.673L18.6549 14.7251C18.9995 15.8987 19.6342 16.8196 20.5591 17.4877C21.4841 18.1377 22.672 18.4627 24.1229 18.4627C25.5375 18.4627 26.6347 18.1558 27.4145 17.5418C28.2125 16.9099 28.6115 16.0793 28.6115 15.0501C28.6115 14.057 28.2488 13.3077 27.5233 12.8021C26.7979 12.2966 25.6009 11.7729 23.9324 11.2313C21.9556 10.5812 20.6498 10.0576 20.0151 9.66038C18.5642 8.79369 17.8388 7.5388 17.8388 5.8957C17.8388 4.28871 18.401 3.02479 19.5254 2.10393C20.6498 1.16501 22.0372 0.695557 23.6876 0.695557C25.1747 0.695557 26.4624 1.08376 27.5506 1.86017C28.6387 2.61852 29.4458 3.59355 29.9717 4.78525L28.3667 5.67902C27.4961 3.58452 25.9365 2.53727 23.6876 2.53727C22.5088 2.53727 21.5566 2.82617 20.8312 3.40396C20.1058 3.98176 19.743 4.78525 19.743 5.81445C19.743 6.75336 20.0695 7.45754 20.7224 7.927C21.3753 8.39646 22.4544 8.87494 23.9596 9.36246C24.6488 9.59719 25.1385 9.76872 25.4286 9.87705C25.737 9.96733 26.1722 10.1298 26.7344 10.3646C27.3148 10.5812 27.741 10.7799 28.013 10.9604C28.2851 11.1229 28.6115 11.3576 28.9924 11.6646C29.3913 11.9535 29.6725 12.2514 29.8357 12.5584C30.017 12.8473 30.1712 13.2084 30.2981 13.6417C30.4432 14.057 30.5158 14.5084 30.5158 14.9959C30.5158 16.6029 29.9264 17.8939 28.7475 18.869C27.5687 19.8259 26.0181 20.3044 24.0957 20.3044Z" fill="#373737"/>
<path d="M49.4032 17.4606C47.4989 19.3565 45.1684 20.3044 42.4117 20.3044C39.6551 20.3044 37.3246 19.3565 35.4203 17.4606C33.5161 15.5467 32.5639 13.2264 32.5639 10.5C32.5639 7.77352 33.5161 5.46235 35.4203 3.56647C37.3246 1.65253 39.6551 0.695557 42.4117 0.695557C45.1684 0.695557 47.4989 1.65253 49.4032 3.56647C51.3074 5.46235 52.2596 7.77352 52.2596 10.5C52.2596 13.2264 51.3074 15.5467 49.4032 17.4606ZM36.7533 16.1606C38.2768 17.6953 40.1629 18.4627 42.4117 18.4627C44.6606 18.4627 46.5467 17.6953 48.0702 16.1606C49.5936 14.6077 50.3553 12.7209 50.3553 10.5C50.3553 8.27909 49.5936 6.40127 48.0702 4.8665C46.5467 3.31368 44.6606 2.53727 42.4117 2.53727C40.1629 2.53727 38.2768 3.31368 36.7533 4.8665C35.2299 6.40127 34.4682 8.27909 34.4682 10.5C34.4682 12.7209 35.2299 14.6077 36.7533 16.1606Z" fill="#373737"/>
<path d="M57.4204 18.1919H66.1257V19.9794H55.5162V1.02056H57.4204V18.1919Z" fill="#373737"/>
<path d="M80.5021 18.4627C79.1963 19.6905 77.4915 20.3044 75.3878 20.3044C73.284 20.3044 71.5792 19.6905 70.2734 18.4627C68.9676 17.2349 68.3148 15.5918 68.3148 13.5334V1.02056H70.219V13.5334C70.219 15.0501 70.6724 16.2508 71.5792 17.1356C72.486 18.0203 73.7555 18.4627 75.3878 18.4627C77.02 18.4627 78.2895 18.0203 79.1963 17.1356C80.1031 16.2508 80.5565 15.0501 80.5565 13.5334V1.02056H82.4608V13.5334C82.4608 15.5918 81.8079 17.2349 80.5021 18.4627Z" fill="#373737"/>
<path d="M98.5153 1.02056V2.80811H92.6665V19.9794H90.7622V2.80811H84.9134V1.02056H98.5153Z" fill="#373737"/>
<path d="M101.237 1.02056H103.141V19.9794H101.237V1.02056Z" fill="#373737"/>
<path d="M123.258 17.4606C121.353 19.3565 119.023 20.3044 116.266 20.3044C113.509 20.3044 111.179 19.3565 109.275 17.4606C107.37 15.5467 106.418 13.2264 106.418 10.5C106.418 7.77352 107.37 5.46235 109.275 3.56647C111.179 1.65253 113.509 0.695557 116.266 0.695557C119.023 0.695557 121.353 1.65253 123.258 3.56647C125.162 5.46235 126.114 7.77352 126.114 10.5C126.114 13.2264 125.162 15.5467 123.258 17.4606ZM110.608 16.1606C112.131 17.6953 114.017 18.4627 116.266 18.4627C118.515 18.4627 120.401 17.6953 121.925 16.1606C123.448 14.6077 124.21 12.7209 124.21 10.5C124.21 8.27909 123.448 6.40127 121.925 4.8665C120.401 3.31368 118.515 2.53727 116.266 2.53727C114.017 2.53727 112.131 3.31368 110.608 4.8665C109.084 6.40127 108.323 8.27909 108.323 10.5C108.323 12.7209 109.084 14.6077 110.608 16.1606Z" fill="#373737"/>
<path d="M141.612 1.02056H143.517V19.9794H141.884L131.275 4.54149V19.9794H129.371V1.02056H131.003L141.612 16.4585V1.02056Z" fill="#373737"/>
<path d="M153.58 20.3044C151.839 20.3044 150.343 19.8982 149.091 19.0856C147.858 18.2551 146.997 17.1175 146.507 15.673L148.139 14.7251C148.484 15.8987 149.118 16.8196 150.043 17.4877C150.968 18.1377 152.156 18.4627 153.607 18.4627C155.022 18.4627 156.119 18.1558 156.899 17.5418C157.697 16.9099 158.096 16.0793 158.096 15.0501C158.096 14.057 157.733 13.3077 157.008 12.8021C156.282 12.2966 155.085 11.7729 153.417 11.2313C151.44 10.5812 150.134 10.0576 149.499 9.66038C148.048 8.79369 147.323 7.5388 147.323 5.8957C147.323 4.28871 147.885 3.02479 149.01 2.10393C150.134 1.16501 151.521 0.695557 153.172 0.695557C154.659 0.695557 155.947 1.08376 157.035 1.86017C158.123 2.61852 158.93 3.59355 159.456 4.78525L157.851 5.67902C156.98 3.58452 155.421 2.53727 153.172 2.53727C151.993 2.53727 151.041 2.82617 150.315 3.40396C149.59 3.98176 149.227 4.78525 149.227 5.81445C149.227 6.75336 149.554 7.45754 150.207 7.927C150.859 8.39646 151.939 8.87494 153.444 9.36246C154.133 9.59719 154.623 9.76872 154.913 9.87705C155.221 9.96733 155.656 10.1298 156.219 10.3646C156.799 10.5812 157.225 10.7799 157.497 10.9604C157.769 11.1229 158.096 11.3576 158.477 11.6646C158.876 11.9535 159.157 12.2514 159.32 12.5584C159.501 12.8473 159.655 13.2084 159.782 13.6417C159.927 14.057 160 14.5084 160 14.9959C160 16.6029 159.411 17.8939 158.232 18.869C157.053 19.8259 155.502 20.3044 153.58 20.3044Z" fill="#373737"/>
<path fill-rule="evenodd" clip-rule="evenodd" d="M10.1743 20.2802H16.2135L10.2831 10.53L15.9415 1.32137H9.90222L5.44078 8.90491V1.32137H0V20.2802H5.44078V12.155L10.1743 20.2802ZM4.5 2.5L1.04302 2.49021V19.2296H4.5V2.5ZM10.3259 2.3644L5.94524 10.1871H9.38722L14.0808 2.3644H10.3259ZM14.3937 19.2614L9.38722 11.0215H5.84094L10.8475 19.2614H14.3937Z" fill="#20836D"/>
</svg>
