<svg width="246" height="30" viewBox="0 0 246 30" fill="none" xmlns="http://www.w3.org/2000/svg">
<path d="M36.9224 30C34.2546 30 31.9619 29.3785 30.0444 28.1354C28.1546 26.8646 26.8346 25.1243 26.0843 22.9144L28.5854 21.4641C29.1134 23.2597 30.086 24.6685 31.5033 25.6906C32.9207 26.6851 34.7409 27.1823 36.9641 27.1823C39.1318 27.1823 40.8131 26.7127 42.008 25.7735C43.2308 24.8066 43.8422 23.5359 43.8422 21.9613C43.8422 20.442 43.2864 19.2956 42.1748 18.5221C41.0632 17.7486 39.229 16.9475 36.6723 16.1188C33.6432 15.1243 31.6423 14.3232 30.6696 13.7155C28.4464 12.3895 27.3348 10.4696 27.3348 7.9558C27.3348 5.49724 28.1963 3.56354 29.9193 2.1547C31.6423 0.718232 33.7683 0 36.2972 0C38.576 0 40.5491 0.593922 42.2165 1.78177C43.8839 2.94199 45.1205 4.4337 45.9265 6.2569L43.467 7.62431C42.1331 4.41989 39.7431 2.81768 36.2972 2.81768C34.4908 2.81768 33.0318 3.25967 31.9202 4.14364C30.8086 5.02762 30.2528 6.2569 30.2528 7.83149C30.2528 9.26796 30.753 10.3453 31.7535 11.0635C32.7539 11.7818 34.4074 12.5138 36.714 13.2597C37.77 13.6188 38.5204 13.8812 38.965 14.047C39.4375 14.1851 40.1044 14.4337 40.9659 14.7928C41.8552 15.1243 42.5083 15.4282 42.9251 15.7044C43.342 15.953 43.8422 16.3122 44.4258 16.7818C45.0372 17.2238 45.4679 17.6796 45.718 18.1492C45.9959 18.5912 46.2322 19.1436 46.4267 19.8066C46.649 20.442 46.7602 21.1326 46.7602 21.8785C46.7602 24.337 45.857 26.3122 44.0506 27.8039C42.2443 29.268 39.8682 30 36.9224 30Z" fill="white"/>
<path d="M75.7018 25.6492C72.7838 28.5497 69.2128 30 64.9887 30C60.7646 30 57.1935 28.5497 54.2756 25.6492C51.3576 22.721 49.8986 19.1713 49.8986 15C49.8986 10.8287 51.3576 7.29282 54.2756 4.39227C57.1935 1.46409 60.7646 0 64.9887 0C69.2128 0 72.7838 1.46409 75.7018 4.39227C78.6198 7.29282 80.0788 10.8287 80.0788 15C80.0788 19.1713 78.6198 22.721 75.7018 25.6492ZM56.3182 23.6602C58.6525 26.0083 61.5427 27.1823 64.9887 27.1823C68.4347 27.1823 71.3249 26.0083 73.6592 23.6602C75.9936 21.2845 77.1608 18.3978 77.1608 15C77.1608 11.6022 75.9936 8.72928 73.6592 6.38121C71.3249 4.00552 68.4347 2.81768 64.9887 2.81768C61.5427 2.81768 58.6525 4.00552 56.3182 6.38121C53.9838 8.72928 52.8166 11.6022 52.8166 15C52.8166 18.3978 53.9838 21.2845 56.3182 23.6602Z" fill="white"/>
<path d="M87.9869 26.768H101.326V29.5028H85.069V0.497236H87.9869V26.768Z" fill="white"/>
<path d="M123.356 27.1823C121.355 29.0608 118.742 30 115.519 30C112.295 30 109.683 29.0608 107.682 27.1823C105.681 25.3039 104.681 22.7901 104.681 19.6409V0.497236H107.599V19.6409C107.599 21.9613 108.293 23.7983 109.683 25.1519C111.072 26.5055 113.018 27.1823 115.519 27.1823C118.02 27.1823 119.965 26.5055 121.355 25.1519C122.744 23.7983 123.439 21.9613 123.439 19.6409V0.497236H126.357V19.6409C126.357 22.7901 125.356 25.3039 123.356 27.1823Z" fill="white"/>
<path d="M150.958 0.497236V3.23204H141.995V29.5028H139.077V3.23204H130.115V0.497236H150.958Z" fill="white"/>
<path d="M155.128 0.497236H158.046V29.5028H155.128V0.497236Z" fill="white"/>
<path d="M188.871 25.6492C185.953 28.5497 182.382 30 178.158 30C173.934 30 170.363 28.5497 167.445 25.6492C164.527 22.721 163.068 19.1713 163.068 15C163.068 10.8287 164.527 7.29282 167.445 4.39227C170.363 1.46409 173.934 0 178.158 0C182.382 0 185.953 1.46409 188.871 4.39227C191.789 7.29282 193.248 10.8287 193.248 15C193.248 19.1713 191.789 22.721 188.871 25.6492ZM169.487 23.6602C171.822 26.0083 174.712 27.1823 178.158 27.1823C181.604 27.1823 184.494 26.0083 186.828 23.6602C189.163 21.2845 190.33 18.3978 190.33 15C190.33 11.6022 189.163 8.72928 186.828 6.38121C184.494 4.00552 181.604 2.81768 178.158 2.81768C174.712 2.81768 171.822 4.00552 169.487 6.38121C167.153 8.72928 165.986 11.6022 165.986 15C165.986 18.3978 167.153 21.2845 169.487 23.6602Z" fill="white"/>
<path d="M216.996 0.497236H219.914V29.5028H217.413L201.156 5.88398V29.5028H198.238V0.497236H200.739L216.996 24.116V0.497236Z" fill="white"/>
<path d="M235.335 30C232.667 30 230.374 29.3785 228.457 28.1354C226.567 26.8646 225.247 25.1243 224.496 22.9144L226.998 21.4641C227.526 23.2597 228.498 24.6685 229.916 25.6906C231.333 26.6851 233.153 27.1823 235.376 27.1823C237.544 27.1823 239.225 26.7127 240.42 25.7735C241.643 24.8066 242.254 23.5359 242.254 21.9613C242.254 20.442 241.699 19.2956 240.587 18.5221C239.475 17.7486 237.641 16.9475 235.085 16.1188C232.055 15.1243 230.055 14.3232 229.082 13.7155C226.859 12.3895 225.747 10.4696 225.747 7.9558C225.747 5.49724 226.609 3.56354 228.332 2.1547C230.055 0.718232 232.181 0 234.709 0C236.988 0 238.961 0.593922 240.629 1.78177C242.296 2.94199 243.533 4.4337 244.339 6.2569L241.879 7.62431C240.545 4.41989 238.155 2.81768 234.709 2.81768C232.903 2.81768 231.444 3.25967 230.332 4.14364C229.221 5.02762 228.665 6.2569 228.665 7.83149C228.665 9.26796 229.165 10.3453 230.166 11.0635C231.166 11.7818 232.82 12.5138 235.126 13.2597C236.182 13.6188 236.933 13.8812 237.377 14.047C237.85 14.1851 238.517 14.4337 239.378 14.7928C240.267 15.1243 240.921 15.4282 241.337 15.7044C241.754 15.953 242.254 16.3122 242.838 16.7818C243.449 17.2238 243.88 17.6796 244.13 18.1492C244.408 18.5912 244.644 19.1436 244.839 19.8066C245.061 20.442 245.172 21.1326 245.172 21.8785C245.172 24.337 244.269 26.3122 242.463 27.8039C240.656 29.268 238.28 30 235.335 30Z" fill="white"/>
<path fill-rule="evenodd" clip-rule="evenodd" d="M15.5903 29.963H24.8444L15.757 15.0458L24.4276 0.957447H15.1734L8.33706 12.5597V0.957447H0V29.963H8.33706V17.532L15.5903 29.963ZM6.89547 2.76065L1.59826 2.74568V28.3557H6.89547V2.76065ZM15.8227 2.55319L9.11006 14.5213H14.3843L21.5764 2.55319H15.8227ZM22.0559 28.4043L14.3843 15.7979H8.95023L16.6219 28.4043H22.0559Z" fill="#20836D"/>
</svg>
