<svg width="28" height="28" viewBox="0 0 33 33" fill="none" xmlns="http://www.w3.org/2000/svg">
    <path d="M25.61 10.2085C25.4625 10.1404 25.3004 10.1102 25.1383 10.1208C24.9762 10.1314 24.8193 10.1823 24.6819 10.269C24.5448 10.3564 24.4319 10.477 24.3537 10.6195C24.2755 10.7621 24.2345 10.9221 24.2344 11.0847V12.6973C24.2344 13.2307 23.8011 13.6641 23.2676 13.6641C22.7899 13.6641 22.3858 13.3204 22.3075 12.853C21.5209 7.97749 17.9389 0 16.5 0C15.0611 0 11.4791 7.97749 10.6935 12.8474C10.6143 13.3204 10.2101 13.6641 9.73242 13.6641C9.19901 13.6641 8.76562 13.2307 8.76562 12.6973V11.0846C8.76562 10.7542 8.59663 10.4464 8.31813 10.2689C8.18075 10.1822 8.02388 10.1313 7.86178 10.1207C7.69969 10.1102 7.53753 10.1403 7.39007 10.2085C4.09877 11.7437 1.99805 18.4339 1.99805 22.3652C1.99805 28.6267 7.96125 33 16.5 33C25.0387 33 31.002 28.6267 31.002 22.3652C31.002 18.4339 28.9012 11.7437 25.61 10.2085Z" fill="url(#paint0_linear_1736_8168)" />
    <path d="M21.1896 19.9239C21.103 19.7837 20.9819 19.6679 20.838 19.5876C20.6941 19.5073 20.532 19.4651 20.3672 19.4651H18.2222L17.4376 16.3305C17.3898 16.1389 17.2845 15.9664 17.1358 15.8365C16.9871 15.7065 16.8021 15.6252 16.6058 15.6036C16.1951 15.5611 15.8165 15.7716 15.6352 16.1323L11.768 23.8666C11.6179 24.166 11.6339 24.5219 11.8105 24.807C11.987 25.0922 12.2977 25.2659 12.6328 25.2659H14.7779L15.5625 28.4004C15.6102 28.5921 15.7155 28.7645 15.8643 28.8945C16.013 29.0244 16.1979 29.1057 16.3943 29.1274C16.5907 29.1488 16.7889 29.1097 16.9624 29.0152C17.1359 28.9206 17.2764 28.7753 17.3649 28.5987L21.232 20.8643C21.3059 20.717 21.3407 20.5532 21.3333 20.3886C21.3259 20.2239 21.2764 20.064 21.1896 19.9239Z" fill="url(#paint1_linear_1736_8168)" />
    <defs>
        <linearGradient id="paint0_linear_1736_8168" x1="16.5" y1="33" x2="16.5" y2="0" gradientUnits="userSpaceOnUse">
            <stop stop-color="#006838" />
            <stop offset="1" stop-color="#00FF89" />
        </linearGradient>
        <linearGradient id="paint1_linear_1736_8168" x1="16.5" y1="29.1329" x2="16.5" y2="15.5981" gradientUnits="userSpaceOnUse">
            <stop stop-color="#9AFFC8" />
            <stop offset="1" stop-color="#CBDDFF" />
        </linearGradient>
    </defs>
</svg>
