<svg width="318" height="39" viewBox="0 0 318 39" fill="none" xmlns="http://www.w3.org/2000/svg">
<path d="M47.8901 39C44.4298 39 41.4561 38.192 38.969 36.576C36.5179 34.924 34.8057 32.6616 33.8325 29.7887L37.0766 27.9033C37.7614 30.2376 39.023 32.0691 40.8613 33.3978C42.6996 34.6906 45.0606 35.337 47.9442 35.337C50.7557 35.337 52.9365 34.7265 54.4864 33.5055C56.0724 32.2486 56.8654 30.5967 56.8654 28.5497C56.8654 26.5746 56.1445 25.0843 54.7027 24.0787C53.2609 23.0732 50.8819 22.0318 47.5657 20.9544C43.6368 19.6616 41.0416 18.6202 39.78 17.8301C36.8964 16.1064 35.4546 13.6105 35.4546 10.3425C35.4546 7.14641 36.572 4.6326 38.8068 2.8011C41.0416 0.933701 43.799 0 47.0791 0C50.0348 0 52.594 0.772099 54.7567 2.3163C56.9195 3.82458 58.5235 5.76381 59.5688 8.13398L56.3788 9.9116C54.6486 5.74586 51.5487 3.66298 47.0791 3.66298C44.7362 3.66298 42.8438 4.23757 41.402 5.38674C39.9602 6.53591 39.2393 8.13398 39.2393 10.1809C39.2393 12.0483 39.8881 13.4489 41.1857 14.3826C42.4834 15.3163 44.628 16.268 47.6198 17.2376C48.9895 17.7044 49.9627 18.0456 50.5395 18.261C51.1522 18.4406 52.0173 18.7638 53.1347 19.2307C54.2882 19.6616 55.1352 20.0566 55.6759 20.4157C56.2166 20.7389 56.8654 21.2058 57.6223 21.8163C58.4153 22.3909 58.974 22.9834 59.2984 23.5939C59.6589 24.1685 59.9653 24.8867 60.2176 25.7486C60.506 26.5746 60.6501 27.4724 60.6501 28.442C60.6501 31.6381 59.4787 34.2058 57.1357 36.145C54.7928 38.0483 51.7109 39 47.8901 39Z" fill="#373737"/>
<path d="M98.1888 33.3439C94.4041 37.1146 89.7722 39 84.2934 39C78.8145 39 74.1827 37.1146 70.398 33.3439C66.6132 29.5373 64.7208 24.9227 64.7208 19.5C64.7208 14.0773 66.6132 9.48066 70.398 5.70994C74.1827 1.90332 78.8145 0 84.2934 0C89.7722 0 94.4041 1.90332 98.1888 5.70994C101.974 9.48066 103.866 14.0773 103.866 19.5C103.866 24.9227 101.974 29.5373 98.1888 33.3439ZM73.0473 30.7583C76.0751 33.8108 79.8238 35.337 84.2934 35.337C88.763 35.337 92.5117 33.8108 95.5395 30.7583C98.5673 27.6699 100.081 23.9171 100.081 19.5C100.081 15.0829 98.5673 11.3481 95.5395 8.29558C92.5117 5.20718 88.763 3.66298 84.2934 3.66298C79.8238 3.66298 76.0751 5.20718 73.0473 8.29558C70.0195 11.3481 68.5056 15.0829 68.5056 19.5C68.5056 23.9171 70.0195 27.6699 73.0473 30.7583Z" fill="#373737"/>
<path d="M114.123 34.7983H131.425V38.3536H110.338V0.646407H114.123V34.7983Z" fill="#373737"/>
<path d="M159.998 35.337C157.403 37.779 154.014 39 149.833 39C145.652 39 142.264 37.779 139.668 35.337C137.073 32.895 135.776 29.6271 135.776 25.5331V0.646407H139.56V25.5331C139.56 28.5497 140.461 30.9378 142.264 32.6975C144.066 34.4572 146.589 35.337 149.833 35.337C153.077 35.337 155.6 34.4572 157.403 32.6975C159.205 30.9378 160.106 28.5497 160.106 25.5331V0.646407H163.891V25.5331C163.891 29.6271 162.593 32.895 159.998 35.337Z" fill="#373737"/>
<path d="M195.799 0.646407V4.20166H184.175V38.3536H180.39V4.20166H168.765V0.646407H195.799Z" fill="#373737"/>
<path d="M201.208 0.646407H204.993V38.3536H201.208V0.646407Z" fill="#373737"/>
<path d="M244.974 33.3439C241.19 37.1146 236.558 39 231.079 39C225.6 39 220.968 37.1146 217.183 33.3439C213.399 29.5373 211.506 24.9227 211.506 19.5C211.506 14.0773 213.399 9.48066 217.183 5.70994C220.968 1.90332 225.6 0 231.079 0C236.558 0 241.19 1.90332 244.974 5.70994C248.759 9.48066 250.651 14.0773 250.651 19.5C250.651 24.9227 248.759 29.5373 244.974 33.3439ZM219.833 30.7583C222.861 33.8108 226.609 35.337 231.079 35.337C235.549 35.337 239.297 33.8108 242.325 30.7583C245.353 27.6699 246.867 23.9171 246.867 19.5C246.867 15.0829 245.353 11.3481 242.325 8.29558C239.297 5.20718 235.549 3.66298 231.079 3.66298C226.609 3.66298 222.861 5.20718 219.833 8.29558C216.805 11.3481 215.291 15.0829 215.291 19.5C215.291 23.9171 216.805 27.6699 219.833 30.7583Z" fill="#373737"/>
<path d="M281.454 0.646407H285.239V38.3536H281.995L260.909 7.64917V38.3536H257.124V0.646407H260.368L281.454 31.3508V0.646407Z" fill="#373737"/>
<path d="M305.24 39C301.78 39 298.806 38.192 296.319 36.576C293.868 34.924 292.156 32.6616 291.182 29.7887L294.426 27.9033C295.111 30.2376 296.373 32.0691 298.211 33.3978C300.05 34.6906 302.41 35.337 305.294 35.337C308.106 35.337 310.286 34.7265 311.836 33.5055C313.422 32.2486 314.215 30.5967 314.215 28.5497C314.215 26.5746 313.494 25.0843 312.053 24.0787C310.611 23.0732 308.232 22.0318 304.916 20.9544C300.987 19.6616 298.391 18.6202 297.13 17.8301C294.246 16.1064 292.804 13.6105 292.804 10.3425C292.804 7.14641 293.922 4.6326 296.157 2.8011C298.391 0.933701 301.149 0 304.429 0C307.385 0 309.944 0.772099 312.107 2.3163C314.269 3.82458 315.873 5.76381 316.919 8.13398L313.729 9.9116C311.999 5.74586 308.899 3.66298 304.429 3.66298C302.086 3.66298 300.194 4.23757 298.752 5.38674C297.31 6.53591 296.589 8.13398 296.589 10.1809C296.589 12.0483 297.238 13.4489 298.536 14.3826C299.833 15.3163 301.978 16.268 304.97 17.2376C306.339 17.7044 307.313 18.0456 307.889 18.261C308.502 18.4406 309.367 18.7638 310.485 19.2307C311.638 19.6616 312.485 20.0566 313.026 20.4157C313.566 20.7389 314.215 21.2058 314.972 21.8163C315.765 22.3909 316.324 22.9834 316.648 23.5939C317.009 24.1685 317.315 24.8867 317.567 25.7486C317.856 26.5746 318 27.4724 318 28.442C318 31.6381 316.829 34.2058 314.486 36.145C312.143 38.0483 309.061 39 305.24 39Z" fill="#373737"/>
<path fill-rule="evenodd" clip-rule="evenodd" d="M20.2213 38.9523H32.2244L20.4376 19.56L31.6837 1.24512H19.6807L10.8136 16.328V1.24512H0V38.9523H10.8136V22.7921L20.2213 38.9523ZM8.70665 4.56427H2.07301V35.6813H8.70665V4.56427ZM20.5228 3.31959L11.8162 18.8781H18.6571L27.9857 3.31959H20.5228ZM28.6076 36.926L18.6571 20.5377H11.6089L21.5593 36.926H28.6076Z" fill="#20836D"/>
</svg>
